<svg xmlns="http://www.w3.org/2000/svg" xmlns:xlink="http://www.w3.org/1999/xlink" contentStyleType="text/css" data-diagram-type="DESCRIPTION" height="615px" preserveAspectRatio="none" style="width:2721px;height:615px;background:#FFFFFF;" version="1.1" viewBox="0 0 2721 615" width="2721px" zoomAndPan="magnify"><title>Teacher Attendance System - Data Flow Diagram</title><defs/><g><text fill="#000000" font-family="Verdana" font-size="22" font-weight="bold" lengthAdjust="spacing" textLength="606.6865" x="1052.8035" y="37.1182">Teacher Attendance System - Data Flow Diagram</text><!--cluster AuthProcess--><g class="cluster" data-entity="AuthProcess" data-source-line="8" data-uid="ent0005" id="cluster_AuthProcess"><rect fill="#FFFFFF" height="87" rx="2.5" ry="2.5" style="stroke:#000000;stroke-width:1;" width="434" x="565.5" y="204.2373"/><text fill="#000000" font-family="Verdana" font-size="14" font-weight="bold" lengthAdjust="spacing" textLength="181.7266" x="691.6367" y="220.3125">Authentication Process</text></g><!--cluster AttendanceProcess--><g class="cluster" data-entity="AttendanceProcess" data-source-line="14" data-uid="ent0009" id="cluster_AttendanceProcess"><rect fill="#FFFFFF" height="88" rx="2.5" ry="2.5" style="stroke:#000000;stroke-width:1;" width="500" x="41.5" y="203.7373"/><text fill="#000000" font-family="Verdana" font-size="14" font-weight="bold" lengthAdjust="spacing" textLength="195.8223" x="193.5889" y="219.8125">Attendance Management</text></g><!--cluster RecordsProcess--><g class="cluster" data-entity="RecordsProcess" data-source-line="20" data-uid="ent0013" id="cluster_RecordsProcess"><rect fill="#FFFFFF" height="98" rx="2.5" ry="2.5" style="stroke:#000000;stroke-width:1;" width="620" x="1208.5" y="511.7373"/><text fill="#000000" font-family="Verdana" font-size="14" font-weight="bold" lengthAdjust="spacing" textLength="169.4287" x="1433.7856" y="527.8125">Records Management</text></g><!--cluster StatsProcess--><g class="cluster" data-entity="StatsProcess" data-source-line="26" data-uid="ent0017" id="cluster_StatsProcess"><rect fill="#FFFFFF" height="98" rx="2.5" ry="2.5" style="stroke:#000000;stroke-width:1;" width="666" x="1023.5" y="198.7373"/><text fill="#000000" font-family="Verdana" font-size="14" font-weight="bold" lengthAdjust="spacing" textLength="164.6162" x="1274.1919" y="214.8125">Statistics Generation</text></g><!--cluster UserProcess--><g class="cluster" data-entity="UserProcess" data-source-line="32" data-uid="ent0021" id="cluster_UserProcess"><rect fill="#FFFFFF" height="84" rx="2.5" ry="2.5" style="stroke:#000000;stroke-width:1;" width="488" x="1713.5" y="205.7373"/><text fill="#000000" font-family="Verdana" font-size="14" font-weight="bold" lengthAdjust="spacing" textLength="142.208" x="1886.396" y="221.8125">User Management</text></g><!--cluster ConfigProcess--><g class="cluster" data-entity="ConfigProcess" data-source-line="38" data-uid="ent0025" id="cluster_ConfigProcess"><rect fill="#FFFFFF" height="88" rx="2.5" ry="2.5" style="stroke:#000000;stroke-width:1;" width="379" x="2225.5" y="203.7373"/><text fill="#000000" font-family="Verdana" font-size="14" font-weight="bold" lengthAdjust="spacing" textLength="169.873" x="2330.0635" y="219.8125">System Configuration</text></g><!--cluster Data Storage--><g class="cluster" data-entity="Data Storage" data-source-line="43" data-uid="ent0028" id="cluster_Data Storage"><path d="M1290.5,355.7373 C1290.5,345.7373 1539.5,345.7373 1539.5,345.7373 C1539.5,345.7373 1788.5,345.7373 1788.5,355.7373 L1788.5,449.7373 C1788.5,459.7373 1539.5,459.7373 1539.5,459.7373 C1539.5,459.7373 1290.5,459.7373 1290.5,449.7373 L1290.5,355.7373" fill="#FFFFFF" style="stroke:#000000;stroke-width:1;"/><path d="M1290.5,355.7373 C1290.5,365.7373 1539.5,365.7373 1539.5,365.7373 C1539.5,365.7373 1788.5,365.7373 1788.5,355.7373" fill="none" style="stroke:#000000;stroke-width:1;"/><text fill="#000000" font-family="Verdana" font-size="14" font-weight="bold" lengthAdjust="spacing" textLength="102.8193" x="1488.0903" y="381.8125">Data Storage</text></g><g class="entity" data-entity="Login" data-source-line="9" data-uid="ent0006" id="entity_Login"><ellipse cx="945.653" cy="257.7685" fill="#FFFFFF" rx="38.153" ry="15.0312" style="stroke:#000000;stroke-width:1;"/><text fill="#000000" font-family="Verdana" font-size="14" lengthAdjust="spacing" textLength="37.7139" x="926.7961" y="261.3363">Login</text></g><g class="entity" data-entity="Register" data-source-line="10" data-uid="ent0007" id="entity_Register"><ellipse cx="634.4767" cy="257.8042" fill="#FFFFFF" rx="52.4767" ry="15.0669" style="stroke:#000000;stroke-width:1;"/><text fill="#000000" font-family="Verdana" font-size="14" lengthAdjust="spacing" textLength="57.7637" x="602.9062" y="262.0278">Register</text></g><g class="entity" data-entity="ValidateToken" data-source-line="11" data-uid="ent0008" id="entity_ValidateToken"><ellipse cx="797.4988" cy="257.6371" fill="#FFFFFF" rx="74.9988" ry="17.3998" style="stroke:#000000;stroke-width:1;"/><text fill="#000000" font-family="Verdana" font-size="14" lengthAdjust="spacing" textLength="104.1797" x="745.3136" y="261.231">Validate Token</text></g><g class="entity" data-entity="CheckIn" data-source-line="15" data-uid="ent0010" id="entity_CheckIn"><ellipse cx="276.2646" cy="257.8322" fill="#FFFFFF" rx="55.7646" ry="15.0949" style="stroke:#000000;stroke-width:1;"/><text fill="#000000" font-family="Verdana" font-size="14" lengthAdjust="spacing" textLength="62.2275" x="242.1508" y="262.1198">Check In</text></g><g class="entity" data-entity="CheckOut" data-source-line="16" data-uid="ent0011" id="entity_CheckOut"><ellipse cx="121.6096" cy="257.8881" fill="#FFFFFF" rx="63.6096" ry="15.1508" style="stroke:#000000;stroke-width:1;"/><text fill="#000000" font-family="Verdana" font-size="14" lengthAdjust="spacing" textLength="72.8711" x="82.174" y="262.1757">Check Out</text></g><g class="entity" data-entity="CalcStatus" data-source-line="17" data-uid="ent0012" id="entity_CalcStatus"><ellipse cx="446.6698" cy="257.9713" fill="#FFFFFF" rx="79.1698" ry="18.234" style="stroke:#000000;stroke-width:1;"/><text fill="#000000" font-family="Verdana" font-size="14" lengthAdjust="spacing" textLength="114.3721" x="389.4838" y="261.5391">Calculate Status</text></g><g class="entity" data-entity="QueryPersonal" data-source-line="21" data-uid="ent0014" id="entity_QueryPersonal"><ellipse cx="1327.4716" cy="570.6316" fill="#FFFFFF" rx="102.4716" ry="22.8943" style="stroke:#000000;stroke-width:1;"/><text fill="#000000" font-family="Verdana" font-size="14" lengthAdjust="spacing" textLength="167.8359" x="1243.5537" y="574.1995">Query Personal Records</text></g><g class="entity" data-entity="QueryAll" data-source-line="22" data-uid="ent0015" id="entity_QueryAll"><ellipse cx="1549.3164" cy="570.9006" fill="#FFFFFF" rx="83.8164" ry="19.1633" style="stroke:#000000;stroke-width:1;"/><text fill="#000000" font-family="Verdana" font-size="14" lengthAdjust="spacing" textLength="125.4326" x="1486.6001" y="574.4685">Query All Records</text></g><g class="entity" data-entity="FilterRecords" data-source-line="23" data-uid="ent0016" id="entity_FilterRecords"><ellipse cx="1740.4263" cy="570.5226" fill="#FFFFFF" rx="71.9263" ry="16.7853" style="stroke:#000000;stroke-width:1;"/><text fill="#000000" font-family="Verdana" font-size="14" lengthAdjust="spacing" textLength="96.3389" x="1690.6063" y="574.5108">Filter Records</text></g><g class="entity" data-entity="PersonalStats" data-source-line="27" data-uid="ent0018" id="entity_PersonalStats"><ellipse cx="1143.6503" cy="257.8674" fill="#FFFFFF" rx="103.6503" ry="23.1301" style="stroke:#000000;stroke-width:1;"/><text fill="#000000" font-family="Verdana" font-size="14" lengthAdjust="spacing" textLength="170.4404" x="1058.4301" y="261.4352">Generate Personal Stats</text></g><g class="entity" data-entity="GlobalStats" data-source-line="28" data-uid="ent0019" id="entity_GlobalStats"><ellipse cx="1576.6881" cy="257.9749" fill="#FFFFFF" rx="96.6881" ry="21.7376" style="stroke:#000000;stroke-width:1;"/><text fill="#000000" font-family="Verdana" font-size="14" lengthAdjust="spacing" textLength="154.9502" x="1499.213" y="261.5428">Generate Global Stats</text></g><g class="entity" data-entity="CalcMetrics" data-source-line="29" data-uid="ent0020" id="entity_CalcMetrics"><ellipse cx="1363.7119" cy="257.8797" fill="#FFFFFF" rx="81.2119" ry="18.6424" style="stroke:#000000;stroke-width:1;"/><text fill="#000000" font-family="Verdana" font-size="14" lengthAdjust="spacing" textLength="119.2666" x="1304.0786" y="261.4475">Calculate Metrics</text></g><g class="entity" data-entity="AddUser" data-source-line="33" data-uid="ent0022" id="entity_AddUser"><ellipse cx="1955.4183" cy="257.8413" fill="#FFFFFF" rx="56.9183" ry="15.104" style="stroke:#000000;stroke-width:1;"/><text fill="#000000" font-family="Verdana" font-size="14" lengthAdjust="spacing" textLength="63.793" x="1920.5218" y="262.1289">Add User</text></g><g class="entity" data-entity="UpdateUser" data-source-line="34" data-uid="ent0023" id="entity_UpdateUser"><ellipse cx="2116.4093" cy="257.8192" fill="#FFFFFF" rx="68.4093" ry="16.0819" style="stroke:#000000;stroke-width:1;"/><text fill="#000000" font-family="Verdana" font-size="14" lengthAdjust="spacing" textLength="86.7344" x="2070.0421" y="262.1068">Update User</text></g><g class="entity" data-entity="DeleteUser" data-source-line="35" data-uid="ent0024" id="entity_DeleteUser"><ellipse cx="1796.7333" cy="257.984" fill="#FFFFFF" rx="66.7333" ry="15.7467" style="stroke:#000000;stroke-width:1;"/><text fill="#000000" font-family="Verdana" font-size="14" lengthAdjust="spacing" textLength="81.9424" x="1752.7621" y="262.2716">Delete User</text></g><g class="entity" data-entity="UpdateSettings" data-source-line="39" data-uid="ent0026" id="entity_UpdateSettings"><ellipse cx="2509.4117" cy="257.8196" fill="#FFFFFF" rx="78.4117" ry="18.0823" style="stroke:#000000;stroke-width:1;"/><text fill="#000000" font-family="Verdana" font-size="14" lengthAdjust="spacing" textLength="112.54" x="2453.1416" y="261.3875">Update Settings</text></g><g class="entity" data-entity="GetRules" data-source-line="40" data-uid="ent0027" id="entity_GetRules"><ellipse cx="2318.5487" cy="257.5471" fill="#FFFFFF" rx="77.0487" ry="17.8097" style="stroke:#000000;stroke-width:1;"/><text fill="#000000" font-family="Verdana" font-size="14" lengthAdjust="spacing" textLength="109.2246" x="2263.9364" y="261.1149">Get Work Rules</text></g><!--entity UsersDB--><g class="entity" data-entity="UsersDB" data-source-line="44" data-uid="ent0029" id="entity_UsersDB"><rect fill="#FFFFFF" height="47.0146" rx="2.5" ry="2.5" style="stroke:#000000;stroke-width:1;" width="112.3242" x="1495.5" y="396.7373"/><rect fill="#FFFFFF" height="10" style="stroke:#000000;stroke-width:1;" width="15" x="1587.8242" y="401.7373"/><rect fill="#FFFFFF" height="2" style="stroke:#000000;stroke-width:1;" width="4" x="1585.8242" y="403.7373"/><rect fill="#FFFFFF" height="2" style="stroke:#000000;stroke-width:1;" width="4" x="1585.8242" y="407.7373"/><text fill="#000000" font-family="Verdana" font-size="14" lengthAdjust="spacing" textLength="72.3242" x="1510.5" y="430.8125">users.json</text></g><!--entity AttendanceDB--><g class="entity" data-entity="AttendanceDB" data-source-line="45" data-uid="ent0030" id="entity_AttendanceDB"><rect fill="#FFFFFF" height="47.0146" rx="2.5" ry="2.5" style="stroke:#000000;stroke-width:1;" width="152.8271" x="1307" y="396.7373"/><rect fill="#FFFFFF" height="10" style="stroke:#000000;stroke-width:1;" width="15" x="1439.8271" y="401.7373"/><rect fill="#FFFFFF" height="2" style="stroke:#000000;stroke-width:1;" width="4" x="1437.8271" y="403.7373"/><rect fill="#FFFFFF" height="2" style="stroke:#000000;stroke-width:1;" width="4" x="1437.8271" y="407.7373"/><text fill="#000000" font-family="Verdana" font-size="14" lengthAdjust="spacing" textLength="112.8271" x="1322" y="430.8125">attendance.json</text></g><!--entity SettingsDB--><g class="entity" data-entity="SettingsDB" data-source-line="46" data-uid="ent0031" id="entity_SettingsDB"><rect fill="#FFFFFF" height="47.0146" rx="2.5" ry="2.5" style="stroke:#000000;stroke-width:1;" width="129.9473" x="1642.5" y="396.7373"/><rect fill="#FFFFFF" height="10" style="stroke:#000000;stroke-width:1;" width="15" x="1752.4473" y="401.7373"/><rect fill="#FFFFFF" height="2" style="stroke:#000000;stroke-width:1;" width="4" x="1750.4473" y="403.7373"/><rect fill="#FFFFFF" height="2" style="stroke:#000000;stroke-width:1;" width="4" x="1750.4473" y="407.7373"/><text fill="#000000" font-family="Verdana" font-size="14" lengthAdjust="spacing" textLength="89.9473" x="1657.5" y="430.8125">settings.json</text></g><!--entity Teacher--><g class="entity" data-entity="Teacher" data-source-line="4" data-uid="ent0002" id="entity_Teacher"><ellipse cx="366.4214" cy="66.7373" fill="#FFFFFF" rx="8" ry="8" style="stroke:#000000;stroke-width:1;"/><path d="M366.4214,74.7373 L366.4214,101.7373 M353.4214,82.7373 L379.4214,82.7373 M366.4214,101.7373 L353.4214,116.7373 M366.4214,101.7373 L379.4214,116.7373" fill="none" style="stroke:#000000;stroke-width:1;"/><text fill="#000000" font-family="Verdana" font-size="14" lengthAdjust="spacing" textLength="55.8428" x="338.5" y="132.8125">Teacher</text></g><!--entity Admin--><g class="entity" data-entity="Admin" data-source-line="5" data-uid="ent0003" id="entity_Admin"><ellipse cx="2075.3057" cy="66.7373" fill="#FFFFFF" rx="8" ry="8" style="stroke:#000000;stroke-width:1;"/><path d="M2075.3057,74.7373 L2075.3057,101.7373 M2062.3057,82.7373 L2088.3057,82.7373 M2075.3057,101.7373 L2062.3057,116.7373 M2075.3057,101.7373 L2088.3057,116.7373" fill="none" style="stroke:#000000;stroke-width:1;"/><text fill="#000000" font-family="Verdana" font-size="14" lengthAdjust="spacing" textLength="44.6113" x="2053" y="132.8125">Admin</text></g><!--entity System--><g class="entity" data-entity="System" data-source-line="6" data-uid="ent0004" id="entity_System"><ellipse cx="1289.3115" cy="66.7373" fill="#FFFFFF" rx="8" ry="8" style="stroke:#000000;stroke-width:1;"/><path d="M1289.3115,74.7373 L1289.3115,101.7373 M1276.3115,82.7373 L1302.3115,82.7373 M1289.3115,101.7373 L1276.3115,116.7373 M1289.3115,101.7373 L1302.3115,116.7373" fill="none" style="stroke:#000000;stroke-width:1;"/><text fill="#000000" font-family="Verdana" font-size="14" lengthAdjust="spacing" textLength="52.623" x="1263" y="132.8125">System</text></g><g class="entity" data-entity="GMN71" data-source-line="99" data-uid="ent0072" id="entity_GMN71"><path d="M1807.5,391.7373 L1807.5,449.1353 L2035.9604,449.1353 L2035.9604,401.7373 L2025.9604,391.7373 L1807.5,391.7373" fill="#FFFFFF" style="stroke:#000000;stroke-width:1;"/><path d="M2025.9604,391.7373 L2025.9604,401.7373 L2035.9604,401.7373 L2025.9604,391.7373" fill="#FFFFFF" style="stroke:#000000;stroke-width:1;"/><text fill="#000000" font-family="Verdana" font-size="13" lengthAdjust="spacing" textLength="207.4604" x="1813.5" y="409.8071">Stores daily attendance records</text><text fill="#000000" font-family="Verdana" font-size="13" lengthAdjust="spacing" textLength="197.7104" x="1813.5" y="425.6064">with check-in/check-out times</text><text fill="#000000" font-family="Verdana" font-size="13" lengthAdjust="spacing" textLength="138.5884" x="1813.5" y="441.4058">and calculated status</text></g><g class="entity" data-entity="GMN74" data-source-line="105" data-uid="ent0075" id="entity_GMN74"><path d="M2071,391.7373 L2071,449.1353 L2282.144,449.1353 L2282.144,401.7373 L2272.144,391.7373 L2071,391.7373" fill="#FFFFFF" style="stroke:#000000;stroke-width:1;"/><path d="M2272.144,391.7373 L2272.144,401.7373 L2282.144,401.7373 L2272.144,391.7373" fill="#FFFFFF" style="stroke:#000000;stroke-width:1;"/><text fill="#000000" font-family="Verdana" font-size="13" lengthAdjust="spacing" textLength="155.0986" x="2077" y="409.8071">Stores user credentials,</text><text fill="#000000" font-family="Verdana" font-size="13" lengthAdjust="spacing" textLength="190.144" x="2077" y="425.6064">roles, and profile information</text><text fill="#000000" font-family="Verdana" font-size="13" lengthAdjust="spacing" textLength="170.1489" x="2077" y="441.4058">with encrypted passwords</text></g><g class="entity" data-entity="GMN77" data-source-line="111" data-uid="ent0078" id="entity_GMN77"><path d="M2317.5,391.7373 L2317.5,449.1353 L2521.8711,449.1353 L2521.8711,401.7373 L2511.8711,391.7373 L2317.5,391.7373" fill="#FFFFFF" style="stroke:#000000;stroke-width:1;"/><path d="M2511.8711,391.7373 L2511.8711,401.7373 L2521.8711,401.7373 L2511.8711,391.7373" fill="#FFFFFF" style="stroke:#000000;stroke-width:1;"/><text fill="#000000" font-family="Verdana" font-size="13" lengthAdjust="spacing" textLength="183.3711" x="2323.5" y="409.8071">Stores system configuration</text><text fill="#000000" font-family="Verdana" font-size="13" lengthAdjust="spacing" textLength="164.6328" x="2323.5" y="425.6064">including work hours and</text><text fill="#000000" font-family="Verdana" font-size="13" lengthAdjust="spacing" textLength="109.1035" x="2323.5" y="441.4058">attendance rules</text></g><!--link Teacher to Login--><g class="link" data-entity-1="Teacher" data-entity-2="Login" data-source-line="50" data-uid="lnk32" id="link_Teacher_Login"><path d="M394.58,104.2673 C463.49,120.0773 646.66,160.7073 801.5,182.7373 C821.16,185.5373 872.92,181.5173 890.5,190.7373 C912.7,202.3673 926.4893,221.9386 935.3793,237.6086" fill="none" id="Teacher-to-Login" style="stroke:#000000;stroke-width:1;"/><polygon fill="#000000" points="938.34,242.8273,937.3781,233.0255,935.8728,238.4784,930.4199,236.9731,938.34,242.8273" style="stroke:#000000;stroke-width:1;"/><text fill="#000000" font-family="Verdana" font-size="13" lengthAdjust="spacing" textLength="73.2773" x="802.5" y="179.8071">Credentials</text></g><!--link Teacher to Register--><g class="link" data-entity-1="Teacher" data-entity-2="Register" data-source-line="51" data-uid="lnk33" id="link_Teacher_Register"><path d="M394.7,111.3173 C429.81,128.5473 491.29,159.7573 541.5,190.7373 C568.8,207.5773 594.001,225.9227 612.351,239.7727" fill="none" id="Teacher-to-Register" style="stroke:#000000;stroke-width:1;"/><polygon fill="#000000" points="617.14,243.3873,612.3662,234.7727,613.1492,240.3751,607.5467,241.1581,617.14,243.3873" style="stroke:#000000;stroke-width:1;"/><text fill="#000000" font-family="Verdana" font-size="13" lengthAdjust="spacing" textLength="60.3091" x="528.5" y="179.8071">User Info</text></g><!--link Teacher to CheckIn--><g class="link" data-entity-1="Teacher" data-entity-2="CheckIn" data-source-line="52" data-uid="lnk34" id="link_Teacher_CheckIn"><path d="M344.95,135.8173 C325.5,170.1773 300.896,213.646 287.456,237.386" fill="none" id="Teacher-to-CheckIn" style="stroke:#000000;stroke-width:1;"/><polygon fill="#000000" points="284.5,242.6073,292.4148,236.746,286.9633,238.2562,285.4531,232.8047,284.5,242.6073" style="stroke:#000000;stroke-width:1;"/><text fill="#000000" font-family="Verdana" font-size="13" lengthAdjust="spacing" textLength="72.4141" x="327.5" y="179.8071">Timestamp</text></g><!--link Teacher to CheckOut--><g class="link" data-entity-1="Teacher" data-entity-2="CheckOut" data-source-line="53" data-uid="lnk35" id="link_Teacher_CheckOut"><path d="M338.37,110.7673 C311.52,123.5973 270.28,144.3173 236.5,165.7373 C220.97,175.5873 218.01,179.4073 203.5,190.7373 C180.6,208.6173 159.1684,225.9536 142.6884,239.4036" fill="none" id="Teacher-to-CheckOut" style="stroke:#000000;stroke-width:1;"/><polygon fill="#000000" points="138.04,243.1973,147.5417,240.6056,141.9137,240.0359,142.4834,234.4078,138.04,243.1973" style="stroke:#000000;stroke-width:1;"/><text fill="#000000" font-family="Verdana" font-size="13" lengthAdjust="spacing" textLength="72.4141" x="237.5" y="179.8071">Timestamp</text></g><!--link Teacher to QueryPersonal--><g class="link" data-entity-1="Teacher" data-entity-2="QueryPersonal" data-source-line="54" data-uid="lnk36" id="link_Teacher_QueryPersonal"><path d="M338.32,101.4673 C266.16,111.6673 77.9,142.4673 41.5,190.7373 C11,231.1973 15.81,261.0673 41.5,304.7373 C162.42,510.2273 938.4139,556.621 1220.3639,566.791" fill="none" id="Teacher-to-QueryPersonal" style="stroke:#000000;stroke-width:1;"/><polygon fill="#000000" points="1226.36,567.0073,1217.51,562.6855,1221.3632,566.8271,1217.2217,570.6803,1226.36,567.0073" style="stroke:#000000;stroke-width:1;"/><text fill="#000000" font-family="Verdana" font-size="13" lengthAdjust="spacing" textLength="76.1782" x="58.5" y="326.8071">Date Range</text></g><!--link Teacher to PersonalStats--><g class="link" data-entity-1="Teacher" data-entity-2="PersonalStats" data-source-line="55" data-uid="lnk37" id="link_Teacher_PersonalStats"><path d="M394.75,98.4473 C485.13,101.4373 774.54,116.5773 999.5,190.7373 C1036.46,202.9173 1071.2097,219.0817 1099.6797,233.5317" fill="none" id="Teacher-to-PersonalStats" style="stroke:#000000;stroke-width:1;"/><polygon fill="#000000" points="1105.03,236.2473,1098.8149,228.6071,1100.5714,233.9843,1095.1942,235.7408,1105.03,236.2473" style="stroke:#000000;stroke-width:1;"/><text fill="#000000" font-family="Verdana" font-size="13" lengthAdjust="spacing" textLength="40.6885" x="967.5" y="179.8071">Period</text></g><!--link Admin to Login--><g class="link" data-entity-1="Admin" data-entity-2="Login" data-source-line="58" data-uid="lnk38" id="link_Admin_Login"><path d="M2052.86,101.4573 C1967.64,115.2873 1657.89,163.8473 1400.5,182.7373 C1379.61,184.2673 1043.1,183.3273 1023.5,190.7373 C995.13,201.4773 973.7584,222.7563 960.1084,238.7263" fill="none" id="Admin-to-Login" style="stroke:#000000;stroke-width:1;"/><polygon fill="#000000" points="956.21,243.2873,965.0982,239.0448,959.4587,239.4865,959.0169,233.8469,956.21,243.2873" style="stroke:#000000;stroke-width:1;"/><text fill="#000000" font-family="Verdana" font-size="13" lengthAdjust="spacing" textLength="73.2773" x="1568.5" y="179.8071">Credentials</text></g><!--link Admin to QueryAll--><g class="link" data-entity-1="Admin" data-entity-2="QueryAll" data-source-line="59" data-uid="lnk39" id="link_Admin_QueryAll"><path d="M2098.03,98.2673 C2192.66,100.9573 2556.86,116.0773 2637.5,190.7373 C2683.88,233.6673 2690.59,270.9073 2667.5,329.7373 C2636.95,407.6073 2615.48,432.7273 2539.5,467.7373 C2494.66,488.3973 1698.56,488.7973 1651.5,503.7373 C1619.94,513.7573 1593.3666,532.4992 1573.9466,548.4492" fill="none" id="Admin-to-QueryAll" style="stroke:#000000;stroke-width:1;"/><polygon fill="#000000" points="1569.31,552.2573,1578.8037,549.6362,1573.1738,549.0839,1573.7262,543.454,1569.31,552.2573" style="stroke:#000000;stroke-width:1;"/><text fill="#000000" font-family="Verdana" font-size="13" lengthAdjust="spacing" textLength="39.7935" x="2673.5" y="326.8071">Filters</text></g><!--link Admin to GlobalStats--><g class="link" data-entity-1="Admin" data-entity-2="GlobalStats" data-source-line="60" data-uid="lnk40" id="link_Admin_GlobalStats"><path d="M2052.96,105.2173 C2018.51,116.8873 1950.9,140.6773 1895.5,165.7373 C1880.83,172.3773 1879.02,178.4273 1863.5,182.7373 C1799.18,200.5973 1778.17,174.1473 1713.5,190.7373 C1675.15,200.5773 1639.8841,218.5266 1612.9741,234.2066" fill="none" id="Admin-to-GlobalStats" style="stroke:#000000;stroke-width:1;"/><polygon fill="#000000" points="1607.79,237.2273,1617.58,236.1523,1612.1101,234.71,1613.5524,229.2401,1607.79,237.2273" style="stroke:#000000;stroke-width:1;"/><text fill="#000000" font-family="Verdana" font-size="13" lengthAdjust="spacing" textLength="40.6885" x="1896.5" y="179.8071">Period</text></g><!--link Admin to AddUser--><g class="link" data-entity-1="Admin" data-entity-2="AddUser" data-source-line="61" data-uid="lnk41" id="link_Admin_AddUser"><path d="M2061.83,135.9173 C2055.4,151.2273 2046.84,168.5673 2036.5,182.7373 C2018.65,207.2073 1996.4977,226.1847 1978.6577,239.8147" fill="none" id="Admin-to-AddUser" style="stroke:#000000;stroke-width:1;"/><polygon fill="#000000" points="1973.89,243.4573,1983.47,241.1719,1977.8631,240.4218,1978.6132,234.8149,1973.89,243.4573" style="stroke:#000000;stroke-width:1;"/><text fill="#000000" font-family="Verdana" font-size="13" lengthAdjust="spacing" textLength="64.9048" x="2046.5" y="179.8071">User Data</text></g><!--link Admin to UpdateUser--><g class="link" data-entity-1="Admin" data-entity-2="UpdateUser" data-source-line="62" data-uid="lnk42" id="link_Admin_UpdateUser"><path d="M2098.22,113.2273 C2113.94,125.4173 2133.58,143.9573 2142.5,165.7373 C2153.16,191.7373 2141.1255,218.4979 2129.8655,236.7879" fill="none" id="Admin-to-UpdateUser" style="stroke:#000000;stroke-width:1;"/><polygon fill="#000000" points="2126.72,241.8973,2134.8445,236.3303,2129.3413,237.6395,2128.032,232.1362,2126.72,241.8973" style="stroke:#000000;stroke-width:1;"/><text fill="#000000" font-family="Verdana" font-size="13" lengthAdjust="spacing" textLength="89.8193" x="2146.5" y="179.8071">Modified Data</text></g><!--link Admin to DeleteUser--><g class="link" data-entity-1="Admin" data-entity-2="DeleteUser" data-source-line="63" data-uid="lnk43" id="link_Admin_DeleteUser"><path d="M2052.93,114.2973 C2022.08,136.6073 1968.03,174.4673 1945.5,182.7373 C1918.59,192.6173 1907.99,179.7773 1881.5,190.7373 C1852.85,202.5973 1829.8567,222.5887 1814.2567,238.1587" fill="none" id="Admin-to-DeleteUser" style="stroke:#000000;stroke-width:1;"/><polygon fill="#000000" points="1810.01,242.3973,1819.2058,238.8706,1813.5489,238.8652,1813.5544,233.2083,1810.01,242.3973" style="stroke:#000000;stroke-width:1;"/><text fill="#000000" font-family="Verdana" font-size="13" lengthAdjust="spacing" textLength="49.6387" x="1975.5" y="179.8071">User ID</text></g><!--link Admin to UpdateSettings--><g class="link" data-entity-1="Admin" data-entity-2="UpdateSettings" data-source-line="64" data-uid="lnk44" id="link_Admin_UpdateSettings"><path d="M2098.15,101.2773 C2153.86,110.5473 2301.21,138.4973 2413.5,190.7373 C2441.93,203.9573 2466.4377,221.6281 2485.0477,236.4581" fill="none" id="Admin-to-UpdateSettings" style="stroke:#000000;stroke-width:1;"/><polygon fill="#000000" points="2489.74,240.1973,2485.1943,231.4602,2485.8297,237.0813,2480.2087,237.7167,2489.74,240.1973" style="stroke:#000000;stroke-width:1;"/><text fill="#000000" font-family="Verdana" font-size="13" lengthAdjust="spacing" textLength="68.0278" x="2388.5" y="179.8071">New Rules</text></g><!--link System to ValidateToken--><g class="link" data-entity-1="System" data-entity-2="ValidateToken" data-source-line="67" data-uid="lnk45" id="link_System_ValidateToken"><path d="M1262.95,120.7473 C1237.36,141.3273 1196.59,170.1273 1155.5,182.7373 C1099.18,200.0173 946.36,171.9973 890.5,190.7373 C860.28,200.8773 835.6957,220.2943 818.3457,236.3343" fill="none" id="System-to-ValidateToken" style="stroke:#000000;stroke-width:1;"/><polygon fill="#000000" points="813.94,240.4073,823.2639,237.2349,817.6114,237.0131,817.8332,231.3606,813.94,240.4073" style="stroke:#000000;stroke-width:1;"/><text fill="#000000" font-family="Verdana" font-size="13" lengthAdjust="spacing" textLength="70.9097" x="1195.5" y="179.8071">JWT Token</text></g><!--link System to CalcStatus--><g class="link" data-entity-1="System" data-entity-2="CalcStatus" data-source-line="68" data-uid="lnk46" id="link_System_CalcStatus"><path d="M1262.81,106.2773 C1196.57,127.4273 1029.06,180.7173 1016.5,182.7373 C967.02,190.7073 613.91,177.7573 565.5,190.7373 C528.77,200.5873 496.071,220.6961 473.231,236.8261" fill="none" id="System-to-CalcStatus" style="stroke:#000000;stroke-width:1;"/><polygon fill="#000000" points="468.33,240.2873,477.989,238.3629,472.4142,237.403,473.3741,231.8282,468.33,240.2873" style="stroke:#000000;stroke-width:1;"/><text fill="#000000" font-family="Verdana" font-size="13" lengthAdjust="spacing" textLength="71.8872" x="1069.5" y="179.8071">Time Rules</text></g><!--link System to FilterRecords--><g class="link" data-entity-1="System" data-entity-2="FilterRecords" data-source-line="69" data-uid="lnk47" id="link_System_FilterRecords"><path d="M1316.1,104.2973 C1386.54,121.3173 1584.07,166.6673 1751.5,182.7373 C1763.3,183.8673 2596.17,182.3173 2604.5,190.7373 C2649,235.6573 2589.49,429.0173 2539.5,467.7373 C2426.82,555.0473 1992.8597,567.9206 1818.3797,569.5706" fill="none" id="System-to-FilterRecords" style="stroke:#000000;stroke-width:1;"/><polygon fill="#000000" points="1812.38,569.6273,1821.4174,573.542,1817.3798,569.58,1821.3418,565.5424,1812.38,569.6273" style="stroke:#000000;stroke-width:1;"/><text fill="#000000" font-family="Verdana" font-size="13" lengthAdjust="spacing" textLength="47.9819" x="2611.5" y="326.8071">Criteria</text></g><!--link System to CalcMetrics--><g class="link" data-entity-1="System" data-entity-2="CalcMetrics" data-source-line="70" data-uid="lnk48" id="link_System_CalcMetrics"><path d="M1307.23,135.8173 C1322.45,168.5273 1341.1787,208.7674 1352.7187,233.5674" fill="none" id="System-to-CalcMetrics" style="stroke:#000000;stroke-width:1;"/><polygon fill="#000000" points="1355.25,239.0073,1355.0796,229.1599,1353.1406,234.4741,1347.8264,232.535,1355.25,239.0073" style="stroke:#000000;stroke-width:1;"/><text fill="#000000" font-family="Verdana" font-size="13" lengthAdjust="spacing" textLength="62.8101" x="1329.5" y="179.8071">Raw Data</text></g><!--link Login to UsersDB--><g class="link" data-entity-1="Login" data-entity-2="UsersDB" data-source-line="73" data-uid="lnk49" id="link_Login_UsersDB"><path d="M925.55,270.5873 C911.73,280.0473 894.45,294.6873 886.5,312.7373 C883.46,319.6473 881.2,324.3573 886.5,329.7373 C898.04,341.4273 1462.54,330.9873 1477.5,337.7373 C1504.34,349.8373 1522.3936,371.8344 1535.1336,391.4644" fill="none" id="Login-to-UsersDB" style="stroke:#000000;stroke-width:1;"/><polygon fill="#000000" points="1538.4,396.4973,1536.8557,386.7703,1535.678,392.3032,1530.1451,391.1255,1538.4,396.4973" style="stroke:#000000;stroke-width:1;"/><text fill="#000000" font-family="Verdana" font-size="13" lengthAdjust="spacing" textLength="98.96" x="887.5" y="326.8071">Read user data</text></g><!--link UsersDB to Login--><g class="link" data-entity-1="UsersDB" data-entity-2="Login" data-source-line="89" data-uid="lnk63" id="link_UsersDB_Login"><path d="M1538.39,396.5273 C1525.64,376.9273 1504.31,349.8973 1477.5,337.7373 C1433.79,317.8973 1091.11,344.7473 1045.5,329.7373 C1010.11,318.0873 980.7056,293.3453 962.8956,276.2253" fill="none" id="UsersDB-to-Login" style="stroke:#000000;stroke-width:1;"/><polygon fill="#000000" points="958.57,272.0673,962.2864,281.1881,962.1747,275.5323,967.8304,275.4206,958.57,272.0673" style="stroke:#000000;stroke-width:1;"/><text fill="#000000" font-family="Verdana" font-size="13" lengthAdjust="spacing" textLength="105.1235" x="1046.5" y="326.8071">User credentials</text></g><!--link Register to UsersDB--><g class="link" data-entity-1="Register" data-entity-2="UsersDB" data-source-line="74" data-uid="lnk50" id="link_Register_UsersDB"><path d="M652.51,272.0373 C666.47,281.9473 686.57,295.3273 705.5,304.7373 C734.71,319.2573 742.41,323.9173 774.5,329.7373 C812.94,336.7073 1441.88,321.7273 1477.5,337.7373 C1504.35,349.8073 1522.4036,371.8144 1535.1436,391.4444" fill="none" id="Register-to-UsersDB" style="stroke:#000000;stroke-width:1;"/><polygon fill="#000000" points="1538.41,396.4773,1536.8657,386.7503,1535.688,392.2832,1530.1551,391.1055,1538.41,396.4773" style="stroke:#000000;stroke-width:1;"/><text fill="#000000" font-family="Verdana" font-size="13" lengthAdjust="spacing" textLength="98.8774" x="775.5" y="326.8071">Write new user</text></g><!--link CheckIn to AttendanceDB--><g class="link" data-entity-1="CheckIn" data-entity-2="AttendanceDB" data-source-line="75" data-uid="lnk51" id="link_CheckIn_AttendanceDB"><path d="M281.04,272.7473 C287.26,289.4673 300.16,316.7973 321.5,329.7373 C405.26,380.5173 1071.0538,408.3143 1300.7938,416.4743" fill="none" id="CheckIn-to-AttendanceDB" style="stroke:#000000;stroke-width:1;"/><polygon fill="#000000" points="1306.79,416.6873,1297.9377,412.3704,1301.7932,416.5098,1297.6537,420.3653,1306.79,416.6873" style="stroke:#000000;stroke-width:1;"/><text fill="#000000" font-family="Verdana" font-size="13" lengthAdjust="spacing" textLength="94.3135" x="322.5" y="326.8071">Write check-in</text></g><!--link CheckOut to AttendanceDB--><g class="link" data-entity-1="CheckOut" data-entity-2="AttendanceDB" data-source-line="76" data-uid="lnk52" id="link_CheckOut_AttendanceDB"><path d="M132.02,272.6273 C145.7,289.5073 171.34,317.2773 200.5,329.7373 C400.8,415.3173 1071.61,420.5969 1300.85,419.8469" fill="none" id="CheckOut-to-AttendanceDB" style="stroke:#000000;stroke-width:1;"/><polygon fill="#000000" points="1306.85,419.8273,1297.837,415.8568,1301.85,419.8437,1297.8631,423.8567,1306.85,419.8273" style="stroke:#000000;stroke-width:1;"/><text fill="#000000" font-family="Verdana" font-size="13" lengthAdjust="spacing" textLength="92.5615" x="201.5" y="326.8071">Update record</text></g><!--link QueryPersonal to AttendanceDB--><g class="link" data-entity-1="QueryPersonal" data-entity-2="AttendanceDB" data-source-line="77" data-uid="lnk53" id="link_QueryPersonal_AttendanceDB"><path d="M1243.81,557.4573 C1181.53,544.6973 1112.56,520.5873 1145.5,478.7373 C1165.42,453.4373 1239.1753,438.76 1300.9153,430.32" fill="none" id="QueryPersonal-to-AttendanceDB" style="stroke:#000000;stroke-width:1;"/><polygon fill="#000000" points="1306.86,429.5073,1297.4012,426.7631,1301.9061,430.1845,1298.4847,434.6894,1306.86,429.5073" style="stroke:#000000;stroke-width:1;"/><text fill="#000000" font-family="Verdana" font-size="13" lengthAdjust="spacing" textLength="118.498" x="1146.5" y="492.8071">Read user records</text></g><!--link AttendanceDB to QueryPersonal--><g class="link" data-entity-1="AttendanceDB" data-entity-2="QueryPersonal" data-source-line="91" data-uid="lnk65" id="link_AttendanceDB_QueryPersonal"><path d="M1338.31,443.9273 C1325.31,452.8773 1312.71,464.4673 1305.5,478.7373 C1294.36,500.7873 1301.4587,523.4053 1311.2987,542.4753" fill="none" id="AttendanceDB-to-QueryPersonal" style="stroke:#000000;stroke-width:1;"/><polygon fill="#000000" points="1314.05,547.8073,1313.4777,537.9751,1311.7573,543.364,1306.3684,541.6435,1314.05,547.8073" style="stroke:#000000;stroke-width:1;"/><text fill="#000000" font-family="Verdana" font-size="13" lengthAdjust="spacing" textLength="108.3418" x="1306.5" y="492.8071">Personal records</text></g><!--link QueryAll to AttendanceDB--><g class="link" data-entity-1="QueryAll" data-entity-2="AttendanceDB" data-source-line="78" data-uid="lnk54" id="link_QueryAll_AttendanceDB"><path d="M1550.86,551.6673 C1551.35,531.1173 1548.76,497.9173 1529.5,478.7373 C1513.08,462.3773 1500.41,475.3373 1478.5,467.7373 C1460.11,461.3573 1446.0117,455.0197 1429.5317,446.5897" fill="none" id="QueryAll-to-AttendanceDB" style="stroke:#000000;stroke-width:1;"/><polygon fill="#000000" points="1424.19,443.8573,1430.3809,451.5171,1428.6414,446.1343,1434.0242,444.3948,1424.19,443.8573" style="stroke:#000000;stroke-width:1;"/><text fill="#000000" font-family="Verdana" font-size="13" lengthAdjust="spacing" textLength="105.1489" x="1541.5" y="492.8071">Read all records</text></g><!--link AttendanceDB to QueryAll--><g class="link" data-entity-1="AttendanceDB" data-entity-2="QueryAll" data-source-line="92" data-uid="lnk66" id="link_AttendanceDB_QueryAll"><path d="M1402.14,443.7573 C1415.28,459.0873 1433.64,479.4673 1451.5,495.7373 C1474.67,516.8473 1498.6373,534.6626 1519.0173,548.9526" fill="none" id="AttendanceDB-to-QueryAll" style="stroke:#000000;stroke-width:1;"/><polygon fill="#000000" points="1523.93,552.3973,1518.8574,543.9552,1519.8361,549.5268,1514.2646,550.5054,1523.93,552.3973" style="stroke:#000000;stroke-width:1;"/><text fill="#000000" font-family="Verdana" font-size="13" lengthAdjust="spacing" textLength="68.9673" x="1452.5" y="492.8071">All records</text></g><!--link PersonalStats to AttendanceDB--><g class="link" data-entity-1="PersonalStats" data-entity-2="AttendanceDB" data-source-line="79" data-uid="lnk55" id="link_PersonalStats_AttendanceDB"><path d="M1148.16,280.7573 C1152.44,296.1973 1160.18,316.3773 1173.5,329.7373 C1209.74,366.0873 1257.3099,386.8106 1301.1499,400.1506" fill="none" id="PersonalStats-to-AttendanceDB" style="stroke:#000000;stroke-width:1;"/><polygon fill="#000000" points="1306.89,401.8973,1299.4442,395.4506,1302.1066,400.4418,1297.1154,403.1041,1306.89,401.8973" style="stroke:#000000;stroke-width:1;"/><text fill="#000000" font-family="Verdana" font-size="13" lengthAdjust="spacing" textLength="98.96" x="1174.5" y="326.8071">Read user data</text></g><!--link AttendanceDB to PersonalStats--><g class="link" data-entity-1="AttendanceDB" data-entity-2="PersonalStats" data-source-line="93" data-uid="lnk67" id="link_AttendanceDB_PersonalStats"><path d="M1365.73,396.5873 C1346.23,372.9873 1312.95,336.2373 1277.5,312.7373 C1254.72,297.6273 1232.6777,287.6507 1208.4077,278.8107" fill="none" id="AttendanceDB-to-PersonalStats" style="stroke:#000000;stroke-width:1;"/><polygon fill="#000000" points="1202.77,276.7573,1209.8576,283.5959,1207.4681,278.4685,1212.5955,276.079,1202.77,276.7573" style="stroke:#000000;stroke-width:1;"/><text fill="#000000" font-family="Verdana" font-size="13" lengthAdjust="spacing" textLength="106.8247" x="1297.5" y="326.8071">User attendance</text></g><!--link GlobalStats to AttendanceDB--><g class="link" data-entity-1="GlobalStats" data-entity-2="AttendanceDB" data-source-line="80" data-uid="lnk56" id="link_GlobalStats_AttendanceDB"><path d="M1577.85,279.3773 C1577.68,295.5673 1574.52,317.3573 1560.5,329.7373 C1546.78,341.8573 1495.35,330.5573 1478.5,337.7373 C1447.92,350.7773 1424.0012,372.9124 1406.4512,392.1724" fill="none" id="GlobalStats-to-AttendanceDB" style="stroke:#000000;stroke-width:1;"/><polygon fill="#000000" points="1402.41,396.6073,1411.4284,392.649,1405.7777,392.9115,1405.5152,387.2608,1402.41,396.6073" style="stroke:#000000;stroke-width:1;"/><text fill="#000000" font-family="Verdana" font-size="13" lengthAdjust="spacing" textLength="85.6108" x="1571.5" y="326.8071">Read all data</text></g><!--link AttendanceDB to GlobalStats--><g class="link" data-entity-1="AttendanceDB" data-entity-2="GlobalStats" data-source-line="94" data-uid="lnk68" id="link_AttendanceDB_GlobalStats"><path d="M1394.55,396.5873 C1407.02,372.9873 1429.31,336.2373 1457.5,312.7373 C1476.68,296.7573 1495.7674,286.7713 1517.6674,278.0313" fill="none" id="AttendanceDB-to-GlobalStats" style="stroke:#000000;stroke-width:1;"/><polygon fill="#000000" points="1523.24,275.8073,1513.3984,275.4282,1518.5962,277.6606,1516.3637,282.8583,1523.24,275.8073" style="stroke:#000000;stroke-width:1;"/><text fill="#000000" font-family="Verdana" font-size="13" lengthAdjust="spacing" textLength="93.2661" x="1458.5" y="326.8071">All attendance</text></g><!--link AddUser to UsersDB--><g class="link" data-entity-1="AddUser" data-entity-2="UsersDB" data-source-line="81" data-uid="lnk57" id="link_AddUser_UsersDB"><path d="M1936.83,272.0773 C1922.09,282.1273 1900.72,295.6773 1880.5,304.7373 C1845.35,320.4973 1835.48,323.2373 1797.5,329.7373 C1778.65,332.9673 1642.81,329.5873 1625.5,337.7373 C1598.88,350.2773 1580.8055,372.2033 1567.9955,391.6933" fill="none" id="AddUser-to-UsersDB" style="stroke:#000000;stroke-width:1;"/><polygon fill="#000000" points="1564.7,396.7073,1572.9859,391.3833,1567.4462,392.529,1566.3006,386.9894,1564.7,396.7073" style="stroke:#000000;stroke-width:1;"/><text fill="#000000" font-family="Verdana" font-size="13" lengthAdjust="spacing" textLength="67.6978" x="1862.5" y="326.8071">Write user</text></g><!--link UpdateUser to UsersDB--><g class="link" data-entity-1="UpdateUser" data-entity-2="UsersDB" data-source-line="82" data-uid="lnk58" id="link_UpdateUser_UsersDB"><path d="M2093.46,272.9073 C2076.53,282.8573 2052.69,295.9173 2030.5,304.7373 C1991.13,320.3873 1980.43,323.5973 1938.5,329.7373 C1904.08,334.7773 1657.13,323.2473 1625.5,337.7373 C1598.75,349.9973 1580.6771,371.9713 1567.9171,391.5413" fill="none" id="UpdateUser-to-UsersDB" style="stroke:#000000;stroke-width:1;"/><polygon fill="#000000" points="1564.64,396.5673,1572.9063,391.213,1567.3709,392.379,1566.2049,386.8436,1564.64,396.5673" style="stroke:#000000;stroke-width:1;"/><text fill="#000000" font-family="Verdana" font-size="13" lengthAdjust="spacing" textLength="79.2505" x="2010.5" y="326.8071">Update user</text></g><!--link DeleteUser to UsersDB--><g class="link" data-entity-1="DeleteUser" data-entity-2="UsersDB" data-source-line="83" data-uid="lnk59" id="link_DeleteUser_UsersDB"><path d="M1775.64,272.6073 C1750.54,288.6873 1706.62,314.8673 1665.5,329.7373 C1648.46,335.9073 1641.28,328.7973 1625.5,337.7373 C1600.4,351.9673 1582.611,372.8591 1569.421,391.6191" fill="none" id="DeleteUser-to-UsersDB" style="stroke:#000000;stroke-width:1;"/><polygon fill="#000000" points="1565.97,396.5273,1574.4186,391.4656,1568.8458,392.4371,1567.8743,386.8643,1565.97,396.5273" style="stroke:#000000;stroke-width:1;"/><text fill="#000000" font-family="Verdana" font-size="13" lengthAdjust="spacing" textLength="85.6172" x="1703.5" y="326.8071">Remove user</text></g><!--link UpdateSettings to SettingsDB--><g class="link" data-entity-1="UpdateSettings" data-entity-2="SettingsDB" data-source-line="84" data-uid="lnk60" id="link_UpdateSettings_SettingsDB"><path d="M2503.43,275.7973 C2496.31,292.9073 2482.73,318.3073 2461.5,329.7373 C2428.68,347.4173 1824.93,323.4273 1790.5,337.7373 C1761.79,349.6773 1741.1865,371.9447 1726.4565,391.6147" fill="none" id="UpdateSettings-to-SettingsDB" style="stroke:#000000;stroke-width:1;"/><polygon fill="#000000" points="1722.86,396.4173,1731.4565,391.611,1725.8571,392.4151,1725.053,386.8157,1722.86,396.4173" style="stroke:#000000;stroke-width:1;"/><text fill="#000000" font-family="Verdana" font-size="13" lengthAdjust="spacing" textLength="90.835" x="2481.5" y="326.8071">Write settings</text></g><!--link SettingsDB to UpdateSettings--><g class="link" data-entity-1="SettingsDB" data-entity-2="UpdateSettings" data-source-line="96" data-uid="lnk70" id="link_SettingsDB_UpdateSettings"><path d="M1722.87,396.4473 C1737.61,376.7973 1761.82,349.7473 1790.5,337.7373 C1815.26,327.3773 2246.87,333.0173 2273.5,329.7373 C2306.57,325.6573 2313.69,318.4973 2346.5,312.7373 C2376.04,307.5473 2384.71,313.1073 2413.5,304.7373 C2437.82,297.6673 2458.3384,287.881 2477.0584,277.621" fill="none" id="SettingsDB-to-UpdateSettings" style="stroke:#000000;stroke-width:1;"/><polygon fill="#000000" points="2482.32,274.7373,2472.5052,275.5552,2477.9354,277.1404,2476.3502,282.5706,2482.32,274.7373" style="stroke:#000000;stroke-width:1;"/><text fill="#000000" font-family="Verdana" font-size="13" lengthAdjust="spacing" textLength="105.4917" x="2347.5" y="326.8071">Current settings</text></g><!--link GetRules to SettingsDB--><g class="link" data-entity-1="GetRules" data-entity-2="SettingsDB" data-source-line="85" data-uid="lnk61" id="link_GetRules_SettingsDB"><path d="M2283.63,273.8973 C2260.6,283.5473 2229.6,295.8473 2201.5,304.7373 C2156.59,318.9473 2145.2,323.5373 2098.5,329.7373 C2064.57,334.2473 1822.02,324.3673 1790.5,337.7373 C1761.87,349.8773 1741.2566,372.1123 1726.5066,391.7223" fill="none" id="GetRules-to-SettingsDB" style="stroke:#000000;stroke-width:1;"/><polygon fill="#000000" points="1722.9,396.5173,1731.5066,391.7292,1725.9055,392.5215,1725.1133,386.9204,1722.9,396.5173" style="stroke:#000000;stroke-width:1;"/><text fill="#000000" font-family="Verdana" font-size="13" lengthAdjust="spacing" textLength="88.6895" x="2176.5" y="326.8071">Read settings</text></g><!--link CalcStatus to SettingsDB--><g class="link" data-entity-1="CalcStatus" data-entity-2="SettingsDB" data-source-line="86" data-uid="lnk62" id="link_CalcStatus_SettingsDB"><path d="M447.45,275.7873 C449.39,292.6273 455.22,317.5673 472.5,329.7373 C498.7,348.1773 1595.94,325.4273 1625.5,337.7373 C1654.04,349.6173 1674.3649,371.8639 1688.8549,391.5639" fill="none" id="CalcStatus-to-SettingsDB" style="stroke:#000000;stroke-width:1;"/><polygon fill="#000000" points="1692.41,396.3973,1690.2996,386.7772,1689.4474,392.3695,1683.8551,391.5173,1692.41,396.3973" style="stroke:#000000;stroke-width:1;"/><text fill="#000000" font-family="Verdana" font-size="13" lengthAdjust="spacing" textLength="105.46" x="473.5" y="326.8071">Read work rules</text></g><!--link SettingsDB to CalcStatus--><g class="link" data-entity-1="SettingsDB" data-entity-2="CalcStatus" data-source-line="95" data-uid="lnk69" id="link_SettingsDB_CalcStatus"><path d="M1692.41,396.3973 C1677.91,376.7173 1654.03,349.6373 1625.5,337.7373 C1600.28,327.2173 668.48,334.1673 641.5,329.7373 C610.31,324.6073 535.7952,295.4143 488.5252,276.1243" fill="none" id="SettingsDB-to-CalcStatus" style="stroke:#000000;stroke-width:1;"/><polygon fill="#000000" points="482.97,273.8573,489.7915,280.9613,487.5994,275.7465,492.8142,273.5543,482.97,273.8573" style="stroke:#000000;stroke-width:1;"/><text fill="#000000" font-family="Verdana" font-size="13" lengthAdjust="spacing" textLength="70.4146" x="642.5" y="326.8071">Work rules</text></g><!--link UsersDB to QueryAll--><g class="link" data-entity-1="UsersDB" data-entity-2="QueryAll" data-source-line="90" data-uid="lnk64" id="link_UsersDB_QueryAll"><path d="M1582.25,443.9373 C1595.07,452.4873 1610.47,461.6173 1625.5,467.7373 C1646.98,476.4873 1661.94,460.6973 1676.5,478.7373 C1681.25,484.6173 1680.96,489.6373 1676.5,495.7373 C1669.63,505.1573 1662.05,498.7473 1651.5,503.7373 C1622.72,517.3573 1597.2559,534.353 1577.2359,548.883" fill="none" id="UsersDB-to-QueryAll" style="stroke:#000000;stroke-width:1;"/><polygon fill="#000000" points="1572.38,552.4073,1582.0133,550.3582,1576.4266,549.4704,1577.3143,543.8837,1572.38,552.4073" style="stroke:#000000;stroke-width:1;"/><text fill="#000000" font-family="Verdana" font-size="13" lengthAdjust="spacing" textLength="77.3462" x="1680.5" y="492.8071">User names</text></g><!--link AttendanceDB to GMN71--><g class="link" data-entity-1="AttendanceDB" data-entity-2="GMN71" data-source-line="99" data-uid="lnk73" id="link_AttendanceDB_GMN71"><path d="M1401.55,396.4573 C1421.57,372.2473 1456.33,336.2073 1496,321.2373 C1553.18,299.6573 1712.46,303.7073 1771,321.2373 C1816.84,334.9673 1861.65,367.6473 1890.28,391.7173" fill="none" id="AttendanceDB-GMN71" style="stroke:#000000;stroke-width:1;stroke-dasharray:7.0,7.0;"/></g><!--link UsersDB to GMN74--><g class="link" data-entity-1="UsersDB" data-entity-2="GMN74" data-source-line="105" data-uid="lnk76" id="link_UsersDB_GMN74"><path d="M1564.64,396.5573 C1579.81,372.0473 1607.33,335.4073 1643,321.2373 C1683.59,305.1173 1994.38,308.0473 2036,321.2373 C2079.38,334.9873 2120.94,367.4873 2147.45,391.5173" fill="none" id="UsersDB-GMN74" style="stroke:#000000;stroke-width:1;stroke-dasharray:7.0,7.0;"/></g><!--link SettingsDB to GMN77--><g class="link" data-entity-1="SettingsDB" data-entity-2="GMN77" data-source-line="111" data-uid="lnk79" id="link_SettingsDB_GMN77"><path d="M1722.97,396.3673 C1740.3,372.0773 1770.9,335.9673 1808,321.2373 C1856.95,301.7973 2231.88,305.0673 2282,321.2373 C2324.7,335.0073 2365.32,367.5073 2391.19,391.5273" fill="none" id="SettingsDB-GMN77" style="stroke:#000000;stroke-width:1;stroke-dasharray:7.0,7.0;"/></g><!--SRC=[VLPBRnCn4Bxlhp2z058BTmv88L6h8WebRUa1SN1tdSHqruviBr64-E_CZD-RfBVrpETvVZFULsuZ1i6sFPUgSTBrWjqBtcw4OJFdXEguQWMxsrid1dR15jnnTjdh7Lj8lZPyQ1hUEctYfN2QTGEOyz_-RjCOqJgkrk3WR3Q2L-LaovtKYjqQtGfhpnYt35NXpFusZBtvejTIlKKLVQ5eATOIR1gInWCgVl1UTjn12lfP-4jHH9BcNnr6Jl26Axw6GYZdeqYQAfRvHhJFxDfRfiErol9leyiAE926z-tOOqXtZhlHUW08_N4Iq5AqsdHs6aqGLw5y7uNPirjXh5QyZn0oJwgeoTXPVmG6GaHSoXvAMAczA4WcSMBmK7JPMdObb33KHWeLDNMW0I1oh8GX7r54aWfyrUkd2ke52PZhUYESWK1IOSDv4l63XVGcPKLP5UgiwqX8jk20toX_s1AfaigVetOXUb5g_Pcqawhv8PfhjPBhiIYQbrIX19TtmZcfrhPm6qM-N8uzQlFCbcClGfs4emFw1ZX_uXPSqzZUmJH2_cVauUS80Tftlw7-ls8nxE8JQdWYVrRdWV0O6wB8Y1WNwC7rwxH5f08QmIQ0P6qJXHSN7_quimziRaI7ou3tjJuEDa2eUzTgfIj0643Gtyj1MCU7xQ4Uvl0ae1eKG2smv4lebgXW5Ki11cUfEyoHrboTeHUToYzhu_G1m4zQgIp8dlrbTQ1cB0msjz1cTWBWHdTo9KKt1MMIfl8k3cp4bWBagzXvac7QWSXRJrYGnUS1RbRx5Yv-VhptsxW4vGKOUXDi5v1g_L0L9Pmbdve9umw89T_vB252uliAdYdBd6RM4x_n7Q7yFDlnbk0TmrbWE2rD8bsDUaJlJ44H4Df4vb4pYib8o1O15_1Q9GuUWOOPDvHZKvFn23n7Qi9IJXmwXUQWY-2QnI_QfqgK77p9VkU9vHbvh6fKiOAKDIOKWK05AQTD6lIVobAY9WBpwabEutvguZuy15862LTGyZXoXtlMn14e2BOoUaWKYp6N2u0IQeijK8AAFK0unM5JDLMnZwsgz1dRU_o6DpphNy1Djnj5aP-0mmlrSaBR1Rgesy6WF-OAJc07wsO-6WFLokrfbCPHaUkDOterVOxmPOCMTrps-oAQb3HZE-asQIhV-myDO-dmOG0zLnrhupy5qCB_dO4TXewdxlDZ6JoFanQVWyfeoFISBCEcN4du1P3mX9c17luOar2jsM_HvvPRkwDmJxajdjZasVfrs9O_5Q2Lgkt73i2Ujniz6ekXOAf5VQWPoTr_]--></g></svg>