<svg xmlns="http://www.w3.org/2000/svg" xmlns:xlink="http://www.w3.org/1999/xlink" contentStyleType="text/css" data-diagram-type="DESCRIPTION" height="1037px" preserveAspectRatio="none" style="width:1997px;height:1037px;background:#FFFFFF;" version="1.1" viewBox="0 0 1997 1037" width="1997px" zoomAndPan="magnify"><title>Teacher Attendance System - Component Overview</title><defs/><g><text fill="#000000" font-family="Verdana" font-size="22" font-weight="bold" lengthAdjust="spacing" textLength="635.5293" x="676.3655" y="37.1182">Teacher Attendance System - Component Overview</text><!--cluster Frontend Layer--><g class="cluster" data-entity="Frontend Layer" data-source-line="4" data-uid="ent0002" id="cluster_Frontend Layer"><path d="M13.5,58.7373 L134.0127,58.7373 A3.75,3.75 0 0 1 136.5127,61.2373 L143.5127,81.752 L1115.5,81.752 A2.5,2.5 0 0 1 1118,84.252 L1118,155.2373 A2.5,2.5 0 0 1 1115.5,157.7373 L13.5,157.7373 A2.5,2.5 0 0 1 11,155.2373 L11,61.2373 A2.5,2.5 0 0 1 13.5,58.7373" fill="#FFFFFF" style="stroke:#000000;stroke-width:1;"/><line style="stroke:#000000;stroke-width:1;" x1="11" x2="143.5127" y1="81.752" y2="81.752"/><text fill="#000000" font-family="Verdana" font-size="14" font-weight="bold" lengthAdjust="spacing" textLength="119.5127" x="15" y="74.8125">Frontend Layer</text></g><!--cluster API Gateway--><g class="cluster" data-entity="API Gateway" data-source-line="13" data-uid="ent0009" id="cluster_API Gateway"><path d="M257.5,221.7373 L360.6152,221.7373 A3.75,3.75 0 0 1 363.1152,224.2373 L370.1152,244.752 L681.5,244.752 A2.5,2.5 0 0 1 684,247.252 L684,479.2373 A2.5,2.5 0 0 1 681.5,481.7373 L257.5,481.7373 A2.5,2.5 0 0 1 255,479.2373 L255,224.2373 A2.5,2.5 0 0 1 257.5,221.7373" fill="#FFFFFF" style="stroke:#000000;stroke-width:1;"/><line style="stroke:#000000;stroke-width:1;" x1="255" x2="370.1152" y1="244.752" y2="244.752"/><text fill="#000000" font-family="Verdana" font-size="14" font-weight="bold" lengthAdjust="spacing" textLength="102.1152" x="259" y="237.8125">API Gateway</text></g><!--cluster Business Logic Layer--><g class="cluster" data-entity="Business Logic Layer" data-source-line="19" data-uid="ent0013" id="cluster_Business Logic Layer"><path d="M660.5,530.7373 L825.665,530.7373 A3.75,3.75 0 0 1 828.165,533.2373 L835.165,553.752 L1764.5,553.752 A2.5,2.5 0 0 1 1767,556.252 L1767,627.2373 A2.5,2.5 0 0 1 1764.5,629.7373 L660.5,629.7373 A2.5,2.5 0 0 1 658,627.2373 L658,533.2373 A2.5,2.5 0 0 1 660.5,530.7373" fill="#FFFFFF" style="stroke:#000000;stroke-width:1;"/><line style="stroke:#000000;stroke-width:1;" x1="658" x2="835.165" y1="553.752" y2="553.752"/><text fill="#000000" font-family="Verdana" font-size="14" font-weight="bold" lengthAdjust="spacing" textLength="164.165" x="662" y="546.8125">Business Logic Layer</text></g><!--cluster Data Access Layer--><g class="cluster" data-entity="Data Access Layer" data-source-line="28" data-uid="ent0020" id="cluster_Data Access Layer"><path d="M777.5,678.7373 L921.665,678.7373 A3.75,3.75 0 0 1 924.165,681.2373 L931.165,701.752 L1434.5,701.752 A2.5,2.5 0 0 1 1437,704.252 L1437,775.2373 A2.5,2.5 0 0 1 1434.5,777.7373 L777.5,777.7373 A2.5,2.5 0 0 1 775,775.2373 L775,681.2373 A2.5,2.5 0 0 1 777.5,678.7373" fill="#FFFFFF" style="stroke:#000000;stroke-width:1;"/><line style="stroke:#000000;stroke-width:1;" x1="775" x2="931.165" y1="701.752" y2="701.752"/><text fill="#000000" font-family="Verdana" font-size="14" font-weight="bold" lengthAdjust="spacing" textLength="143.165" x="779" y="694.8125">Data Access Layer</text></g><!--cluster File Storage--><g class="cluster" data-entity="File Storage" data-source-line="34" data-uid="ent0024" id="cluster_File Storage"><path d="M635.5,826.7373 L730.5898,826.7373 A3.75,3.75 0 0 1 733.0898,829.2373 L740.0898,849.752 L1128.5,849.752 A2.5,2.5 0 0 1 1131,852.252 L1131,923.2373 A2.5,2.5 0 0 1 1128.5,925.7373 L635.5,925.7373 A2.5,2.5 0 0 1 633,923.2373 L633,829.2373 A2.5,2.5 0 0 1 635.5,826.7373" fill="#FFFFFF" style="stroke:#000000;stroke-width:1;"/><line style="stroke:#000000;stroke-width:1;" x1="633" x2="740.0898" y1="849.752" y2="849.752"/><text fill="#000000" font-family="Verdana" font-size="14" font-weight="bold" lengthAdjust="spacing" textLength="94.0898" x="637" y="842.8125">File Storage</text></g><!--cluster Utilities--><g class="cluster" data-entity="Utilities" data-source-line="40" data-uid="ent0028" id="cluster_Utilities"><path d="M1286.5,826.7373 L1348.3672,826.7373 A3.75,3.75 0 0 1 1350.8672,829.2373 L1357.8672,849.752 L1923.5,849.752 A2.5,2.5 0 0 1 1926,852.252 L1926,923.2373 A2.5,2.5 0 0 1 1923.5,925.7373 L1286.5,925.7373 A2.5,2.5 0 0 1 1284,923.2373 L1284,829.2373 A2.5,2.5 0 0 1 1286.5,826.7373" fill="#FFFFFF" style="stroke:#000000;stroke-width:1;"/><line style="stroke:#000000;stroke-width:1;" x1="1284" x2="1357.8672" y1="849.752" y2="849.752"/><text fill="#000000" font-family="Verdana" font-size="14" font-weight="bold" lengthAdjust="spacing" textLength="60.8672" x="1288" y="842.8125">Utilities</text></g><!--entity Login--><g class="entity" data-entity="Login" data-source-line="5" data-uid="ent0003" id="entity_Login"><rect fill="#FFFFFF" height="47.0146" rx="2.5" ry="2.5" style="stroke:#000000;stroke-width:1;" width="146.1826" x="27" y="94.7373"/><rect fill="#FFFFFF" height="10" style="stroke:#000000;stroke-width:1;" width="15" x="153.1826" y="99.7373"/><rect fill="#FFFFFF" height="2" style="stroke:#000000;stroke-width:1;" width="4" x="151.1826" y="101.7373"/><rect fill="#FFFFFF" height="2" style="stroke:#000000;stroke-width:1;" width="4" x="151.1826" y="105.7373"/><text fill="#000000" font-family="Verdana" font-size="14" lengthAdjust="spacing" textLength="106.1826" x="42" y="128.8125">Login Interface</text></g><!--entity TeacherUI--><g class="entity" data-entity="TeacherUI" data-source-line="6" data-uid="ent0004" id="entity_TeacherUI"><rect fill="#FFFFFF" height="47.0146" rx="2.5" ry="2.5" style="stroke:#000000;stroke-width:1;" width="176.4385" x="208" y="94.7373"/><rect fill="#FFFFFF" height="10" style="stroke:#000000;stroke-width:1;" width="15" x="364.4385" y="99.7373"/><rect fill="#FFFFFF" height="2" style="stroke:#000000;stroke-width:1;" width="4" x="362.4385" y="101.7373"/><rect fill="#FFFFFF" height="2" style="stroke:#000000;stroke-width:1;" width="4" x="362.4385" y="105.7373"/><text fill="#000000" font-family="Verdana" font-size="14" lengthAdjust="spacing" textLength="136.4385" x="223" y="128.8125">Teacher Dashboard</text></g><!--entity AdminUI--><g class="entity" data-entity="AdminUI" data-source-line="7" data-uid="ent0005" id="entity_AdminUI"><rect fill="#FFFFFF" height="47.0146" rx="2.5" ry="2.5" style="stroke:#000000;stroke-width:1;" width="165.207" x="419.5" y="94.7373"/><rect fill="#FFFFFF" height="10" style="stroke:#000000;stroke-width:1;" width="15" x="564.707" y="99.7373"/><rect fill="#FFFFFF" height="2" style="stroke:#000000;stroke-width:1;" width="4" x="562.707" y="101.7373"/><rect fill="#FFFFFF" height="2" style="stroke:#000000;stroke-width:1;" width="4" x="562.707" y="105.7373"/><text fill="#000000" font-family="Verdana" font-size="14" lengthAdjust="spacing" textLength="125.207" x="434.5" y="128.8125">Admin Dashboard</text></g><!--entity RecordsUI--><g class="entity" data-entity="RecordsUI" data-source-line="8" data-uid="ent0006" id="entity_RecordsUI"><rect fill="#FFFFFF" height="47.0146" rx="2.5" ry="2.5" style="stroke:#000000;stroke-width:1;" width="133.9873" x="620" y="94.7373"/><rect fill="#FFFFFF" height="10" style="stroke:#000000;stroke-width:1;" width="15" x="733.9873" y="99.7373"/><rect fill="#FFFFFF" height="2" style="stroke:#000000;stroke-width:1;" width="4" x="731.9873" y="101.7373"/><rect fill="#FFFFFF" height="2" style="stroke:#000000;stroke-width:1;" width="4" x="731.9873" y="105.7373"/><text fill="#000000" font-family="Verdana" font-size="14" lengthAdjust="spacing" textLength="93.9873" x="635" y="128.8125">Records View</text></g><!--entity StatsUI--><g class="entity" data-entity="StatsUI" data-source-line="9" data-uid="ent0007" id="entity_StatsUI"><rect fill="#FFFFFF" height="47.0146" rx="2.5" ry="2.5" style="stroke:#000000;stroke-width:1;" width="142.2246" x="789" y="94.7373"/><rect fill="#FFFFFF" height="10" style="stroke:#000000;stroke-width:1;" width="15" x="911.2246" y="99.7373"/><rect fill="#FFFFFF" height="2" style="stroke:#000000;stroke-width:1;" width="4" x="909.2246" y="101.7373"/><rect fill="#FFFFFF" height="2" style="stroke:#000000;stroke-width:1;" width="4" x="909.2246" y="105.7373"/><text fill="#000000" font-family="Verdana" font-size="14" lengthAdjust="spacing" textLength="102.2246" x="804" y="128.8125">Statistics View</text></g><!--entity SettingsUI--><g class="entity" data-entity="SettingsUI" data-source-line="10" data-uid="ent0008" id="entity_SettingsUI"><rect fill="#FFFFFF" height="47.0146" rx="2.5" ry="2.5" style="stroke:#000000;stroke-width:1;" width="135.792" x="966" y="94.7373"/><rect fill="#FFFFFF" height="10" style="stroke:#000000;stroke-width:1;" width="15" x="1081.792" y="99.7373"/><rect fill="#FFFFFF" height="2" style="stroke:#000000;stroke-width:1;" width="4" x="1079.792" y="101.7373"/><rect fill="#FFFFFF" height="2" style="stroke:#000000;stroke-width:1;" width="4" x="1079.792" y="105.7373"/><text fill="#000000" font-family="Verdana" font-size="14" lengthAdjust="spacing" textLength="95.792" x="981" y="128.8125">Settings View</text></g><!--entity Router--><g class="entity" data-entity="Router" data-source-line="14" data-uid="ent0010" id="entity_Router"><rect fill="#FFFFFF" height="47.0146" rx="2.5" ry="2.5" style="stroke:#000000;stroke-width:1;" width="146.6064" x="520.5" y="257.7373"/><rect fill="#FFFFFF" height="10" style="stroke:#000000;stroke-width:1;" width="15" x="647.1064" y="262.7373"/><rect fill="#FFFFFF" height="2" style="stroke:#000000;stroke-width:1;" width="4" x="645.1064" y="264.7373"/><rect fill="#FFFFFF" height="2" style="stroke:#000000;stroke-width:1;" width="4" x="645.1064" y="268.7373"/><text fill="#000000" font-family="Verdana" font-size="14" lengthAdjust="spacing" textLength="106.6064" x="535.5" y="291.8125">Express Router</text></g><!--entity AuthMW--><g class="entity" data-entity="AuthMW" data-source-line="15" data-uid="ent0011" id="entity_AuthMW"><rect fill="#FFFFFF" height="47.0146" rx="2.5" ry="2.5" style="stroke:#000000;stroke-width:1;" width="226.1494" x="271" y="418.7373"/><rect fill="#FFFFFF" height="10" style="stroke:#000000;stroke-width:1;" width="15" x="477.1494" y="423.7373"/><rect fill="#FFFFFF" height="2" style="stroke:#000000;stroke-width:1;" width="4" x="475.1494" y="425.7373"/><rect fill="#FFFFFF" height="2" style="stroke:#000000;stroke-width:1;" width="4" x="475.1494" y="429.7373"/><text fill="#000000" font-family="Verdana" font-size="14" lengthAdjust="spacing" textLength="186.1494" x="286" y="452.8125">Authentication Middleware</text></g><!--entity ErrorMW--><g class="entity" data-entity="ErrorMW" data-source-line="16" data-uid="ent0012" id="entity_ErrorMW"><rect fill="#FFFFFF" height="47.0146" rx="2.5" ry="2.5" style="stroke:#000000;stroke-width:1;" width="134.8623" x="532.5" y="418.7373"/><rect fill="#FFFFFF" height="10" style="stroke:#000000;stroke-width:1;" width="15" x="647.3623" y="423.7373"/><rect fill="#FFFFFF" height="2" style="stroke:#000000;stroke-width:1;" width="4" x="645.3623" y="425.7373"/><rect fill="#FFFFFF" height="2" style="stroke:#000000;stroke-width:1;" width="4" x="645.3623" y="429.7373"/><text fill="#000000" font-family="Verdana" font-size="14" lengthAdjust="spacing" textLength="94.8623" x="547.5" y="452.8125">Error Handler</text></g><!--entity AuthSvc--><g class="entity" data-entity="AuthSvc" data-source-line="20" data-uid="ent0014" id="entity_AuthSvc"><rect fill="#FFFFFF" height="47.0146" rx="2.5" ry="2.5" style="stroke:#000000;stroke-width:1;" width="129.373" x="837.5" y="566.7373"/><rect fill="#FFFFFF" height="10" style="stroke:#000000;stroke-width:1;" width="15" x="946.873" y="571.7373"/><rect fill="#FFFFFF" height="2" style="stroke:#000000;stroke-width:1;" width="4" x="944.873" y="573.7373"/><rect fill="#FFFFFF" height="2" style="stroke:#000000;stroke-width:1;" width="4" x="944.873" y="577.7373"/><text fill="#000000" font-family="Verdana" font-size="14" lengthAdjust="spacing" textLength="89.373" x="852.5" y="600.8125">Auth Service</text></g><!--entity AttendSvc--><g class="entity" data-entity="AttendSvc" data-source-line="21" data-uid="ent0015" id="entity_AttendSvc"><rect fill="#FFFFFF" height="47.0146" rx="2.5" ry="2.5" style="stroke:#000000;stroke-width:1;" width="175.9941" x="1378" y="566.7373"/><rect fill="#FFFFFF" height="10" style="stroke:#000000;stroke-width:1;" width="15" x="1533.9941" y="571.7373"/><rect fill="#FFFFFF" height="2" style="stroke:#000000;stroke-width:1;" width="4" x="1531.9941" y="573.7373"/><rect fill="#FFFFFF" height="2" style="stroke:#000000;stroke-width:1;" width="4" x="1531.9941" y="577.7373"/><text fill="#000000" font-family="Verdana" font-size="14" lengthAdjust="spacing" textLength="135.9941" x="1393" y="600.8125">Attendance Service</text></g><!--entity RecordsSvc--><g class="entity" data-entity="RecordsSvc" data-source-line="22" data-uid="ent0016" id="entity_RecordsSvc"><rect fill="#FFFFFF" height="47.0146" rx="2.5" ry="2.5" style="stroke:#000000;stroke-width:1;" width="152.4238" x="1191" y="566.7373"/><rect fill="#FFFFFF" height="10" style="stroke:#000000;stroke-width:1;" width="15" x="1323.4238" y="571.7373"/><rect fill="#FFFFFF" height="2" style="stroke:#000000;stroke-width:1;" width="4" x="1321.4238" y="573.7373"/><rect fill="#FFFFFF" height="2" style="stroke:#000000;stroke-width:1;" width="4" x="1321.4238" y="577.7373"/><text fill="#000000" font-family="Verdana" font-size="14" lengthAdjust="spacing" textLength="112.4238" x="1206" y="600.8125">Records Service</text></g><!--entity StatsSvc--><g class="entity" data-entity="StatsSvc" data-source-line="23" data-uid="ent0017" id="entity_StatsSvc"><rect fill="#FFFFFF" height="47.0146" rx="2.5" ry="2.5" style="stroke:#000000;stroke-width:1;" width="160.6611" x="1589.5" y="566.7373"/><rect fill="#FFFFFF" height="10" style="stroke:#000000;stroke-width:1;" width="15" x="1730.1611" y="571.7373"/><rect fill="#FFFFFF" height="2" style="stroke:#000000;stroke-width:1;" width="4" x="1728.1611" y="573.7373"/><rect fill="#FFFFFF" height="2" style="stroke:#000000;stroke-width:1;" width="4" x="1728.1611" y="577.7373"/><text fill="#000000" font-family="Verdana" font-size="14" lengthAdjust="spacing" textLength="120.6611" x="1604.5" y="600.8125">Statistics Service</text></g><!--entity UserSvc--><g class="entity" data-entity="UserSvc" data-source-line="24" data-uid="ent0018" id="entity_UserSvc"><rect fill="#FFFFFF" height="47.0146" rx="2.5" ry="2.5" style="stroke:#000000;stroke-width:1;" width="128.4229" x="674" y="566.7373"/><rect fill="#FFFFFF" height="10" style="stroke:#000000;stroke-width:1;" width="15" x="782.4229" y="571.7373"/><rect fill="#FFFFFF" height="2" style="stroke:#000000;stroke-width:1;" width="4" x="780.4229" y="573.7373"/><rect fill="#FFFFFF" height="2" style="stroke:#000000;stroke-width:1;" width="4" x="780.4229" y="577.7373"/><text fill="#000000" font-family="Verdana" font-size="14" lengthAdjust="spacing" textLength="88.4229" x="689" y="600.8125">User Service</text></g><!--entity SettingsSvc--><g class="entity" data-entity="SettingsSvc" data-source-line="25" data-uid="ent0019" id="entity_SettingsSvc"><rect fill="#FFFFFF" height="47.0146" rx="2.5" ry="2.5" style="stroke:#000000;stroke-width:1;" width="154.2285" x="1002" y="566.7373"/><rect fill="#FFFFFF" height="10" style="stroke:#000000;stroke-width:1;" width="15" x="1136.2285" y="571.7373"/><rect fill="#FFFFFF" height="2" style="stroke:#000000;stroke-width:1;" width="4" x="1134.2285" y="573.7373"/><rect fill="#FFFFFF" height="2" style="stroke:#000000;stroke-width:1;" width="4" x="1134.2285" y="577.7373"/><text fill="#000000" font-family="Verdana" font-size="14" lengthAdjust="spacing" textLength="114.2285" x="1017" y="600.8125">Settings Service</text></g><!--entity UserDAO--><g class="entity" data-entity="UserDAO" data-source-line="29" data-uid="ent0021" id="entity_UserDAO"><rect fill="#FFFFFF" height="47.0146" rx="2.5" ry="2.5" style="stroke:#000000;stroke-width:1;" width="161.9053" x="791" y="714.7373"/><rect fill="#FFFFFF" height="10" style="stroke:#000000;stroke-width:1;" width="15" x="932.9053" y="719.7373"/><rect fill="#FFFFFF" height="2" style="stroke:#000000;stroke-width:1;" width="4" x="930.9053" y="721.7373"/><rect fill="#FFFFFF" height="2" style="stroke:#000000;stroke-width:1;" width="4" x="930.9053" y="725.7373"/><text fill="#000000" font-family="Verdana" font-size="14" lengthAdjust="spacing" textLength="121.9053" x="806" y="748.8125">User Data Access</text></g><!--entity AttendDAO--><g class="entity" data-entity="AttendDAO" data-source-line="30" data-uid="ent0022" id="entity_AttendDAO"><rect fill="#FFFFFF" height="47.0146" rx="2.5" ry="2.5" style="stroke:#000000;stroke-width:1;" width="209.4766" x="1211.5" y="714.7373"/><rect fill="#FFFFFF" height="10" style="stroke:#000000;stroke-width:1;" width="15" x="1400.9766" y="719.7373"/><rect fill="#FFFFFF" height="2" style="stroke:#000000;stroke-width:1;" width="4" x="1398.9766" y="721.7373"/><rect fill="#FFFFFF" height="2" style="stroke:#000000;stroke-width:1;" width="4" x="1398.9766" y="725.7373"/><text fill="#000000" font-family="Verdana" font-size="14" lengthAdjust="spacing" textLength="169.4766" x="1226.5" y="748.8125">Attendance Data Access</text></g><!--entity SettingsDAO--><g class="entity" data-entity="SettingsDAO" data-source-line="31" data-uid="ent0023" id="entity_SettingsDAO"><rect fill="#FFFFFF" height="47.0146" rx="2.5" ry="2.5" style="stroke:#000000;stroke-width:1;" width="187.7109" x="988" y="714.7373"/><rect fill="#FFFFFF" height="10" style="stroke:#000000;stroke-width:1;" width="15" x="1155.7109" y="719.7373"/><rect fill="#FFFFFF" height="2" style="stroke:#000000;stroke-width:1;" width="4" x="1153.7109" y="721.7373"/><rect fill="#FFFFFF" height="2" style="stroke:#000000;stroke-width:1;" width="4" x="1153.7109" y="725.7373"/><text fill="#000000" font-family="Verdana" font-size="14" lengthAdjust="spacing" textLength="147.7109" x="1003" y="748.8125">Settings Data Access</text></g><!--entity UsersFile--><g class="entity" data-entity="UsersFile" data-source-line="35" data-uid="ent0025" id="entity_UsersFile"><rect fill="#FFFFFF" height="47.0146" rx="2.5" ry="2.5" style="stroke:#000000;stroke-width:1;" width="112.3242" x="649" y="862.7373"/><rect fill="#FFFFFF" height="10" style="stroke:#000000;stroke-width:1;" width="15" x="741.3242" y="867.7373"/><rect fill="#FFFFFF" height="2" style="stroke:#000000;stroke-width:1;" width="4" x="739.3242" y="869.7373"/><rect fill="#FFFFFF" height="2" style="stroke:#000000;stroke-width:1;" width="4" x="739.3242" y="873.7373"/><text fill="#000000" font-family="Verdana" font-size="14" lengthAdjust="spacing" textLength="72.3242" x="664" y="896.8125">users.json</text></g><!--entity AttendFile--><g class="entity" data-entity="AttendFile" data-source-line="36" data-uid="ent0026" id="entity_AttendFile"><rect fill="#FFFFFF" height="47.0146" rx="2.5" ry="2.5" style="stroke:#000000;stroke-width:1;" width="152.8271" x="961.5" y="862.7373"/><rect fill="#FFFFFF" height="10" style="stroke:#000000;stroke-width:1;" width="15" x="1094.3271" y="867.7373"/><rect fill="#FFFFFF" height="2" style="stroke:#000000;stroke-width:1;" width="4" x="1092.3271" y="869.7373"/><rect fill="#FFFFFF" height="2" style="stroke:#000000;stroke-width:1;" width="4" x="1092.3271" y="873.7373"/><text fill="#000000" font-family="Verdana" font-size="14" lengthAdjust="spacing" textLength="112.8271" x="976.5" y="896.8125">attendance.json</text></g><!--entity SettingsFile--><g class="entity" data-entity="SettingsFile" data-source-line="37" data-uid="ent0027" id="entity_SettingsFile"><rect fill="#FFFFFF" height="47.0146" rx="2.5" ry="2.5" style="stroke:#000000;stroke-width:1;" width="129.9473" x="796" y="862.7373"/><rect fill="#FFFFFF" height="10" style="stroke:#000000;stroke-width:1;" width="15" x="905.9473" y="867.7373"/><rect fill="#FFFFFF" height="2" style="stroke:#000000;stroke-width:1;" width="4" x="903.9473" y="869.7373"/><rect fill="#FFFFFF" height="2" style="stroke:#000000;stroke-width:1;" width="4" x="903.9473" y="873.7373"/><text fill="#000000" font-family="Verdana" font-size="14" lengthAdjust="spacing" textLength="89.9473" x="811" y="896.8125">settings.json</text></g><!--entity DateUtil--><g class="entity" data-entity="DateUtil" data-source-line="41" data-uid="ent0029" id="entity_DateUtil"><rect fill="#FFFFFF" height="47.0146" rx="2.5" ry="2.5" style="stroke:#000000;stroke-width:1;" width="108.7148" x="1620.5" y="862.7373"/><rect fill="#FFFFFF" height="10" style="stroke:#000000;stroke-width:1;" width="15" x="1709.2148" y="867.7373"/><rect fill="#FFFFFF" height="2" style="stroke:#000000;stroke-width:1;" width="4" x="1707.2148" y="869.7373"/><rect fill="#FFFFFF" height="2" style="stroke:#000000;stroke-width:1;" width="4" x="1707.2148" y="873.7373"/><text fill="#000000" font-family="Verdana" font-size="14" lengthAdjust="spacing" textLength="68.7148" x="1635.5" y="896.8125">Date Utils</text></g><!--entity CryptoUtil--><g class="entity" data-entity="CryptoUtil" data-source-line="42" data-uid="ent0030" id="entity_CryptoUtil"><rect fill="#FFFFFF" height="47.0146" rx="2.5" ry="2.5" style="stroke:#000000;stroke-width:1;" width="150.3662" x="1435" y="862.7373"/><rect fill="#FFFFFF" height="10" style="stroke:#000000;stroke-width:1;" width="15" x="1565.3662" y="867.7373"/><rect fill="#FFFFFF" height="2" style="stroke:#000000;stroke-width:1;" width="4" x="1563.3662" y="869.7373"/><rect fill="#FFFFFF" height="2" style="stroke:#000000;stroke-width:1;" width="4" x="1563.3662" y="873.7373"/><text fill="#000000" font-family="Verdana" font-size="14" lengthAdjust="spacing" textLength="110.3662" x="1450" y="896.8125">Encryption Utils</text></g><!--entity ValidUtil--><g class="entity" data-entity="ValidUtil" data-source-line="43" data-uid="ent0031" id="entity_ValidUtil"><rect fill="#FFFFFF" height="47.0146" rx="2.5" ry="2.5" style="stroke:#000000;stroke-width:1;" width="145.1709" x="1764.5" y="862.7373"/><rect fill="#FFFFFF" height="10" style="stroke:#000000;stroke-width:1;" width="15" x="1889.6709" y="867.7373"/><rect fill="#FFFFFF" height="2" style="stroke:#000000;stroke-width:1;" width="4" x="1887.6709" y="869.7373"/><rect fill="#FFFFFF" height="2" style="stroke:#000000;stroke-width:1;" width="4" x="1887.6709" y="873.7373"/><text fill="#000000" font-family="Verdana" font-size="14" lengthAdjust="spacing" textLength="105.1709" x="1779.5" y="896.8125">Validation Utils</text></g><!--entity FileUtil--><g class="entity" data-entity="FileUtil" data-source-line="44" data-uid="ent0032" id="entity_FileUtil"><rect fill="#FFFFFF" height="47.0146" rx="2.5" ry="2.5" style="stroke:#000000;stroke-width:1;" width="99.7324" x="1300" y="862.7373"/><rect fill="#FFFFFF" height="10" style="stroke:#000000;stroke-width:1;" width="15" x="1379.7324" y="867.7373"/><rect fill="#FFFFFF" height="2" style="stroke:#000000;stroke-width:1;" width="4" x="1377.7324" y="869.7373"/><rect fill="#FFFFFF" height="2" style="stroke:#000000;stroke-width:1;" width="4" x="1377.7324" y="873.7373"/><text fill="#000000" font-family="Verdana" font-size="14" lengthAdjust="spacing" textLength="59.7324" x="1315" y="896.8125">File Utils</text></g><g class="entity" data-entity="GMN64" data-source-line="91" data-uid="ent0065" id="entity_GMN64"><path d="M702.5,220.7373 L702.5,277.2373 L667.51,281.2373 L702.5,285.2373 L702.5,341.3325 A0,0 0 0 0 702.5,341.3325 L875.0122,341.3325 A0,0 0 0 0 875.0122,341.3325 L875.0122,230.7373 L865.0122,220.7373 L702.5,220.7373 A0,0 0 0 0 702.5,220.7373" fill="#FFFFFF" style="stroke:#000000;stroke-width:1;"/><path d="M865.0122,220.7373 L865.0122,230.7373 L875.0122,230.7373 L865.0122,220.7373" fill="#FFFFFF" style="stroke:#000000;stroke-width:1;"/><text fill="#000000" font-family="Verdana" font-size="13" lengthAdjust="spacing" textLength="151.5122" x="708.5" y="238.8071">RESTful API endpoints:</text><text fill="#000000" font-family="Verdana" font-size="13" lengthAdjust="spacing" textLength="85.3062" x="708.5" y="254.6064">- /api/auth/*</text><text fill="#000000" font-family="Verdana" font-size="13" lengthAdjust="spacing" textLength="128.5972" x="708.5" y="270.4058">- /api/attendance/*</text><text fill="#000000" font-family="Verdana" font-size="13" lengthAdjust="spacing" textLength="104.2983" x="708.5" y="286.2051">- /api/records/*</text><text fill="#000000" font-family="Verdana" font-size="13" lengthAdjust="spacing" textLength="113.3247" x="708.5" y="302.0044">- /api/statistics/*</text><text fill="#000000" font-family="Verdana" font-size="13" lengthAdjust="spacing" textLength="90.9873" x="708.5" y="317.8037">- /api/users/*</text><text fill="#000000" font-family="Verdana" font-size="13" lengthAdjust="spacing" textLength="107.3516" x="708.5" y="333.603">- /api/settings/*</text></g><g class="entity" data-entity="GMN67" data-source-line="101" data-uid="ent0068" id="entity_GMN67"><path d="M1274,972.7373 L1274,1030.1353 A0,0 0 0 0 1274,1030.1353 L1426.1235,1030.1353 A0,0 0 0 0 1426.1235,1030.1353 L1426.1235,982.7373 L1416.1235,972.7373 L1354,972.7373 L1350,909.8373 L1346,972.7373 L1274,972.7373 A0,0 0 0 0 1274,972.7373" fill="#FFFFFF" style="stroke:#000000;stroke-width:1;"/><path d="M1416.1235,972.7373 L1416.1235,982.7373 L1426.1235,982.7373 L1416.1235,972.7373" fill="#FFFFFF" style="stroke:#000000;stroke-width:1;"/><text fill="#000000" font-family="Verdana" font-size="13" lengthAdjust="spacing" textLength="131.1235" x="1280" y="990.8071">Handles file locking,</text><text fill="#000000" font-family="Verdana" font-size="13" lengthAdjust="spacing" textLength="121.2021" x="1280" y="1006.6064">atomic writes, and</text><text fill="#000000" font-family="Verdana" font-size="13" lengthAdjust="spacing" textLength="119.939" x="1280" y="1022.4058">backup operations</text></g><!--link Login to Router--><g class="link" data-entity-1="Login" data-entity-2="Router" data-source-line="48" data-uid="lnk33" id="link_Login_Router"><path d="M139.52,141.8373 C154.95,150.0773 172.99,159.0073 190,165.7373 C302.2,210.0973 432.336,243.5981 514.456,262.6981" fill="none" id="Login-to-Router" style="stroke:#000000;stroke-width:1;"/><polygon fill="#000000" points="520.3,264.0573,512.4401,258.1224,515.43,262.9246,510.6278,265.9145,520.3,264.0573" style="stroke:#000000;stroke-width:1;"/><text fill="#000000" font-family="Verdana" font-size="13" lengthAdjust="spacing" textLength="97.7222" x="256" y="187.8071">HTTP Requests</text></g><!--link TeacherUI to Router--><g class="link" data-entity-1="TeacherUI" data-entity-2="Router" data-source-line="49" data-uid="lnk34" id="link_TeacherUI_Router"><path d="M333.66,141.8273 C357.85,156.1773 390.06,174.9373 419,190.7373 C462.43,214.4473 507.4404,237.3301 542.9604,255.0401" fill="none" id="TeacherUI-to-Router" style="stroke:#000000;stroke-width:1;"/><polygon fill="#000000" points="548.33,257.7173,542.0604,250.1217,543.8553,255.4863,538.4908,257.2812,548.33,257.7173" style="stroke:#000000;stroke-width:1;"/><text fill="#000000" font-family="Verdana" font-size="13" lengthAdjust="spacing" textLength="97.7222" x="420" y="187.8071">HTTP Requests</text></g><!--link AdminUI to Router--><g class="link" data-entity-1="AdminUI" data-entity-2="Router" data-source-line="50" data-uid="lnk35" id="link_AdminUI_Router"><path d="M510.58,141.9773 C516.29,156.2973 524.32,174.9773 533,190.7373 C546.07,214.4573 560.1893,234.9707 573.1393,252.6107" fill="none" id="AdminUI-to-Router" style="stroke:#000000;stroke-width:1;"/><polygon fill="#000000" points="576.69,257.4473,574.5884,247.8253,573.7311,253.4168,568.1396,252.5595,576.69,257.4473" style="stroke:#000000;stroke-width:1;"/><text fill="#000000" font-family="Verdana" font-size="13" lengthAdjust="spacing" textLength="97.7222" x="534" y="187.8071">HTTP Requests</text></g><!--link RecordsUI to Router--><g class="link" data-entity-1="RecordsUI" data-entity-2="Router" data-source-line="51" data-uid="lnk36" id="link_RecordsUI_Router"><path d="M673.87,141.9673 C656.15,172.6473 627.7507,221.8016 610.0607,252.4316" fill="none" id="RecordsUI-to-Router" style="stroke:#000000;stroke-width:1;"/><polygon fill="#000000" points="607.06,257.6273,615.0249,251.8342,609.5606,253.2975,608.0973,247.8332,607.06,257.6273" style="stroke:#000000;stroke-width:1;"/><text fill="#000000" font-family="Verdana" font-size="13" lengthAdjust="spacing" textLength="97.7222" x="656" y="187.8071">HTTP Requests</text></g><!--link StatsUI to Router--><g class="link" data-entity-1="StatsUI" data-entity-2="Router" data-source-line="52" data-uid="lnk37" id="link_StatsUI_Router"><path d="M834.14,141.9073 C815.25,157.4873 788.42,177.6373 762,190.7373 C730,206.6073 716.99,197.8573 685,213.7373 C661.34,225.4773 641.9728,239.5267 624.5528,253.7867" fill="none" id="StatsUI-to-Router" style="stroke:#000000;stroke-width:1;"/><polygon fill="#000000" points="619.91,257.5873,629.4079,254.9816,623.779,254.4201,624.3405,248.7912,619.91,257.5873" style="stroke:#000000;stroke-width:1;"/><text fill="#000000" font-family="Verdana" font-size="13" lengthAdjust="spacing" textLength="97.7222" x="792" y="187.8071">HTTP Requests</text></g><!--link SettingsUI to Router--><g class="link" data-entity-1="SettingsUI" data-entity-2="Router" data-source-line="53" data-uid="lnk38" id="link_SettingsUI_Router"><path d="M993.56,141.8473 C979.52,149.5573 963.64,158.1473 949,165.7373 C926.59,177.3573 922.25,183.7173 898,190.7373 C806.54,217.2073 773.8,179.3673 685,213.7373 C659.64,223.5573 639.5035,238.3641 622.2635,253.4641" fill="none" id="SettingsUI-to-Router" style="stroke:#000000;stroke-width:1;"/><polygon fill="#000000" points="617.75,257.4173,627.1558,254.4964,621.5113,254.1229,621.8848,248.4784,617.75,257.4173" style="stroke:#000000;stroke-width:1;"/><text fill="#000000" font-family="Verdana" font-size="13" lengthAdjust="spacing" textLength="97.7222" x="935" y="187.8071">HTTP Requests</text></g><!--link Router to AuthMW--><g class="link" data-entity-1="Router" data-entity-2="AuthMW" data-source-line="56" data-uid="lnk39" id="link_Router_AuthMW"><path d="M563.91,305.0173 C523.99,335.2473 458.7037,384.6757 418.8137,414.8757" fill="none" id="Router-to-AuthMW" style="stroke:#000000;stroke-width:1;"/><polygon fill="#000000" points="414.03,418.4973,423.62,416.254,418.0164,415.4793,418.7911,409.8757,414.03,418.4973" style="stroke:#000000;stroke-width:1;"/><text fill="#000000" font-family="Verdana" font-size="13" lengthAdjust="spacing" textLength="94.5103" x="472" y="385.8071">Authentication</text></g><!--link Router to ErrorMW--><g class="link" data-entity-1="Router" data-entity-2="ErrorMW" data-source-line="57" data-uid="lnk40" id="link_Router_ErrorMW"><path d="M594.86,305.0173 C596,335.2473 597.7737,382.3016 598.9137,412.5016" fill="none" id="Router-to-ErrorMW" style="stroke:#000000;stroke-width:1;"/><polygon fill="#000000" points="599.14,418.4973,602.7977,409.3528,598.9514,413.5009,594.8034,409.6546,599.14,418.4973" style="stroke:#000000;stroke-width:1;"/><text fill="#000000" font-family="Verdana" font-size="13" lengthAdjust="spacing" textLength="94.688" x="599" y="385.8071">Error Handling</text></g><!--link AuthMW to AuthSvc--><g class="link" data-entity-1="AuthMW" data-entity-2="AuthSvc" data-source-line="58" data-uid="lnk41" id="link_AuthMW_AuthSvc"><path d="M438.61,465.8273 C461.8,474.5773 489.36,483.8773 515,489.7373 C647.49,520.0073 693.39,470.8373 819,522.7373 C842.89,532.6073 861.1711,547.3816 876.7411,562.5416" fill="none" id="AuthMW-to-AuthSvc" style="stroke:#000000;stroke-width:1;"/><polygon fill="#000000" points="881.04,566.7273,877.3821,557.5829,877.4576,563.2393,871.8013,563.3147,881.04,566.7273" style="stroke:#000000;stroke-width:1;"/><text fill="#000000" font-family="Verdana" font-size="13" lengthAdjust="spacing" textLength="96.7383" x="799" y="511.8071">Validate Token</text></g><!--link Router to AuthSvc--><g class="link" data-entity-1="Router" data-entity-2="AuthSvc" data-source-line="61" data-uid="lnk42" id="link_Router_AuthSvc"><path d="M625.59,304.8573 C642.73,316.6173 664.53,330.7773 685,341.7373 C761.71,382.8173 801.82,358.9073 865,418.7373 C893.43,445.6673 895.1,459.6073 904,497.7373 C905.72,505.0973 904.1,507.1873 904,514.7373 C903.77,532.0773 903.4172,545.6802 902.9572,560.4202" fill="none" id="Router-to-AuthSvc" style="stroke:#000000;stroke-width:1;"/><polygon fill="#000000" points="902.77,566.4173,907.0488,557.5465,902.926,561.4197,899.0527,557.2969,902.77,566.4173" style="stroke:#000000;stroke-width:1;"/><text fill="#000000" font-family="Verdana" font-size="13" lengthAdjust="spacing" textLength="94.561" x="903" y="447.8071">Login/Register</text></g><!--link Router to AttendSvc--><g class="link" data-entity-1="Router" data-entity-2="AttendSvc" data-source-line="62" data-uid="lnk43" id="link_Router_AttendSvc"><path d="M620.74,305.0173 C637.92,318.2473 661.37,333.8173 685,341.7373 C959.58,433.7473 1087.51,263.5473 1332,418.7373 C1391.28,456.3673 1432.5104,524.3505 1452.0404,561.3705" fill="none" id="Router-to-AttendSvc" style="stroke:#000000;stroke-width:1;"/><polygon fill="#000000" points="1454.84,566.6773,1454.1784,556.8507,1452.507,562.255,1447.1027,560.5835,1454.84,566.6773" style="stroke:#000000;stroke-width:1;"/><text fill="#000000" font-family="Verdana" font-size="13" lengthAdjust="spacing" textLength="129.7715" x="1405" y="447.8071">Check-in/Check-out</text></g><!--link Router to RecordsSvc--><g class="link" data-entity-1="Router" data-entity-2="RecordsSvc" data-source-line="63" data-uid="lnk44" id="link_Router_RecordsSvc"><path d="M621.24,304.9973 C638.43,318.0373 661.71,333.4273 685,341.7373 C890.14,414.9773 994,289.0473 1169,418.7373 C1220.02,456.5473 1246.8141,523.7019 1258.6441,560.7319" fill="none" id="Router-to-RecordsSvc" style="stroke:#000000;stroke-width:1;"/><polygon fill="#000000" points="1260.47,566.4473,1261.5414,556.6569,1258.9484,561.6845,1253.9209,559.0914,1260.47,566.4473" style="stroke:#000000;stroke-width:1;"/><text fill="#000000" font-family="Verdana" font-size="13" lengthAdjust="spacing" textLength="95.8813" x="1228" y="447.8071">Query Records</text></g><!--link Router to StatsSvc--><g class="link" data-entity-1="Router" data-entity-2="StatsSvc" data-source-line="64" data-uid="lnk45" id="link_Router_StatsSvc"><path d="M620.3,304.8673 C637.5,318.2173 661.13,333.9673 685,341.7373 C867.04,400.9673 1380.31,317.8573 1543,418.7373 C1601.66,455.1073 1639.8229,523.8942 1657.5129,561.2642" fill="none" id="Router-to-StatsSvc" style="stroke:#000000;stroke-width:1;"/><polygon fill="#000000" points="1660.08,566.6873,1659.8447,556.8413,1657.9407,562.1681,1652.6139,560.2641,1660.08,566.6873" style="stroke:#000000;stroke-width:1;"/><text fill="#000000" font-family="Verdana" font-size="13" lengthAdjust="spacing" textLength="124.103" x="1614" y="447.8071">Generate Statistics</text></g><!--link Router to UserSvc--><g class="link" data-entity-1="Router" data-entity-2="UserSvc" data-source-line="65" data-uid="lnk46" id="link_Router_UserSvc"><path d="M633.4,304.7373 C657.13,320.4173 685.81,343.5473 702,371.7373 C738.41,435.1273 740.7133,519.0001 739.4433,560.5501" fill="none" id="Router-to-UserSvc" style="stroke:#000000;stroke-width:1;"/><polygon fill="#000000" points="739.26,566.5473,743.5331,557.6737,739.4128,561.5496,735.5368,557.4293,739.26,566.5473" style="stroke:#000000;stroke-width:1;"/><text fill="#000000" font-family="Verdana" font-size="13" lengthAdjust="spacing" textLength="118.5298" x="738" y="447.8071">User Management</text></g><!--link Router to SettingsSvc--><g class="link" data-entity-1="Router" data-entity-2="SettingsSvc" data-source-line="66" data-uid="lnk47" id="link_Router_SettingsSvc"><path d="M622.77,305.0273 C639.94,317.5773 662.69,332.4573 685,341.7373 C820.45,398.1073 894.82,323.0073 1006,418.7373 C1051.39,457.8173 1068.3221,524.2078 1074.7521,560.8178" fill="none" id="Router-to-SettingsSvc" style="stroke:#000000;stroke-width:1;"/><polygon fill="#000000" points="1075.79,566.7273,1078.1728,557.171,1074.9251,561.8027,1070.2934,558.5549,1075.79,566.7273" style="stroke:#000000;stroke-width:1;"/><text fill="#000000" font-family="Verdana" font-size="13" lengthAdjust="spacing" textLength="106.9771" x="1054" y="447.8071">System Settings</text></g><!--link AuthSvc to UserDAO--><g class="link" data-entity-1="AuthSvc" data-entity-2="UserDAO" data-source-line="69" data-uid="lnk48" id="link_AuthSvc_UserDAO"><path d="M897.31,614.0473 C891.68,641.4773 883.4893,681.3504 877.8593,708.7104" fill="none" id="AuthSvc-to-UserDAO" style="stroke:#000000;stroke-width:1;"/><polygon fill="#000000" points="876.65,714.5873,882.3819,706.5782,877.6578,709.6899,874.5461,704.9658,876.65,714.5873" style="stroke:#000000;stroke-width:1;"/><text fill="#000000" font-family="Verdana" font-size="13" lengthAdjust="spacing" textLength="105.1616" x="891" y="659.8071">User Operations</text></g><!--link AttendSvc to AttendDAO--><g class="link" data-entity-1="AttendSvc" data-entity-2="AttendDAO" data-source-line="70" data-uid="lnk49" id="link_AttendSvc_AttendDAO"><path d="M1443.8,613.9673 C1429.9,628.1173 1411.54,646.6173 1395,662.7373 C1376.91,680.3673 1360.4967,695.8638 1344.7867,710.5238" fill="none" id="AttendSvc-to-AttendDAO" style="stroke:#000000;stroke-width:1;"/><polygon fill="#000000" points="1340.4,714.6173,1349.7091,711.4015,1344.0556,711.206,1344.251,705.5526,1340.4,714.6173" style="stroke:#000000;stroke-width:1;"/><text fill="#000000" font-family="Verdana" font-size="13" lengthAdjust="spacing" textLength="149.335" x="1411" y="659.8071">Attendance Operations</text></g><!--link AttendSvc to SettingsDAO--><g class="link" data-entity-1="AttendSvc" data-entity-2="SettingsDAO" data-source-line="71" data-uid="lnk50" id="link_AttendSvc_SettingsDAO"><path d="M1424.57,613.7573 C1405.73,622.8873 1382.81,632.5073 1361,637.7373 C1328.97,645.4173 1244.14,635.0073 1213,645.7373 C1171.04,660.1973 1134.817,688.3215 1110.217,710.3815" fill="none" id="AttendSvc-to-SettingsDAO" style="stroke:#000000;stroke-width:1;"/><polygon fill="#000000" points="1105.75,714.3873,1115.121,711.3567,1109.4725,711.0492,1109.78,705.4007,1105.75,714.3873" style="stroke:#000000;stroke-width:1;"/><text fill="#000000" font-family="Verdana" font-size="13" lengthAdjust="spacing" textLength="62.8672" x="1214" y="659.8071">Get Rules</text></g><!--link RecordsSvc to AttendDAO--><g class="link" data-entity-1="RecordsSvc" data-entity-2="AttendDAO" data-source-line="72" data-uid="lnk51" id="link_RecordsSvc_AttendDAO"><path d="M1274.66,614.0473 C1283.86,641.4773 1297.3114,681.539 1306.4914,708.899" fill="none" id="RecordsSvc-to-AttendDAO" style="stroke:#000000;stroke-width:1;"/><polygon fill="#000000" points="1308.4,714.5873,1309.3293,704.7824,1306.8095,709.847,1301.7449,707.3272,1308.4,714.5873" style="stroke:#000000;stroke-width:1;"/><text fill="#000000" font-family="Verdana" font-size="13" lengthAdjust="spacing" textLength="95.8813" x="1291" y="659.8071">Query Records</text></g><!--link StatsSvc to AttendDAO--><g class="link" data-entity-1="StatsSvc" data-entity-2="AttendDAO" data-source-line="73" data-uid="lnk52" id="link_StatsSvc_AttendDAO"><path d="M1646.06,614.0273 C1626.86,630.7673 1598.36,652.3173 1569,662.7373 C1518.21,680.7673 1499.99,656.5473 1448,670.7373 C1413.22,680.2273 1382.0062,696.2592 1356.2762,711.5692" fill="none" id="StatsSvc-to-AttendDAO" style="stroke:#000000;stroke-width:1;"/><polygon fill="#000000" points="1351.12,714.6373,1360.8998,713.4727,1355.4169,712.0806,1356.809,706.5977,1351.12,714.6373" style="stroke:#000000;stroke-width:1;"/><text fill="#000000" font-family="Verdana" font-size="13" lengthAdjust="spacing" textLength="102.4766" x="1603" y="659.8071">Aggregate Data</text></g><!--link UserSvc to UserDAO--><g class="link" data-entity-1="UserSvc" data-entity-2="UserDAO" data-source-line="74" data-uid="lnk53" id="link_UserSvc_UserDAO"><path d="M742.46,613.9373 C746.27,628.9473 752.94,648.4173 764,662.7373 C780.64,684.2773 800.1136,698.8864 821.6536,711.6064" fill="none" id="UserSvc-to-UserDAO" style="stroke:#000000;stroke-width:1;"/><polygon fill="#000000" points="826.82,714.6573,821.1043,706.6366,822.5147,712.1149,817.0364,713.5252,826.82,714.6573" style="stroke:#000000;stroke-width:1;"/><text fill="#000000" font-family="Verdana" font-size="13" lengthAdjust="spacing" textLength="113.2295" x="765" y="659.8071">CRUD Operations</text></g><!--link SettingsSvc to SettingsDAO--><g class="link" data-entity-1="SettingsSvc" data-entity-2="SettingsDAO" data-source-line="75" data-uid="lnk54" id="link_SettingsSvc_SettingsDAO"><path d="M1039.4,613.9873 C1022.82,626.7373 1008.84,643.8673 1016,662.7373 C1023.66,682.9373 1035.1902,697.0664 1049.4802,710.4464" fill="none" id="SettingsSvc-to-SettingsDAO" style="stroke:#000000;stroke-width:1;"/><polygon fill="#000000" points="1053.86,714.5473,1050.0242,705.4761,1050.2102,711.1299,1044.5564,711.3158,1053.86,714.5473" style="stroke:#000000;stroke-width:1;"/><text fill="#000000" font-family="Verdana" font-size="13" lengthAdjust="spacing" textLength="129.124" x="1017" y="659.8071">Settings Operations</text></g><!--link UserDAO to UsersFile--><g class="link" data-entity-1="UserDAO" data-entity-2="UsersFile" data-source-line="78" data-uid="lnk55" id="link_UserDAO_UsersFile"><path d="M791.69,761.8373 C774.01,769.7073 756.54,780.1173 743,793.7373 C724.21,812.6473 715.6534,836.3662 710.7134,856.7462" fill="none" id="UserDAO-to-UsersFile" style="stroke:#000000;stroke-width:1;"/><polygon fill="#000000" points="709.3,862.5773,715.3076,854.7729,710.4779,857.718,707.5327,852.8883,709.3,862.5773" style="stroke:#000000;stroke-width:1;"/><text fill="#000000" font-family="Verdana" font-size="13" lengthAdjust="spacing" textLength="73.4297" x="744" y="807.8071">Read/Write</text></g><!--link AttendDAO to AttendFile--><g class="link" data-entity-1="AttendDAO" data-entity-2="AttendFile" data-source-line="79" data-uid="lnk56" id="link_AttendDAO_AttendFile"><path d="M1267.82,761.7873 C1245.81,770.9873 1219.1,780.6473 1194,785.7373 C1181.96,788.1773 981.53,784.8973 973,793.7373 C952.57,814.9173 974.1226,839.2654 999.1226,858.6954" fill="none" id="AttendDAO-to-AttendFile" style="stroke:#000000;stroke-width:1;"/><polygon fill="#000000" points="1003.86,862.3773,999.2085,853.6961,999.9121,859.309,994.2992,860.0127,1003.86,862.3773" style="stroke:#000000;stroke-width:1;"/><text fill="#000000" font-family="Verdana" font-size="13" lengthAdjust="spacing" textLength="73.4297" x="974" y="807.8071">Read/Write</text></g><!--link SettingsDAO to SettingsFile--><g class="link" data-entity-1="SettingsDAO" data-entity-2="SettingsFile" data-source-line="80" data-uid="lnk57" id="link_SettingsDAO_SettingsFile"><path d="M1037.49,761.7973 C1017.64,770.8273 993.66,780.3473 971,785.7373 C958.76,788.6473 866.58,784.5273 858,793.7373 C841.1,811.8773 844.1513,836.1508 850.4913,856.8308" fill="none" id="SettingsDAO-to-SettingsFile" style="stroke:#000000;stroke-width:1;"/><polygon fill="#000000" points="852.25,862.5673,853.4363,852.7902,850.7844,857.7869,845.7877,855.135,852.25,862.5673" style="stroke:#000000;stroke-width:1;"/><text fill="#000000" font-family="Verdana" font-size="13" lengthAdjust="spacing" textLength="73.4297" x="859" y="807.8071">Read/Write</text></g><!--link AuthSvc to CryptoUtil--><g class="link" data-entity-1="AuthSvc" data-entity-2="CryptoUtil" data-source-line="83" data-uid="lnk58" id="link_AuthSvc_CryptoUtil"><path d="M933.92,613.8973 C948.73,623.1173 967.01,632.7573 985,637.7373 C1042.85,653.7573 1196.16,633.8573 1255,645.7373 C1275.55,649.8873 1278.51,658.2973 1299,662.7373 C1314.01,665.9873 1424.78,661.4373 1437,670.7373 C1498.05,717.1773 1508.2518,811.3306 1509.7418,856.4206" fill="none" id="AuthSvc-to-CryptoUtil" style="stroke:#000000;stroke-width:1;"/><polygon fill="#000000" points="1509.94,862.4173,1513.6406,853.2901,1509.7749,857.42,1505.6449,853.5543,1509.94,862.4173" style="stroke:#000000;stroke-width:1;"/><text fill="#000000" font-family="Verdana" font-size="13" lengthAdjust="spacing" textLength="118.4092" x="1501" y="743.8071">Password Hashing</text></g><!--link AttendSvc to DateUtil--><g class="link" data-entity-1="AttendSvc" data-entity-2="DateUtil" data-source-line="84" data-uid="lnk59" id="link_AttendSvc_DateUtil"><path d="M1508.11,613.8573 C1527.09,622.9473 1550.11,632.4973 1572,637.7373 C1587.37,641.4173 1703.14,634.2573 1714,645.7373 C1771.01,706.0473 1720.2292,810.1999 1692.3892,857.3799" fill="none" id="AttendSvc-to-DateUtil" style="stroke:#000000;stroke-width:1;"/><polygon fill="#000000" points="1689.34,862.5473,1697.3588,856.829,1691.881,858.2411,1690.4688,852.7634,1689.34,862.5473" style="stroke:#000000;stroke-width:1;"/><text fill="#000000" font-family="Verdana" font-size="13" lengthAdjust="spacing" textLength="114.9434" x="1740" y="743.8071">Time Calculations</text></g><!--link AttendSvc to ValidUtil--><g class="link" data-entity-1="AttendSvc" data-entity-2="ValidUtil" data-source-line="85" data-uid="lnk60" id="link_AttendSvc_ValidUtil"><path d="M1507.83,613.8373 C1526.85,622.9873 1549.99,632.5873 1572,637.7373 C1635.37,652.5573 1822.07,620.1373 1863,670.7373 C1908.41,726.8773 1873.5233,814.5158 1852.0833,857.1958" fill="none" id="AttendSvc-to-ValidUtil" style="stroke:#000000;stroke-width:1;"/><polygon fill="#000000" points="1849.39,862.5573,1857.0043,856.3106,1851.6344,858.0894,1849.8556,852.7195,1849.39,862.5573" style="stroke:#000000;stroke-width:1;"/><text fill="#000000" font-family="Verdana" font-size="13" lengthAdjust="spacing" textLength="104.2603" x="1885" y="743.8071">Input Validation</text></g><!--link UserDAO to FileUtil--><g class="link" data-entity-1="UserDAO" data-entity-2="FileUtil" data-source-line="86" data-uid="lnk61" id="link_UserDAO_FileUtil"><path d="M912.22,761.9473 C929.75,770.8273 950.86,780.1873 971,785.7373 C1005.88,795.3473 1017.37,783.2773 1052,793.7373 C1067.42,798.3973 1068.76,805.5373 1084,810.7373 C1104.06,817.5773 1110.38,813.8673 1131,818.7373 C1189.59,832.5573 1249.8356,851.4269 1293.9056,866.0569" fill="none" id="UserDAO-to-FileUtil" style="stroke:#000000;stroke-width:1;"/><polygon fill="#000000" points="1299.6,867.9473,1292.3186,861.3154,1294.8546,866.372,1289.7981,868.908,1299.6,867.9473" style="stroke:#000000;stroke-width:1;"/><text fill="#000000" font-family="Verdana" font-size="13" lengthAdjust="spacing" textLength="97.9316" x="1085" y="807.8071">File Operations</text></g><!--link AttendDAO to FileUtil--><g class="link" data-entity-1="AttendDAO" data-entity-2="FileUtil" data-source-line="87" data-uid="lnk62" id="link_AttendDAO_FileUtil"><path d="M1322.04,761.9973 C1324.58,771.7473 1327.52,783.2873 1330,793.7373 C1335.56,817.1473 1340.1395,838.2069 1344.0595,856.7569" fill="none" id="AttendDAO-to-FileUtil" style="stroke:#000000;stroke-width:1;"/><polygon fill="#000000" points="1345.3,862.6273,1347.3528,852.9948,1344.2662,857.7353,1339.5256,854.6488,1345.3,862.6273" style="stroke:#000000;stroke-width:1;"/><text fill="#000000" font-family="Verdana" font-size="13" lengthAdjust="spacing" textLength="97.9316" x="1334" y="807.8071">File Operations</text></g><!--link SettingsDAO to FileUtil--><g class="link" data-entity-1="SettingsDAO" data-entity-2="FileUtil" data-source-line="88" data-uid="lnk63" id="link_SettingsDAO_FileUtil"><path d="M1128.72,761.8473 C1148.12,771.4273 1170.78,782.8773 1191,793.7373 C1232.95,816.2673 1274.9656,840.6329 1306.9556,859.5529" fill="none" id="SettingsDAO-to-FileUtil" style="stroke:#000000;stroke-width:1;"/><polygon fill="#000000" points="1312.12,862.6073,1306.4097,854.5828,1307.8164,860.062,1302.3372,861.4686,1312.12,862.6073" style="stroke:#000000;stroke-width:1;"/><text fill="#000000" font-family="Verdana" font-size="13" lengthAdjust="spacing" textLength="97.9316" x="1222" y="807.8071">File Operations</text></g><!--SRC=[ZPPDRzim38Rl_XLSBmE6PRdlC21BrmzWHRiatGx33ggY9beSoPFaPi6m_pvIbcGwQOFTRFAH-98IQRyAQxLLqDH2coheK2jOA27Noi4a16MMmaW5yxqFQWiZcDfjOuqo0MwVb7lIQbTLZP0RiL9mTk6ieINmMUoLEuC_5S3tptQb3LoZmpqAgNw0y11jvCoXpeLVFrZXbj6ThFVNX4oMMrm_1AAjSy-Kj6xfuIjAYRvawBpp88BsGKi6a2sxLGZQhBWpMT3_bsKskRk6In7KJknJMfz-Dqvv36TRpAoB71-ZvXQhQZ0iHhS6RlHoMUDQrsLFtfjlSHFdh8ChOT3TxH4jwEJ1FxPU6uf5PPE3uj9Mg1aFGlPxpvzazB7ZuqGq9oPNZmF9bWXMGGx58YRatkC9SYSPyl9SuS7YP2I69tekWe29b35NbcKCm9mboFdazY3JGwfp9Qw8EQIoWpWkw49ZEyo3TVYMjBGOrh_xwQqfAZnXv1D5Hmzq0ZBXKw3UdqD7WiU-3xhMGIkV0gDc1MJi9DChlSLhPAJRD_6gzS2KJ3OZNqMjb-80YSPCn5nx7xr65sfw3QMpWmNg1McDKPAsyrNNuAFHXzG0y1wk5eixl4U_MkM3hqexdu9IIvz2IcUVWb9tdqHAZv-YC6lMzOECqmfQtFKoBXwsF4TIIoF3sXtZLsbjtWQx0PbqK3Y5xKOPKf4w1shgY5CwkWtYSOndQeLTYzE8CxdpaPgkbToC4EmU4E9aFm8G_T8gjyycJkKPWCobCigHwdvSS38D10HZAzy8WrTyY-KQRDTF1GJJ5oSRUI7m3cAZ3YgHqy_1o9-2tJQahADA0VfoT2IR82_oR4Z4Z0FCsbgLQ_dSjiFIbNeTHL-jd5fH-MWmLRbQmsIci_jpBewNwrXU6NLi1PQGd5Y-sEkyVZbC3Xd74MupKs8v_kPqK5Klk9T_J74LNDKnYMgw4RT_yIJx4OPBxuJtEwmZzezVn_OPd4wUXqWkDFxGJ4Kjs_hPWonZ3zbhqxG1-kaug4IUWSX5_KTNup_0muASG2jZyGeulLe7i8_zxyJiqtpnsDPn767GnceJ_7jqZ60i6ZqMMBBn6_PUBZEtkkuMSfClpSgjyGitm58AQADF0AbCMXzi27PBOild0jBlZ8T7Ig-sSeDhtw9T88g_BpiwVVyMa4BZ0txksWPiNuKIuXy0]--></g></svg>