<svg xmlns="http://www.w3.org/2000/svg" xmlns:xlink="http://www.w3.org/1999/xlink" contentStyleType="text/css" data-diagram-type="STATE" height="1145px" preserveAspectRatio="none" style="width:2300px;height:1145px;background:#FFFFFF;" version="1.1" viewBox="0 0 2300 1145" width="2300px" zoomAndPan="magnify"><title>Teacher Attendance System - Authentication State Machine</title><defs/><g><text fill="#000000" font-family="Verdana" font-size="22" font-weight="bold" lengthAdjust="spacing" textLength="734.9375" x="775.1717" y="37.1182">Teacher Attendance System - Authentication State Machine</text><!--cluster Unauthenticated--><g class="cluster" data-entity="Unauthenticated" data-source-line="6" data-uid="ent0002" id="cluster_Unauthenticated"><path d="M911,724.7373 L1300,724.7373 A12.5,12.5 0 0 1 1312.5,737.2373 L1312.5,746.752 L898.5,746.752 L898.5,737.2373 A12.5,12.5 0 0 1 911,724.7373" fill="#FFFFFF" style="stroke:#FFFFFF;stroke-width:1;"/><path d="M898.5,746.752 L1312.5,746.752 L1312.5,1119.7373 A12.5,12.5 0 0 1 1300,1132.2373 L911,1132.2373 A12.5,12.5 0 0 1 898.5,1119.7373 L898.5,746.752" fill="#FFFFFF" style="stroke:#FFFFFF;stroke-width:1;"/><rect fill="none" height="407.5" rx="12.5" ry="12.5" style="stroke:#000000;stroke-width:1;" width="414" x="898.5" y="724.7373"/><line style="stroke:#000000;stroke-width:1;" x1="898.5" x2="1312.5" y1="746.752" y2="746.752"/><text fill="#000000" font-family="Verdana" font-size="14" lengthAdjust="spacing" textLength="115.5889" x="1047.7056" y="742.8125">Unauthenticated</text></g><ellipse cx="932.5" cy="793.7373" fill="#FFFFFF" rx="10" ry="10" style="stroke:#000000;stroke-width:1;"/><g id="Unauthenticated.LoginForm"><rect fill="#FFFFFF" height="66.1826" rx="12.5" ry="12.5" style="stroke:#000000;stroke-width:1;" width="160.127" x="922.5" y="899.2373"/><line style="stroke:#000000;stroke-width:1;" x1="922.5" x2="1082.627" y1="926.252" y2="926.252"/><text fill="#000000" font-family="Verdana" font-size="14" lengthAdjust="spacing" textLength="73.8486" x="965.6392" y="918.3125">LoginForm</text><text fill="#000000" font-family="Verdana" font-size="12" lengthAdjust="spacing" textLength="109.541" x="927.5" y="943.3164">Display login form</text><text fill="#000000" font-family="Verdana" font-size="12" lengthAdjust="spacing" textLength="140.127" x="927.5" y="957.9004">Accept user credentials</text></g><g id="Unauthenticated.Validating"><rect fill="#FFFFFF" height="50" rx="12.5" ry="12.5" style="stroke:#000000;stroke-width:1;" width="89.7334" x="1080.5" y="768.7373"/><line style="stroke:#000000;stroke-width:1;" x1="1080.5" x2="1170.2334" y1="795.752" y2="795.752"/><text fill="#000000" font-family="Verdana" font-size="14" lengthAdjust="spacing" textLength="69.7334" x="1090.5" y="787.8125">Validating</text></g><g id="Unauthenticated.RegisterForm"><rect fill="#FFFFFF" height="66.1826" rx="12.5" ry="12.5" style="stroke:#000000;stroke-width:1;" width="169.8477" x="999.5" y="1042.2373"/><line style="stroke:#000000;stroke-width:1;" x1="999.5" x2="1169.3477" y1="1069.252" y2="1069.252"/><text fill="#000000" font-family="Verdana" font-size="14" lengthAdjust="spacing" textLength="93.8984" x="1037.4746" y="1061.3125">RegisterForm</text><text fill="#000000" font-family="Verdana" font-size="12" lengthAdjust="spacing" textLength="149.8477" x="1004.5" y="1086.3164">Display registration form</text><text fill="#000000" font-family="Verdana" font-size="12" lengthAdjust="spacing" textLength="130.0137" x="1004.5" y="1100.9004">Accept new user data</text></g><path d="M24.5,59.7373 L2274.7809,59.7373 A12.5,12.5 0 0 1 2287.2809,72.2373 L2287.2809,86.752 L12,86.752 L12,72.2373 A12.5,12.5 0 0 1 24.5,59.7373" fill="#FFFFFF" style="stroke:#FFFFFF;stroke-width:1;"/><path d="M12,86.752 L2287.2809,86.752 L2287.2809,514.2666 A12.5,12.5 0 0 1 2274.7809,526.7666 L24.5,526.7666 A12.5,12.5 0 0 1 12,514.2666 L12,86.752" fill="#FFFFFF" style="stroke:#FFFFFF;stroke-width:1;"/><rect fill="none" height="467.0293" rx="12.5" ry="12.5" style="stroke:#000000;stroke-width:1;" width="2275.2809" x="12" y="59.7373"/><line style="stroke:#000000;stroke-width:1;" x1="12" x2="2287.2809" y1="86.752" y2="86.752"/><text fill="#000000" font-family="Verdana" font-size="14" lengthAdjust="spacing" textLength="97.6445" x="1100.8182" y="78.8125">Authenticated</text><path d="M36.5,257.752 L1110.1209,257.752 A12.5,12.5 0 0 1 1122.6209,270.252 L1122.6209,284.7666 L24,284.7666 L24,270.252 A12.5,12.5 0 0 1 36.5,257.752" fill="#FFFFFF" style="stroke:#FFFFFF;stroke-width:1;"/><path d="M24,284.7666 L1122.6209,284.7666 L1122.6209,503.2666 A12.5,12.5 0 0 1 1110.1209,515.7666 L36.5,515.7666 A12.5,12.5 0 0 1 24,503.2666 L24,284.7666" fill="#FFFFFF" style="stroke:#FFFFFF;stroke-width:1;"/><rect fill="none" height="258.0146" rx="12.5" ry="12.5" style="stroke:#000000;stroke-width:1;" width="1098.6209" x="24" y="257.752"/><line style="stroke:#000000;stroke-width:1;" x1="24" x2="1122.6209" y1="284.7666" y2="284.7666"/><text fill="#000000" font-family="Verdana" font-size="14" lengthAdjust="spacing" textLength="109.5391" x="518.5409" y="276.8271">TeacherSession</text><ellipse cx="456.93" cy="305.7666" fill="#FFFFFF" rx="10" ry="10" style="stroke:#000000;stroke-width:1;"/><g id="Authenticated.TeacherSession.TeacherDashboard"><rect fill="#FFFFFF" height="50" rx="12.5" ry="12.5" style="stroke:#000000;stroke-width:1;" width="151.5166" x="380.93" y="352.7666"/><line style="stroke:#000000;stroke-width:1;" x1="380.93" x2="532.4466" y1="379.7813" y2="379.7813"/><text fill="#000000" font-family="Verdana" font-size="14" lengthAdjust="spacing" textLength="131.5166" x="390.93" y="371.8418">TeacherDashboard</text></g><g id="Authenticated.TeacherSession.CheckIn"><rect fill="#FFFFFF" height="50" rx="12.5" ry="12.5" style="stroke:#000000;stroke-width:1;" width="77.3057" x="65.43" y="455.7666"/><line style="stroke:#000000;stroke-width:1;" x1="65.43" x2="142.7357" y1="482.7813" y2="482.7813"/><text fill="#000000" font-family="Verdana" font-size="14" lengthAdjust="spacing" textLength="57.3057" x="75.43" y="474.8418">CheckIn</text></g><g id="Authenticated.TeacherSession.CheckOut"><rect fill="#FFFFFF" height="50" rx="12.5" ry="12.5" style="stroke:#000000;stroke-width:1;" width="87.9492" x="292.93" y="455.7666"/><line style="stroke:#000000;stroke-width:1;" x1="292.93" x2="380.8792" y1="482.7813" y2="482.7813"/><text fill="#000000" font-family="Verdana" font-size="14" lengthAdjust="spacing" textLength="67.9492" x="302.93" y="474.8418">CheckOut</text></g><g id="Authenticated.TeacherSession.ViewRecords"><rect fill="#FFFFFF" height="50" rx="12.5" ry="12.5" style="stroke:#000000;stroke-width:1;" width="109.0654" x="544.43" y="455.7666"/><line style="stroke:#000000;stroke-width:1;" x1="544.43" x2="653.4954" y1="482.7813" y2="482.7813"/><text fill="#000000" font-family="Verdana" font-size="14" lengthAdjust="spacing" textLength="89.0654" x="554.43" y="474.8418">ViewRecords</text></g><g id="Authenticated.TeacherSession.ViewStats"><rect fill="#FFFFFF" height="50" rx="12.5" ry="12.5" style="stroke:#000000;stroke-width:1;" width="89.5146" x="873.93" y="455.7666"/><line style="stroke:#000000;stroke-width:1;" x1="873.93" x2="963.4446" y1="482.7813" y2="482.7813"/><text fill="#000000" font-family="Verdana" font-size="14" lengthAdjust="spacing" textLength="69.5146" x="883.93" y="474.8418">ViewStats</text></g><!--link *start*TeacherSession to TeacherDashboard--><g class="link" data-entity-1="*start*TeacherSession" data-entity-2="TeacherDashboard" data-source-line="28" data-uid="lnk22" id="link_*start*TeacherSession_TeacherDashboard"><path d="M456.93,315.9166 C456.93,325.1866 456.93,333.9066 456.93,346.5466" fill="none" id="*start*TeacherSession-to-TeacherDashboard" style="stroke:#000000;stroke-width:1;"/><polygon fill="#000000" points="456.93,352.5466,460.93,343.5466,456.93,347.5466,452.93,343.5466,456.93,352.5466" style="stroke:#000000;stroke-width:1;"/></g><!--link TeacherDashboard to CheckIn--><g class="link" data-entity-1="TeacherDashboard" data-entity-2="CheckIn" data-source-line="29" data-uid="lnk24" id="link_TeacherDashboard_CheckIn"><path d="M380.82,381.1566 C268.41,385.4766 68.84,396.4966 46.93,420.7666 C35,433.9766 43.3292,445.0113 60.0792,456.2613" fill="none" id="TeacherDashboard-to-CheckIn" style="stroke:#000000;stroke-width:1;"/><polygon fill="#000000" points="65.06,459.6066,59.819,451.268,60.9093,456.8188,55.3585,457.9092,65.06,459.6066" style="stroke:#000000;stroke-width:1;"/><text fill="#000000" font-family="Verdana" font-size="13" lengthAdjust="spacing" textLength="90.1558" x="47.93" y="434.8364">Click check-in</text></g><!--link TeacherDashboard to CheckOut--><g class="link" data-entity-1="TeacherDashboard" data-entity-2="CheckOut" data-source-line="30" data-uid="lnk26" id="link_TeacherDashboard_CheckOut"><path d="M380.9,387.0366 C337.9,393.4466 290.15,404.1166 276.93,420.7666 C266.49,433.9266 272.6038,443.7557 287.9438,454.3557" fill="none" id="TeacherDashboard-to-CheckOut" style="stroke:#000000;stroke-width:1;"/><polygon fill="#000000" points="292.88,457.7666,287.7497,449.3595,288.7665,454.9242,283.2018,455.941,292.88,457.7666" style="stroke:#000000;stroke-width:1;"/><text fill="#000000" font-family="Verdana" font-size="13" lengthAdjust="spacing" textLength="99.6011" x="277.93" y="434.8364">Click check-out</text></g><!--link TeacherDashboard to ViewRecords--><g class="link" data-entity-1="TeacherDashboard" data-entity-2="ViewRecords" data-source-line="31" data-uid="lnk28" id="link_TeacherDashboard_ViewRecords"><path d="M477.82,402.9766 C488.47,414.4166 502.09,427.7366 515.93,437.7666 C524.96,444.3066 529.8557,447.5433 539.9257,452.9133" fill="none" id="TeacherDashboard-to-ViewRecords" style="stroke:#000000;stroke-width:1;"/><polygon fill="#000000" points="545.22,455.7366,539.1608,447.9722,540.8081,453.3839,535.3964,455.0312,545.22,455.7366" style="stroke:#000000;stroke-width:1;"/><text fill="#000000" font-family="Verdana" font-size="13" lengthAdjust="spacing" textLength="144.0093" x="516.93" y="434.8364">View personal records</text></g><!--link TeacherDashboard to ViewStats--><g class="link" data-entity-1="TeacherDashboard" data-entity-2="ViewStats" data-source-line="32" data-uid="lnk30" id="link_TeacherDashboard_ViewStats"><path d="M532.93,381.3866 C602.16,385.3666 706.59,395.4166 793.93,420.7666 C796.1,421.3966 833.5014,439.1 868.4314,455.71" fill="none" id="TeacherDashboard-to-ViewStats" style="stroke:#000000;stroke-width:1;"/><polygon fill="#000000" points="873.85,458.2866,867.4399,450.8092,869.3345,456.1394,864.0044,458.034,873.85,458.2866" style="stroke:#000000;stroke-width:1;"/><text fill="#000000" font-family="Verdana" font-size="13" lengthAdjust="spacing" textLength="153.0356" x="830.93" y="434.8364">View personal statistics</text></g><!--link CheckIn to TeacherDashboard--><g class="link" data-entity-1="CheckIn" data-entity-2="TeacherDashboard" data-source-line="34" data-uid="lnk31" id="link_CheckIn_TeacherDashboard"><path d="M127.07,455.6666 C140.45,443.2266 158.29,428.9666 176.93,420.7666 C241.95,392.1766 316.7881,382.7882 374.8681,379.7682" fill="none" id="CheckIn-to-TeacherDashboard" style="stroke:#000000;stroke-width:1;"/><polygon fill="#000000" points="380.86,379.4566,371.6644,375.9293,375.8667,379.7162,372.0799,383.9185,380.86,379.4566" style="stroke:#000000;stroke-width:1;"/><text fill="#000000" font-family="Verdana" font-size="13" lengthAdjust="spacing" textLength="90.6064" x="177.93" y="434.8364">Success/Error</text></g><!--link CheckOut to TeacherDashboard--><g class="link" data-entity-1="CheckOut" data-entity-2="TeacherDashboard" data-source-line="35" data-uid="lnk32" id="link_CheckOut_TeacherDashboard"><path d="M361.94,455.6166 C373.55,444.6966 387.69,431.7866 400.93,420.7666 C408.13,414.7766 411.2729,412.2138 418.8429,406.4938" fill="none" id="CheckOut-to-TeacherDashboard" style="stroke:#000000;stroke-width:1;"/><polygon fill="#000000" points="423.63,402.8766,414.0379,405.111,419.6408,405.8909,418.8608,411.4937,423.63,402.8766" style="stroke:#000000;stroke-width:1;"/><text fill="#000000" font-family="Verdana" font-size="13" lengthAdjust="spacing" textLength="90.6064" x="401.93" y="434.8364">Success/Error</text></g><!--link ViewRecords to TeacherDashboard--><g class="link" data-entity-1="ViewRecords" data-entity-2="TeacherDashboard" data-source-line="36" data-uid="lnk33" id="link_ViewRecords_TeacherDashboard"><path d="M648.42,455.6966 C662.73,445.5366 672.07,433.1866 661.93,420.7666 C645.63,400.7766 590.3046,390.697 538.9446,385.097" fill="none" id="ViewRecords-to-TeacherDashboard" style="stroke:#000000;stroke-width:1;"/><polygon fill="#000000" points="532.98,384.4466,541.4934,389.3986,537.9505,384.9886,542.3605,381.4457,532.98,384.4466" style="stroke:#000000;stroke-width:1;"/><text fill="#000000" font-family="Verdana" font-size="13" lengthAdjust="spacing" textLength="121.6909" x="667.93" y="434.8364">Back to dashboard</text></g><!--link ViewStats to TeacherDashboard--><g class="link" data-entity-1="ViewStats" data-entity-2="TeacherDashboard" data-source-line="37" data-uid="lnk34" id="link_ViewStats_TeacherDashboard"><path d="M963.94,460.4066 C983.41,449.3966 999.08,434.9966 985.93,420.7666 C955.87,388.2166 678.2596,380.9373 539.1496,379.2973" fill="none" id="ViewStats-to-TeacherDashboard" style="stroke:#000000;stroke-width:1;"/><polygon fill="#000000" points="533.15,379.2266,542.1022,383.3324,538.1497,379.2855,542.1965,375.333,533.15,379.2266" style="stroke:#000000;stroke-width:1;"/><text fill="#000000" font-family="Verdana" font-size="13" lengthAdjust="spacing" textLength="121.6909" x="990.93" y="434.8364">Back to dashboard</text></g><path d="M1153.5,257.752 L2265.7809,257.752 A12.5,12.5 0 0 1 2278.2809,270.252 L2278.2809,284.7666 L1141,284.7666 L1141,270.252 A12.5,12.5 0 0 1 1153.5,257.752" fill="#FFFFFF" style="stroke:#FFFFFF;stroke-width:1;"/><path d="M1141,284.7666 L2278.2809,284.7666 L2278.2809,503.2666 A12.5,12.5 0 0 1 2265.7809,515.7666 L1153.5,515.7666 A12.5,12.5 0 0 1 1141,503.2666 L1141,284.7666" fill="#FFFFFF" style="stroke:#FFFFFF;stroke-width:1;"/><rect fill="none" height="258.0146" rx="12.5" ry="12.5" style="stroke:#000000;stroke-width:1;" width="1137.2809" x="1141" y="257.752"/><line style="stroke:#000000;stroke-width:1;" x1="1141" x2="2278.2809" y1="284.7666" y2="284.7666"/><text fill="#000000" font-family="Verdana" font-size="14" lengthAdjust="spacing" textLength="98.3076" x="1660.4867" y="276.8271">AdminSession</text><ellipse cx="1654.59" cy="305.7666" fill="#FFFFFF" rx="10" ry="10" style="stroke:#000000;stroke-width:1;"/><g id="Authenticated.AdminSession.AdminDashboard"><rect fill="#FFFFFF" height="50" rx="12.5" ry="12.5" style="stroke:#000000;stroke-width:1;" width="140.2852" x="1584.59" y="352.7666"/><line style="stroke:#000000;stroke-width:1;" x1="1584.59" x2="1724.8752" y1="379.7813" y2="379.7813"/><text fill="#000000" font-family="Verdana" font-size="14" lengthAdjust="spacing" textLength="120.2852" x="1594.59" y="371.8418">AdminDashboard</text></g><g id="Authenticated.AdminSession.ManageUsers"><rect fill="#FFFFFF" height="50" rx="12.5" ry="12.5" style="stroke:#000000;stroke-width:1;" width="113.6865" x="1178.59" y="455.7666"/><line style="stroke:#000000;stroke-width:1;" x1="1178.59" x2="1292.2765" y1="482.7813" y2="482.7813"/><text fill="#000000" font-family="Verdana" font-size="14" lengthAdjust="spacing" textLength="93.6865" x="1188.59" y="474.8418">ManageUsers</text></g><g id="Authenticated.AdminSession.ViewAllRecords"><rect fill="#FFFFFF" height="50" rx="12.5" ry="12.5" style="stroke:#000000;stroke-width:1;" width="126.3193" x="1454.59" y="455.7666"/><line style="stroke:#000000;stroke-width:1;" x1="1454.59" x2="1580.9093" y1="482.7813" y2="482.7813"/><text fill="#000000" font-family="Verdana" font-size="14" lengthAdjust="spacing" textLength="106.3193" x="1464.59" y="474.8418">ViewAllRecords</text></g><g id="Authenticated.AdminSession.ViewAllStats"><rect fill="#FFFFFF" height="50" rx="12.5" ry="12.5" style="stroke:#000000;stroke-width:1;" width="106.7686" x="1754.09" y="455.7666"/><line style="stroke:#000000;stroke-width:1;" x1="1754.09" x2="1860.8586" y1="482.7813" y2="482.7813"/><text fill="#000000" font-family="Verdana" font-size="14" lengthAdjust="spacing" textLength="86.7686" x="1764.09" y="474.8418">ViewAllStats</text></g><g id="Authenticated.AdminSession.SystemSettings"><rect fill="#FFFFFF" height="50" rx="12.5" ry="12.5" style="stroke:#000000;stroke-width:1;" width="130.2842" x="2033.59" y="455.7666"/><line style="stroke:#000000;stroke-width:1;" x1="2033.59" x2="2163.8742" y1="482.7813" y2="482.7813"/><text fill="#000000" font-family="Verdana" font-size="14" lengthAdjust="spacing" textLength="110.2842" x="2043.59" y="474.8418">SystemSettings</text></g><!--link *start*AdminSession to AdminDashboard--><g class="link" data-entity-1="*start*AdminSession" data-entity-2="AdminDashboard" data-source-line="41" data-uid="lnk37" id="link_*start*AdminSession_AdminDashboard"><path d="M1654.59,315.9166 C1654.59,325.1866 1654.59,333.9066 1654.59,346.5466" fill="none" id="*start*AdminSession-to-AdminDashboard" style="stroke:#000000;stroke-width:1;"/><polygon fill="#000000" points="1654.59,352.5466,1658.59,343.5466,1654.59,347.5466,1650.59,343.5466,1654.59,352.5466" style="stroke:#000000;stroke-width:1;"/></g><!--link AdminDashboard to ManageUsers--><g class="link" data-entity-1="AdminDashboard" data-entity-2="ManageUsers" data-source-line="42" data-uid="lnk39" id="link_AdminDashboard_ManageUsers"><path d="M1584.58,379.6266 C1455.71,381.9466 1191.47,390.3966 1163.59,420.7666 C1152,433.3866 1157.2622,442.4863 1173.3722,452.5563" fill="none" id="AdminDashboard-to-ManageUsers" style="stroke:#000000;stroke-width:1;"/><polygon fill="#000000" points="1178.46,455.7366,1172.9485,447.5743,1174.2202,453.0864,1168.7081,454.3581,1178.46,455.7366" style="stroke:#000000;stroke-width:1;"/><text fill="#000000" font-family="Verdana" font-size="13" lengthAdjust="spacing" textLength="120.2183" x="1164.59" y="434.8364">User management</text></g><!--link AdminDashboard to ViewAllRecords--><g class="link" data-entity-1="AdminDashboard" data-entity-2="ViewAllRecords" data-source-line="43" data-uid="lnk41" id="link_AdminDashboard_ViewAllRecords"><path d="M1584.58,384.2266 C1533.67,389.8266 1470.91,400.6566 1454.59,420.7666 C1444.48,433.2166 1448.9388,442.0915 1463.2388,452.2515" fill="none" id="AdminDashboard-to-ViewAllRecords" style="stroke:#000000;stroke-width:1;"/><polygon fill="#000000" points="1468.13,455.7266,1463.11,447.2531,1464.054,452.8307,1458.4765,453.7747,1468.13,455.7266" style="stroke:#000000;stroke-width:1;"/><text fill="#000000" font-family="Verdana" font-size="13" lengthAdjust="spacing" textLength="103.2954" x="1455.59" y="434.8364">View all records</text></g><!--link AdminDashboard to ViewAllStats--><g class="link" data-entity-1="AdminDashboard" data-entity-2="ViewAllStats" data-source-line="44" data-uid="lnk43" id="link_AdminDashboard_ViewAllStats"><path d="M1683.85,403.0066 C1700.42,416.5466 1719.59,431.8566 1728.59,437.7666 C1738.06,443.9866 1743.2889,447.2104 1753.4589,452.7404" fill="none" id="AdminDashboard-to-ViewAllStats" style="stroke:#000000;stroke-width:1;"/><polygon fill="#000000" points="1758.73,455.6066,1752.7341,447.7932,1754.3374,453.2181,1748.9125,454.8214,1758.73,455.6066" style="stroke:#000000;stroke-width:1;"/><text fill="#000000" font-family="Verdana" font-size="13" lengthAdjust="spacing" textLength="136.4111" x="1729.59" y="434.8364">View global statistics</text></g><!--link AdminDashboard to SystemSettings--><g class="link" data-entity-1="AdminDashboard" data-entity-2="SystemSettings" data-source-line="45" data-uid="lnk45" id="link_AdminDashboard_SystemSettings"><path d="M1724.64,378.9866 C1795.49,381.1266 1907.29,389.7766 1998.59,420.7666 C2011.47,425.1366 2033.4912,438.112 2056.2412,452.422" fill="none" id="AdminDashboard-to-SystemSettings" style="stroke:#000000;stroke-width:1;"/><polygon fill="#000000" points="2061.32,455.6166,2055.8315,447.4388,2057.0877,452.9544,2051.572,454.2105,2061.32,455.6166" style="stroke:#000000;stroke-width:1;"/><text fill="#000000" font-family="Verdana" font-size="13" lengthAdjust="spacing" textLength="104.8633" x="2032.59" y="434.8364">System settings</text></g><!--link ManageUsers to AdminDashboard--><g class="link" data-entity-1="ManageUsers" data-entity-2="AdminDashboard" data-source-line="47" data-uid="lnk46" id="link_ManageUsers_AdminDashboard"><path d="M1264.22,455.5666 C1280.57,443.0866 1302.05,428.8366 1323.59,420.7666 C1409.56,388.5566 1509.962,380.2897 1578.532,378.5397" fill="none" id="ManageUsers-to-AdminDashboard" style="stroke:#000000;stroke-width:1;"/><polygon fill="#000000" points="1584.53,378.3866,1575.4309,374.6175,1579.5316,378.5142,1575.635,382.6149,1584.53,378.3866" style="stroke:#000000;stroke-width:1;"/><text fill="#000000" font-family="Verdana" font-size="13" lengthAdjust="spacing" textLength="121.6909" x="1324.59" y="434.8364">Back to dashboard</text></g><!--link ViewAllRecords to AdminDashboard--><g class="link" data-entity-1="ViewAllRecords" data-entity-2="AdminDashboard" data-source-line="48" data-uid="lnk47" id="link_ViewAllRecords_AdminDashboard"><path d="M1541.85,455.5066 C1553.64,444.3166 1568.33,431.2166 1582.59,420.7666 C1591.11,414.5166 1595.4701,411.5054 1604.7201,405.9754" fill="none" id="ViewAllRecords-to-AdminDashboard" style="stroke:#000000;stroke-width:1;"/><polygon fill="#000000" points="1609.87,402.8966,1600.0927,404.0815,1605.5784,405.4623,1604.1977,410.948,1609.87,402.8966" style="stroke:#000000;stroke-width:1;"/><text fill="#000000" font-family="Verdana" font-size="13" lengthAdjust="spacing" textLength="121.6909" x="1583.59" y="434.8364">Back to dashboard</text></g><!--link ViewAllStats to AdminDashboard--><g class="link" data-entity-1="ViewAllStats" data-entity-2="AdminDashboard" data-source-line="49" data-uid="lnk48" id="link_ViewAllStats_AdminDashboard"><path d="M1853.9,455.5266 C1867.57,445.2466 1876.51,432.8566 1866.59,420.7666 C1848.75,399.0566 1785.2137,388.9376 1730.5837,383.8076" fill="none" id="ViewAllStats-to-AdminDashboard" style="stroke:#000000;stroke-width:1;"/><polygon fill="#000000" points="1724.61,383.2466,1733.1966,388.0705,1729.5881,383.7141,1733.9446,380.1056,1724.61,383.2466" style="stroke:#000000;stroke-width:1;"/><text fill="#000000" font-family="Verdana" font-size="13" lengthAdjust="spacing" textLength="121.6909" x="1872.59" y="434.8364">Back to dashboard</text></g><!--link SystemSettings to AdminDashboard--><g class="link" data-entity-1="SystemSettings" data-entity-2="AdminDashboard" data-source-line="50" data-uid="lnk49" id="link_SystemSettings_AdminDashboard"><path d="M2132.32,455.5666 C2143.76,444.5066 2151.44,431.5066 2141.59,420.7666 C2114.01,390.7166 1859.1989,382.2194 1731.0089,379.8094" fill="none" id="SystemSettings-to-AdminDashboard" style="stroke:#000000;stroke-width:1;"/><polygon fill="#000000" points="1725.01,379.6966,1733.9332,383.8651,1730.0091,379.7906,1734.0836,375.8665,1725.01,379.6966" style="stroke:#000000;stroke-width:1;"/><text fill="#000000" font-family="Verdana" font-size="13" lengthAdjust="spacing" textLength="121.6909" x="2146.59" y="434.8364">Back to dashboard</text></g><ellipse cx="1141.5" cy="107.752" fill="#FFFFFF" rx="10" ry="10" style="stroke:#000000;stroke-width:1;"/><g id="Authenticated.CheckingRole"><rect fill="#FFFFFF" height="50" rx="12.5" ry="12.5" style="stroke:#000000;stroke-width:1;" width="114.3906" x="1084.5" y="154.752"/><line style="stroke:#000000;stroke-width:1;" x1="1084.5" x2="1198.8906" y1="181.7666" y2="181.7666"/><text fill="#000000" font-family="Verdana" font-size="14" lengthAdjust="spacing" textLength="94.3906" x="1094.5" y="173.8271">CheckingRole</text></g><!--link *start*Authenticated to CheckingRole--><g class="link" data-entity-1="*start*Authenticated" data-entity-2="CheckingRole" data-source-line="23" data-uid="lnk17" id="link_*start*Authenticated_CheckingRole"><path d="M1141.5,117.902 C1141.5,127.172 1141.5,135.892 1141.5,148.532" fill="none" id="*start*Authenticated-to-CheckingRole" style="stroke:#000000;stroke-width:1;"/><polygon fill="#000000" points="1141.5,154.532,1145.5,145.532,1141.5,149.532,1137.5,145.532,1141.5,154.532" style="stroke:#000000;stroke-width:1;"/></g><!--link CheckingRole to TeacherSession--><g class="link" data-entity-1="CheckingRole" data-entity-2="TeacherSession" data-source-line="24" data-uid="lnk18" id="link_CheckingRole_TeacherSession"><path d="M1084.44,201.342 C1045.05,215.562 994.6437,233.755 933.9937,255.645" fill="none" id="CheckingRole-to-TeacherSession" style="stroke:#000000;stroke-width:1;"/><polygon fill="#000000" points="928.35,257.682,938.1734,258.389,933.0531,255.9845,935.4575,250.8641,928.35,257.682" style="stroke:#000000;stroke-width:1;"/><text fill="#000000" font-family="Verdana" font-size="13" lengthAdjust="spacing" textLength="93.4946" x="1020.5" y="236.8218">role = teacher</text></g><!--link CheckingRole to AdminSession--><g class="link" data-entity-1="CheckingRole" data-entity-2="AdminSession" data-source-line="25" data-uid="lnk19" id="link_CheckingRole_AdminSession"><path d="M1198.56,201.342 C1237.95,215.562 1288.3563,233.755 1349.0063,255.645" fill="none" id="CheckingRole-to-AdminSession" style="stroke:#000000;stroke-width:1;"/><polygon fill="#000000" points="1354.65,257.682,1347.5425,250.8641,1349.9469,255.9845,1344.8266,258.389,1354.65,257.682" style="stroke:#000000;stroke-width:1;"/><text fill="#000000" font-family="Verdana" font-size="13" lengthAdjust="spacing" textLength="84.8745" x="1294.5" y="236.8218">role = admin</text></g><ellipse cx="1622.5" cy="628.7373" fill="#FFFFFF" rx="10" ry="10" style="stroke:#000000;stroke-width:1;"/><g id="SessionExpired"><rect fill="#FFFFFF" height="50" rx="12.5" ry="12.5" style="stroke:#000000;stroke-width:1;" width="126.4355" x="1086.5" y="603.7373"/><line style="stroke:#000000;stroke-width:1;" x1="1086.5" x2="1212.9355" y1="630.752" y2="630.752"/><text fill="#000000" font-family="Verdana" font-size="14" lengthAdjust="spacing" textLength="106.4355" x="1096.5" y="622.8125">SessionExpired</text></g><g id="LoggingOut"><rect fill="#FFFFFF" height="50" rx="12.5" ry="12.5" style="stroke:#000000;stroke-width:1;" width="100.5547" x="1476" y="603.7373"/><line style="stroke:#000000;stroke-width:1;" x1="1476" x2="1576.5547" y1="630.752" y2="630.752"/><text fill="#000000" font-family="Verdana" font-size="14" lengthAdjust="spacing" textLength="80.5547" x="1486" y="622.8125">LoggingOut</text></g><g class="entity" data-entity="GMN2" data-source-line="61" data-uid="ent0003" id="entity_GMN2"><path d="M1339.5,765.2373 L1339.5,822.6353 L1549.7617,822.6353 L1549.7617,775.2373 L1539.7617,765.2373 L1339.5,765.2373" fill="#FFFFFF" style="stroke:#000000;stroke-width:1;"/><path d="M1539.7617,765.2373 L1539.7617,775.2373 L1549.7617,775.2373 L1539.7617,765.2373" fill="#FFFFFF" style="stroke:#000000;stroke-width:1;"/><text fill="#000000" font-family="Verdana" font-size="13" lengthAdjust="spacing" textLength="186.894" x="1345.5" y="783.3071">Validates credentials against</text><text fill="#000000" font-family="Verdana" font-size="13" lengthAdjust="spacing" textLength="189.2617" x="1345.5" y="799.1064">users.json file and generates</text><text fill="#000000" font-family="Verdana" font-size="13" lengthAdjust="spacing" textLength="143.1143" x="1345.5" y="814.9058">JWT token on success</text></g><g class="entity" data-entity="GMN5" data-source-line="67" data-uid="ent0006" id="entity_GMN5"><path d="M1248,607.7373 L1248,624.7373 L1212.72,628.7373 L1248,632.7373 L1248,649.3359 A0,0 0 0 0 1248,649.3359 L1440.5264,649.3359 A0,0 0 0 0 1440.5264,649.3359 L1440.5264,617.7373 L1430.5264,607.7373 L1248,607.7373 A0,0 0 0 0 1248,607.7373" fill="#FFFFFF" style="stroke:#000000;stroke-width:1;"/><path d="M1430.5264,607.7373 L1430.5264,617.7373 L1440.5264,617.7373 L1430.5264,607.7373" fill="#FFFFFF" style="stroke:#000000;stroke-width:1;"/><text fill="#000000" font-family="Verdana" font-size="13" lengthAdjust="spacing" textLength="171.5264" x="1254" y="625.8071">JWT token validation fails,</text><text fill="#000000" font-family="Verdana" font-size="13" lengthAdjust="spacing" textLength="170.8853" x="1254" y="641.6064">user must re-authenticate</text></g><!--link *start* to Unauthenticated--><g class="link" data-entity-1="*start*" data-entity-2="Unauthenticated" data-source-line="4" data-uid="lnk3" id="link_*start*_Unauthenticated"><path d="M1615.47,636.4973 C1610.01,641.5773 1602.1,648.5173 1594.5,653.7373 C1558.28,678.6273 1549.87,689.0473 1507.5,700.7373 C1487.56,706.2373 1337.23,695.2973 1321.5,708.7373 C1317.9363,711.7823 1314.9922,715.3498 1312.5693,719.2651 C1311.9635,720.2439 1311.3904,721.2445 1310.8482,722.2641 C1310.5772,722.7739 1310.3139,723.2884 1310.0581,723.8074 C1309.9302,724.0668 1312.3758,718.9064 1312.2517,719.1681" fill="none" id="*start*-to-Unauthenticated" style="stroke:#000000;stroke-width:1;"/><polygon fill="#000000" points="1309.6802,724.5891,1317.1515,718.1719,1311.8231,720.0716,1309.9235,714.7432,1309.6802,724.5891" style="stroke:#000000;stroke-width:1;"/></g><!--link *start*Unauthenticated to LoginForm--><g class="link" data-entity-1="*start*Unauthenticated" data-entity-2="LoginForm" data-source-line="7" data-uid="lnk6" id="link_*start*Unauthenticated_LoginForm"><path d="M929.48,803.5073 C925.04,817.9673 918.31,847.4073 928.5,869.2373 C933.82,880.6273 937.9112,886.6525 947.3512,895.1525" fill="none" id="*start*Unauthenticated-to-LoginForm" style="stroke:#000000;stroke-width:1;"/><polygon fill="#000000" points="951.81,899.1673,947.7983,890.1725,948.0943,895.8216,942.4452,896.1176,951.81,899.1673" style="stroke:#000000;stroke-width:1;"/></g><!--link LoginForm to Validating--><g class="link" data-entity-1="LoginForm" data-entity-2="Validating" data-source-line="11" data-uid="lnk8" id="link_LoginForm_Validating"><path d="M1053.64,899.2273 C1065.32,890.4273 1077.06,880.2473 1086.5,869.2373 C1099.33,854.2773 1107.0795,839.8805 1113.7995,824.4105" fill="none" id="LoginForm-to-Validating" style="stroke:#000000;stroke-width:1;"/><polygon fill="#000000" points="1116.19,818.9073,1108.9354,825.5684,1114.1979,823.4933,1116.273,828.7558,1116.19,818.9073" style="stroke:#000000;stroke-width:1;"/><text fill="#000000" font-family="Verdana" font-size="13" lengthAdjust="spacing" textLength="122.0908" x="1100.5" y="866.3071">Submit credentials</text></g><!--link Validating to LoginForm--><g class="link" data-entity-1="Validating" data-entity-2="LoginForm" data-source-line="12" data-uid="lnk9" id="link_Validating_LoginForm"><path d="M1080.27,796.4073 C1040.65,800.5673 985.19,813.4873 957.5,852.2373 C946.95,867.0073 951.1547,879.8002 963.1847,894.5302" fill="none" id="Validating-to-LoginForm" style="stroke:#000000;stroke-width:1;"/><polygon fill="#000000" points="966.98,899.1773,964.3851,889.6764,963.8172,895.3047,958.189,894.7368,966.98,899.1773" style="stroke:#000000;stroke-width:1;"/><text fill="#000000" font-family="Verdana" font-size="13" lengthAdjust="spacing" textLength="119.9771" x="958.5" y="866.3071">Invalid credentials</text></g><!--link Validating to Authenticated--><g class="link" data-entity-1="Validating" data-entity-2="Authenticated" data-source-line="13" data-uid="lnk10" id="link_Validating_Authenticated"><path d="M1080.27,769.7773 C1040.16,746.6073 984.23,706.6973 959.5,653.7373 C950.1,633.5973 953.46,625.1273 959.5,603.7373 C966.78,577.9473 974.335,557.6261 986.115,532.5961" fill="none" id="Validating-to-Authenticated" style="stroke:#000000;stroke-width:1;"/><polygon fill="#000000" points="988.67,527.1673,981.2183,533.6072,986.5408,531.6913,988.4567,537.0139,988.67,527.1673" style="stroke:#000000;stroke-width:1;"/><text fill="#000000" font-family="Verdana" font-size="13" lengthAdjust="spacing" textLength="107.4722" x="960.5" y="634.3071">Valid credentials</text></g><!--link LoginForm to RegisterForm--><g class="link" data-entity-1="LoginForm" data-entity-2="RegisterForm" data-source-line="15" data-uid="lnk12" id="link_LoginForm_RegisterForm"><path d="M965.24,965.2973 C953.04,979.7073 944.82,996.8973 954.5,1012.2373 C965.11,1029.0473 976.311,1038.6792 994.101,1047.7192" fill="none" id="LoginForm-to-RegisterForm" style="stroke:#000000;stroke-width:1;"/><polygon fill="#000000" points="999.45,1050.4373,993.2386,1042.7941,994.9925,1048.1722,989.6144,1049.9262,999.45,1050.4373" style="stroke:#000000;stroke-width:1;"/><text fill="#000000" font-family="Verdana" font-size="13" lengthAdjust="spacing" textLength="85.395" x="955.5" y="1009.3071">Click register</text></g><!--link RegisterForm to LoginForm--><g class="link" data-entity-1="RegisterForm" data-entity-2="LoginForm" data-source-line="19" data-uid="lnk14" id="link_RegisterForm_LoginForm"><path d="M1069.98,1042.1473 C1063.05,1027.5673 1054.35,1010.2573 1045.5,995.2373 C1039.65,985.3073 1036.1678,979.8018 1029.6178,970.3918" fill="none" id="RegisterForm-to-LoginForm" style="stroke:#000000;stroke-width:1;"/><polygon fill="#000000" points="1026.19,965.4673,1028.0487,975.1392,1029.0465,969.571,1034.6146,970.5688,1026.19,965.4673" style="stroke:#000000;stroke-width:1;"/><text fill="#000000" font-family="Verdana" font-size="13" lengthAdjust="spacing" textLength="122.7827" x="1056.5" y="1009.3071">Cancel registration</text></g><!--link RegisterForm to Validating--><g class="link" data-entity-1="RegisterForm" data-entity-2="Validating" data-source-line="18" data-uid="lnk13" id="link_RegisterForm_Validating"><path d="M1153.82,1042.1873 C1166.38,1033.8773 1178.37,1023.9073 1187.5,1012.2373 C1228.47,959.8573 1221.61,934.9973 1231.5,869.2373 C1232.62,861.7673 1235.41,858.7073 1231.5,852.2373 C1216.7,827.7273 1199.65,835.9073 1174.5,822.2373 C1172.44,821.1173 1175.6036,822.8474 1173.4836,821.6874" fill="none" id="RegisterForm-to-Validating" style="stroke:#000000;stroke-width:1;"/><polygon fill="#000000" points="1168.22,818.8073,1174.1953,826.6365,1172.6063,821.2074,1178.0354,819.6184,1168.22,818.8073" style="stroke:#000000;stroke-width:1;"/><text fill="#000000" font-family="Verdana" font-size="13" lengthAdjust="spacing" textLength="126.1343" x="1228.5" y="937.8071">Submit registration</text></g><!--link Authenticated to SessionExpired--><g class="link" data-entity-1="Authenticated" data-entity-2="SessionExpired" data-source-line="54" data-uid="lnk51" id="link_Authenticated_SessionExpired"><path d="M1149.5,526.7673 C1149.5,557.6573 1149.5,578.9573 1149.5,597.3573" fill="none" id="Authenticated-to-SessionExpired" style="stroke:#000000;stroke-width:1;"/><polygon fill="#000000" points="1149.5,603.3573,1153.5,594.3573,1149.5,598.3573,1145.5,594.3573,1149.5,603.3573" style="stroke:#000000;stroke-width:1;"/><text fill="#000000" font-family="Verdana" font-size="13" lengthAdjust="spacing" textLength="91.3047" x="1150.5" y="570.8071">Token expires</text></g><!--link SessionExpired to Unauthenticated--><g class="link" data-entity-1="SessionExpired" data-entity-2="Unauthenticated" data-source-line="55" data-uid="lnk52" id="link_SessionExpired_Unauthenticated"><path d="M1177.64,653.7473 C1197.57,669.4973 1225.61,689.2273 1253.5,700.7373 C1271.47,708.1573 1283.38,694.3973 1296.5,708.7373 C1299.565,712.0886 1302.005,715.86 1303.9264,719.9006 C1304.4068,720.9108 1304.8547,721.9378 1305.2719,722.9793 C1305.4805,723.5 1303.6164,718.3909 1303.8098,718.9186" fill="none" id="SessionExpired-to-Unauthenticated" style="stroke:#000000;stroke-width:1;"/><polygon fill="#000000" points="1305.8749,724.552,1306.5329,714.7252,1304.154,719.8575,1299.0216,717.4786,1305.8749,724.552" style="stroke:#000000;stroke-width:1;"/><text fill="#000000" font-family="Verdana" font-size="13" lengthAdjust="spacing" textLength="107.1421" x="1254.5" y="697.8071">Redirect to login</text></g><!--link Authenticated to LoggingOut--><g class="link" data-entity-1="Authenticated" data-entity-2="LoggingOut" data-source-line="57" data-uid="lnk54" id="link_Authenticated_LoggingOut"><path d="M1412.36,526.7673 C1447.28,557.6573 1473.646,580.9819 1494.446,599.3819" fill="none" id="Authenticated-to-LoggingOut" style="stroke:#000000;stroke-width:1;"/><polygon fill="#000000" points="1498.94,603.3573,1494.8493,594.3982,1495.195,600.0444,1489.5487,600.3901,1498.94,603.3573" style="stroke:#000000;stroke-width:1;"/><text fill="#000000" font-family="Verdana" font-size="13" lengthAdjust="spacing" textLength="74.9468" x="1463.5" y="570.8071">User logout</text></g><!--link LoggingOut to Unauthenticated--><g class="link" data-entity-1="LoggingOut" data-entity-2="Unauthenticated" data-source-line="58" data-uid="lnk55" id="link_LoggingOut_Unauthenticated"><path d="M1480.39,653.7773 C1449.02,669.2273 1406.17,688.6073 1366.5,700.7373 C1347.07,706.6773 1336.03,694.5473 1321.5,708.7373 C1318.2,711.9598 1315.45,715.6336 1313.1652,719.602 C1312.594,720.5941 1312.0518,721.6047 1311.5375,722.6312 C1311.2803,723.1444 1311.03,723.6617 1310.7865,724.1826 C1310.7257,724.3128 1313.1695,718.9909 1313.1095,719.1216" fill="none" id="LoggingOut-to-Unauthenticated" style="stroke:#000000;stroke-width:1;"/><polygon fill="#000000" points="1310.6052,724.574,1317.9966,718.065,1312.6921,720.0303,1310.7268,714.7259,1310.6052,724.574" style="stroke:#000000;stroke-width:1;"/><text fill="#000000" font-family="Verdana" font-size="13" lengthAdjust="spacing" textLength="86.0615" x="1412.5" y="697.8071">Clear session</text></g><!--link Validating to GMN2--><g class="link" data-entity-1="Validating" data-entity-2="GMN2" data-source-line="61" data-uid="lnk4" id="link_Validating_GMN2"><path d="M1132.14,768.5173 C1140.82,741.2873 1158.98,699.3573 1192,681.2373 C1235.25,657.4973 1256.42,664.9773 1303,681.2373 C1350.41,697.7873 1393.83,737.5973 1419.73,765.1273" fill="none" id="Validating-GMN2" style="stroke:#000000;stroke-width:1;stroke-dasharray:7.0,7.0;"/></g><!--SRC=[bLLDRzim3BtxLt3NOTdk0JR0IpkWmue1ITeTXXqKctMqo58WoUsA8VzzfEpKacDdwQMfoVV4ZqTHR_mMQuIz4b9dNdg5i4PHRD52xZtgKkW2OVNiFDOmWxmXlFQo45uQ3IilFC8juQN6BFlvzXVCPf_WJeiUXsMMkO0RcE5l1d2aV3ELr5-ChSdsyZ_CuKewokqP5DlWuHIG5mNkFJIECYuibdoyK8vG2P1Zt0ibIqfSLyHRDPjQ-W4bGYH94Vv6FxBpF25Fwfktxl-bjSHAKdjj5sYXPB43sna9FV0VEz8YR2j4rvW1jEkDngUsFvIf6AAc6XCVFyQ9UxFW8L4fvN1KFP_KVB75OaT1bqOXcUFFuEy6SONESOrpiEpv2BwrZr7oifRwX23OshQ-pMbmCYVLfzKvhuJRReomPN0EZNq1D_f5j8A_Po7KESRtnWyefl7Jd7k9JqiiZ2qTZnHzmHwjCrfmouFzF9blwIcLEq5ooQ9bXp_7WiRQ44Q31igv3zVM6jiJk9wB6N4r4wJFWXhZ3Orhh41VoIjeXrZrP3XIpOChLJmr1TIjqAB2ExfAt4x-XJgOQXhmAHBddIirK52eLBnfOg9UfSpcLBiHShknL-ZvLZEzM-6ki_IQnqMTjkAi755PhsVsMbx86vHqCVF0koZTGg53xI1S_zbB6vRrsknG0uPlbmtS8yyQKPPOahVm73AyK6E1Q5EIfsflVHWQWlADZnpZnoyK2akIXKooJ1iQOYkhhGVp42tj_Xr25pys82fwrHrF9gz_z_wtuwT2qauKkeGADLhcaF_hZpNLmFKJmhMNDgFN7pZcC7BQceJzs2N5SOHKxbqN6-h6yPioYqli0_m3]--></g></svg>