<svg xmlns="http://www.w3.org/2000/svg" xmlns:xlink="http://www.w3.org/1999/xlink" contentStyleType="text/css" data-diagram-type="DESCRIPTION" height="2629px" preserveAspectRatio="none" style="width:1090px;height:2629px;background:#FFFFFF;" version="1.1" viewBox="0 0 1090 2629" width="1090px" zoomAndPan="magnify"><title>Teacher Attendance System - Admin Management Use Cases</title><defs/><g><text fill="#000000" font-family="Verdana" font-size="22" font-weight="bold" lengthAdjust="spacing" textLength="748.5586" x="166.4707" y="37.1182">Teacher Attendance System - Admin Management Use Cases</text><!--cluster Administrative Functions--><g class="cluster" data-entity="Administrative Functions" data-source-line="10" data-uid="ent0005" id="cluster_Administrative Functions"><rect fill="#FFFFFF" height="1572" rx="2.5" ry="2.5" style="stroke:#000000;stroke-width:1;" width="558" x="211" y="59.7373"/><text fill="#000000" font-family="Verdana" font-size="14" font-weight="bold" lengthAdjust="spacing" textLength="196.6973" x="391.6514" y="75.8125">Administrative Functions</text></g><!--cluster Shared Functions--><g class="cluster" data-entity="Shared Functions" data-source-line="42" data-uid="ent0031" id="cluster_Shared Functions"><rect fill="#FFFFFF" height="240" rx="2.5" ry="2.5" style="stroke:#000000;stroke-width:1;" width="215" x="231" y="1655.7373"/><text fill="#000000" font-family="Verdana" font-size="14" font-weight="bold" lengthAdjust="spacing" textLength="136.4453" x="270.2773" y="1671.8125">Shared Functions</text></g><!--cluster System Functions--><g class="cluster" data-entity="System Functions" data-source-line="48" data-uid="ent0035" id="cluster_System Functions"><rect fill="#FFFFFF" height="243" rx="2.5" ry="2.5" style="stroke:#000000;stroke-width:1;" width="216" x="868.5" y="1912.7373"/><text fill="#000000" font-family="Verdana" font-size="14" font-weight="bold" lengthAdjust="spacing" textLength="138.9814" x="907.0093" y="1928.8125">System Functions</text></g><g class="entity" data-entity="UC1" data-source-line="11" data-uid="ent0006" id="entity_UC1"><ellipse cx="338.6851" cy="634.8743" fill="#FFFFFF" rx="98.6851" ry="22.137" style="stroke:#000000;stroke-width:1;"/><text fill="#000000" font-family="Verdana" font-size="14" lengthAdjust="spacing" textLength="159.4209" x="258.9747" y="638.4422">Manage User Accounts</text></g><g class="entity" data-entity="UC1.1" data-source-line="12" data-uid="ent0007" id="entity_UC1.1"><ellipse cx="631.7728" cy="195.6919" fill="#FFFFFF" rx="82.7728" ry="18.9546" style="stroke:#000000;stroke-width:1;"/><text fill="#000000" font-family="Verdana" font-size="14" lengthAdjust="spacing" textLength="122.9717" x="570.287" y="199.2597">Add New Teacher</text></g><g class="entity" data-entity="UC1.2" data-source-line="13" data-uid="ent0008" id="entity_UC1.2"><ellipse cx="631.7632" cy="351.4899" fill="#FFFFFF" rx="91.7632" ry="20.7526" style="stroke:#000000;stroke-width:1;"/><text fill="#000000" font-family="Verdana" font-size="14" lengthAdjust="spacing" textLength="143.8145" x="559.8559" y="355.0578">Update Teacher Info</text></g><g class="entity" data-entity="UC1.3" data-source-line="14" data-uid="ent0009" id="entity_UC1.3"><ellipse cx="631.9776" cy="118.5328" fill="#FFFFFF" rx="101.9776" ry="22.7955" style="stroke:#000000;stroke-width:1;"/><text fill="#000000" font-family="Verdana" font-size="14" lengthAdjust="spacing" textLength="166.7422" x="548.6065" y="122.1007">Delete Teacher Account</text></g><g class="entity" data-entity="UC1.4" data-source-line="15" data-uid="ent0010" id="entity_UC1.4"><ellipse cx="631.9044" cy="272.9182" fill="#FFFFFF" rx="103.9044" ry="23.1809" style="stroke:#000000;stroke-width:1;"/><text fill="#000000" font-family="Verdana" font-size="14" lengthAdjust="spacing" textLength="171.001" x="546.4039" y="276.4861">Reset Teacher Password</text></g><g class="entity" data-entity="UC2" data-source-line="17" data-uid="ent0011" id="entity_UC2"><ellipse cx="338.6341" cy="834.9641" fill="#FFFFFF" rx="111.6341" ry="24.7268" style="stroke:#000000;stroke-width:1;"/><text fill="#000000" font-family="Verdana" font-size="14" lengthAdjust="spacing" textLength="187.9199" x="244.6741" y="838.532">Configure System Settings</text></g><g class="entity" data-entity="UC2.1" data-source-line="18" data-uid="ent0012" id="entity_UC2.1"><ellipse cx="631.7835" cy="577.694" fill="#FFFFFF" rx="77.7835" ry="17.9567" style="stroke:#000000;stroke-width:1;"/><text fill="#000000" font-family="Verdana" font-size="14" lengthAdjust="spacing" textLength="111.0156" x="576.2757" y="581.2619">Set Work Hours</text></g><g class="entity" data-entity="UC2.2" data-source-line="19" data-uid="ent0013" id="entity_UC2.2"><ellipse cx="632.0927" cy="653.8558" fill="#FFFFFF" rx="101.0927" ry="22.6185" style="stroke:#000000;stroke-width:1;"/><text fill="#000000" font-family="Verdana" font-size="14" lengthAdjust="spacing" textLength="164.7803" x="549.7026" y="657.4237">Define Late/Early Rules</text></g><g class="entity" data-entity="UC2.3" data-source-line="20" data-uid="ent0014" id="entity_UC2.3"><ellipse cx="632.1802" cy="504.9733" fill="#FFFFFF" rx="86.6802" ry="19.736" style="stroke:#000000;stroke-width:1;"/><text fill="#000000" font-family="Verdana" font-size="14" lengthAdjust="spacing" textLength="132.125" x="566.1177" y="508.5412">Configure Holidays</text></g><g class="entity" data-entity="UC2.4" data-source-line="21" data-uid="ent0015" id="entity_UC2.4"><ellipse cx="632.2224" cy="428.8818" fill="#FFFFFF" rx="93.7224" ry="21.1445" style="stroke:#000000;stroke-width:1;"/><text fill="#000000" font-family="Verdana" font-size="14" lengthAdjust="spacing" textLength="148.2646" x="558.0901" y="432.4497">Set Backup Schedule</text></g><g class="entity" data-entity="UC3" data-source-line="23" data-uid="ent0016" id="entity_UC3"><ellipse cx="338.3654" cy="925.5104" fill="#FFFFFF" rx="99.3654" ry="22.2731" style="stroke:#000000;stroke-width:1;"/><text fill="#000000" font-family="Verdana" font-size="14" lengthAdjust="spacing" textLength="160.9385" x="257.8962" y="929.0783">Monitor System Health</text></g><g class="entity" data-entity="UC3.1" data-source-line="24" data-uid="ent0017" id="entity_UC3.1"><ellipse cx="631.9032" cy="806.6179" fill="#FFFFFF" rx="84.9032" ry="19.3806" style="stroke:#000000;stroke-width:1;"/><text fill="#000000" font-family="Verdana" font-size="14" lengthAdjust="spacing" textLength="127.9824" x="567.912" y="810.1858">View System Logs</text></g><g class="entity" data-entity="UC3.2" data-source-line="25" data-uid="ent0018" id="entity_UC3.2"><ellipse cx="631.9689" cy="731.9311" fill="#FFFFFF" rx="88.9689" ry="20.1938" style="stroke:#000000;stroke-width:1;"/><text fill="#000000" font-family="Verdana" font-size="14" lengthAdjust="spacing" textLength="137.416" x="563.2609" y="735.499">Check File Integrity</text></g><g class="entity" data-entity="UC3.3" data-source-line="26" data-uid="ent0019" id="entity_UC3.3"><ellipse cx="631.9776" cy="965.7328" fill="#FFFFFF" rx="92.9776" ry="20.9955" style="stroke:#000000;stroke-width:1;"/><text fill="#000000" font-family="Verdana" font-size="14" lengthAdjust="spacing" textLength="146.5762" x="558.6895" y="969.3007">Monitor Performance</text></g><g class="entity" data-entity="UC3.4" data-source-line="27" data-uid="ent0020" id="entity_UC3.4"><ellipse cx="632.0413" cy="885.8456" fill="#FFFFFF" rx="108.5413" ry="24.1083" style="stroke:#000000;stroke-width:1;"/><text fill="#000000" font-family="Verdana" font-size="14" lengthAdjust="spacing" textLength="181.1797" x="541.4514" y="889.4134">Generate System Reports</text></g><g class="entity" data-entity="UC4" data-source-line="29" data-uid="ent0021" id="entity_UC4"><ellipse cx="338.3008" cy="1324.6975" fill="#FFFFFF" rx="85.3008" ry="19.4602" style="stroke:#000000;stroke-width:1;"/><text fill="#000000" font-family="Verdana" font-size="14" lengthAdjust="spacing" textLength="128.9121" x="273.8447" y="1328.2653">Data Management</text></g><g class="entity" data-entity="UC4.1" data-source-line="30" data-uid="ent0022" id="entity_UC4.1"><ellipse cx="631.8426" cy="1109.9058" fill="#FFFFFF" rx="83.8426" ry="19.1685" style="stroke:#000000;stroke-width:1;"/><text fill="#000000" font-family="Verdana" font-size="14" lengthAdjust="spacing" textLength="125.4941" x="569.0955" y="1113.4737">Backup Data Files</text></g><g class="entity" data-entity="UC4.2" data-source-line="31" data-uid="ent0023" id="entity_UC4.2"><ellipse cx="632.2082" cy="1038.679" fill="#FFFFFF" rx="70.2082" ry="16.4416" style="stroke:#000000;stroke-width:1;"/><text fill="#000000" font-family="Verdana" font-size="14" lengthAdjust="spacing" textLength="91.7383" x="583.7111" y="1042.8878">Restore Data</text></g><g class="entity" data-entity="UC4.3" data-source-line="32" data-uid="ent0024" id="entity_UC4.3"><ellipse cx="632.227" cy="1254.7827" fill="#FFFFFF" rx="90.727" ry="20.5454" style="stroke:#000000;stroke-width:1;"/><text fill="#000000" font-family="Verdana" font-size="14" lengthAdjust="spacing" textLength="141.4492" x="561.5024" y="1258.3506">Archive Old Records</text></g><g class="entity" data-entity="UC4.4" data-source-line="33" data-uid="ent0025" id="entity_UC4.4"><ellipse cx="631.7618" cy="1181.7897" fill="#FFFFFF" rx="75.7618" ry="17.5524" style="stroke:#000000;stroke-width:1;"/><text fill="#000000" font-family="Verdana" font-size="14" lengthAdjust="spacing" textLength="106.0664" x="578.7286" y="1185.3575">Export All Data</text></g><g class="entity" data-entity="UC5" data-source-line="35" data-uid="ent0026" id="entity_UC5"><ellipse cx="338.3876" cy="1422.7148" fill="#FFFFFF" rx="80.3876" ry="18.4775" style="stroke:#000000;stroke-width:1;"/><text fill="#000000" font-family="Verdana" font-size="14" lengthAdjust="spacing" textLength="117.2979" x="279.7387" y="1426.2827">Global Reporting</text></g><g class="entity" data-entity="UC5.1" data-source-line="36" data-uid="ent0027" id="entity_UC5.1"><ellipse cx="631.9302" cy="1422.8233" fill="#FFFFFF" rx="120.9302" ry="26.586" style="stroke:#000000;stroke-width:1;"/><text fill="#000000" font-family="Verdana" font-size="14" lengthAdjust="spacing" textLength="207.9834" x="527.9385" y="1426.3912">Generate Attendance Reports</text></g><g class="entity" data-entity="UC5.2" data-source-line="37" data-uid="ent0028" id="entity_UC5.2"><ellipse cx="632.1582" cy="1335.7689" fill="#FFFFFF" rx="113.1582" ry="25.0316" style="stroke:#000000;stroke-width:1;"/><text fill="#000000" font-family="Verdana" font-size="14" lengthAdjust="spacing" textLength="191.2285" x="536.5439" y="1339.3368">View Department Statistics</text></g><g class="entity" data-entity="UC5.3" data-source-line="38" data-uid="ent0029" id="entity_UC5.3"><ellipse cx="632.1679" cy="1592.7709" fill="#FFFFFF" rx="100.6679" ry="22.5336" style="stroke:#000000;stroke-width:1;"/><text fill="#000000" font-family="Verdana" font-size="14" lengthAdjust="spacing" textLength="163.8369" x="550.2494" y="1596.3388">Create Custom Reports</text></g><g class="entity" data-entity="UC5.4" data-source-line="39" data-uid="ent0030" id="entity_UC5.4"><ellipse cx="631.7649" cy="1509.8903" fill="#FFFFFF" rx="116.2649" ry="25.653" style="stroke:#000000;stroke-width:1;"/><text fill="#000000" font-family="Verdana" font-size="14" lengthAdjust="spacing" textLength="197.9482" x="532.7907" y="1513.4581">Schedule Report Generation</text></g><g class="entity" data-entity="Login" data-source-line="43" data-uid="ent0032" id="entity_Login"><ellipse cx="338.5961" cy="1709.9565" fill="#FFFFFF" rx="79.0961" ry="18.2192" style="stroke:#000000;stroke-width:1;"/><text fill="#000000" font-family="Verdana" font-size="14" lengthAdjust="spacing" textLength="114.1943" x="281.4989" y="1713.5244">Login to System</text></g><g class="entity" data-entity="ViewRecords" data-source-line="44" data-uid="ent0033" id="entity_ViewRecords"><ellipse cx="338.4394" cy="1783.9252" fill="#FFFFFF" rx="91.4394" ry="20.6879" style="stroke:#000000;stroke-width:1;"/><text fill="#000000" font-family="Verdana" font-size="14" lengthAdjust="spacing" textLength="143.0762" x="266.9013" y="1787.493">View Global Records</text></g><g class="entity" data-entity="GenStats" data-source-line="45" data-uid="ent0034" id="entity_GenStats"><ellipse cx="338.3374" cy="1859.6048" fill="#FFFFFF" rx="87.3374" ry="19.8675" style="stroke:#000000;stroke-width:1;"/><text fill="#000000" font-family="Verdana" font-size="14" lengthAdjust="spacing" textLength="133.6494" x="271.5127" y="1863.1727">Generate Statistics</text></g><g class="entity" data-entity="ValidatePerms" data-source-line="49" data-uid="ent0036" id="entity_ValidatePerms"><ellipse cx="976.7255" cy="2118.5824" fill="#FFFFFF" rx="92.2255" ry="20.8451" style="stroke:#000000;stroke-width:1;"/><text fill="#000000" font-family="Verdana" font-size="14" lengthAdjust="spacing" textLength="144.8672" x="904.2919" y="2122.1503">Validate Permissions</text></g><g class="entity" data-entity="LogActions" data-source-line="50" data-uid="ent0037" id="entity_LogActions"><ellipse cx="976.4132" cy="2042.8199" fill="#FFFFFF" rx="85.9132" ry="19.5826" style="stroke:#000000;stroke-width:1;"/><text fill="#000000" font-family="Verdana" font-size="14" lengthAdjust="spacing" textLength="130.3408" x="911.2427" y="2046.3878">Log Admin Actions</text></g><g class="entity" data-entity="SendNotif" data-source-line="51" data-uid="ent0038" id="entity_SendNotif"><ellipse cx="976.5763" cy="1968.5526" fill="#FFFFFF" rx="84.5763" ry="19.3153" style="stroke:#000000;stroke-width:1;"/><text fill="#000000" font-family="Verdana" font-size="14" lengthAdjust="spacing" textLength="127.2168" x="912.9679" y="1972.1204">Send Notifications</text></g><!--entity Admin--><g class="entity" data-entity="Admin" data-source-line="6" data-uid="ent0002" id="entity_Admin"><ellipse cx="87.5898" cy="1352.7373" fill="#FFFFFF" rx="8" ry="8" style="stroke:#000000;stroke-width:1;"/><path d="M87.5898,1360.7373 L87.5898,1387.7373 M74.5898,1368.7373 L100.5898,1368.7373 M87.5898,1387.7373 L74.5898,1402.7373 M87.5898,1387.7373 L100.5898,1402.7373" fill="none" style="stroke:#000000;stroke-width:1;"/><text fill="#000000" font-family="Verdana" font-size="14" lengthAdjust="spacing" textLength="153.1797" x="11" y="1418.8125">System Administrator</text></g><!--entity Teacher--><g class="entity" data-entity="Teacher" data-source-line="7" data-uid="ent0003" id="entity_Teacher"><ellipse cx="976.4214" cy="547.7373" fill="#FFFFFF" rx="8" ry="8" style="stroke:#000000;stroke-width:1;"/><path d="M976.4214,555.7373 L976.4214,582.7373 M963.4214,563.7373 L989.4214,563.7373 M976.4214,582.7373 L963.4214,597.7373 M976.4214,582.7373 L989.4214,597.7373" fill="none" style="stroke:#000000;stroke-width:1;"/><text fill="#000000" font-family="Verdana" font-size="14" lengthAdjust="spacing" textLength="55.8428" x="948.5" y="613.8125">Teacher</text></g><!--entity System--><g class="entity" data-entity="System" data-source-line="8" data-uid="ent0004" id="entity_System"><ellipse cx="87.3115" cy="1239.7373" fill="#FFFFFF" rx="8" ry="8" style="stroke:#000000;stroke-width:1;"/><path d="M87.3115,1247.7373 L87.3115,1274.7373 M74.3115,1255.7373 L100.3115,1255.7373 M87.3115,1274.7373 L74.3115,1289.7373 M87.3115,1274.7373 L100.3115,1289.7373" fill="none" style="stroke:#000000;stroke-width:1;"/><text fill="#000000" font-family="Verdana" font-size="14" lengthAdjust="spacing" textLength="52.623" x="61" y="1305.8125">System</text></g><g class="entity" data-entity="GMN81" data-source-line="111" data-uid="ent0082" id="entity_GMN81"><path d="M529,1650.2373 L529,1723.4346 L735.1104,1723.4346 L735.1104,1660.2373 L725.1104,1650.2373 L529,1650.2373" fill="#FFFFFF" style="stroke:#000000;stroke-width:1;"/><path d="M725.1104,1650.2373 L725.1104,1660.2373 L735.1104,1660.2373 L725.1104,1650.2373" fill="#FFFFFF" style="stroke:#000000;stroke-width:1;"/><text fill="#000000" font-family="Verdana" font-size="13" lengthAdjust="spacing" textLength="177.7661" x="535" y="1668.3071">User management includes</text><text fill="#000000" font-family="Verdana" font-size="13" lengthAdjust="spacing" textLength="185.1104" x="535" y="1684.1064">CRUD operations on teacher</text><text fill="#000000" font-family="Verdana" font-size="13" lengthAdjust="spacing" textLength="137.2173" x="535" y="1699.9058">accounts with proper</text><text fill="#000000" font-family="Verdana" font-size="13" lengthAdjust="spacing" textLength="144.1743" x="535" y="1715.7051">validation and logging</text></g><g class="entity" data-entity="GMN84" data-source-line="118" data-uid="ent0085" id="entity_GMN84"><path d="M536.5,1933.2373 L536.5,1990.6353 L727.4775,1990.6353 L727.4775,1943.2373 L717.4775,1933.2373 L536.5,1933.2373" fill="#FFFFFF" style="stroke:#000000;stroke-width:1;"/><path d="M717.4775,1933.2373 L717.4775,1943.2373 L727.4775,1943.2373 L717.4775,1933.2373" fill="#FFFFFF" style="stroke:#000000;stroke-width:1;"/><text fill="#000000" font-family="Verdana" font-size="13" lengthAdjust="spacing" textLength="138.9502" x="542.5" y="1951.3071">System configuration</text><text fill="#000000" font-family="Verdana" font-size="13" lengthAdjust="spacing" textLength="131.2124" x="542.5" y="1967.1064">affects all users and</text><text fill="#000000" font-family="Verdana" font-size="13" lengthAdjust="spacing" textLength="169.9775" x="542.5" y="1982.9058">requires careful validation</text></g><g class="entity" data-entity="GMN87" data-source-line="124" data-uid="ent0088" id="entity_GMN87"><path d="M533,2287.2373 L533,2344.6353 L730.998,2344.6353 L730.998,2297.2373 L720.998,2287.2373 L533,2287.2373" fill="#FFFFFF" style="stroke:#000000;stroke-width:1;"/><path d="M720.998,2287.2373 L720.998,2297.2373 L730.998,2297.2373 L720.998,2287.2373" fill="#FFFFFF" style="stroke:#000000;stroke-width:1;"/><text fill="#000000" font-family="Verdana" font-size="13" lengthAdjust="spacing" textLength="176.998" x="539" y="2305.3071">Data management ensures</text><text fill="#000000" font-family="Verdana" font-size="13" lengthAdjust="spacing" textLength="139.877" x="539" y="2321.1064">system reliability and</text><text fill="#000000" font-family="Verdana" font-size="13" lengthAdjust="spacing" textLength="112.6392" x="539" y="2336.9058">disaster recovery</text></g><g class="entity" data-entity="GMN90" data-source-line="130" data-uid="ent0091" id="entity_GMN90"><path d="M878,1839.2373 L878,1896.6353 L1074.9316,1896.6353 L1074.9316,1849.2373 L1064.9316,1839.2373 L878,1839.2373" fill="#FFFFFF" style="stroke:#000000;stroke-width:1;"/><path d="M1064.9316,1839.2373 L1064.9316,1849.2373 L1074.9316,1849.2373 L1064.9316,1839.2373" fill="#FFFFFF" style="stroke:#000000;stroke-width:1;"/><text fill="#000000" font-family="Verdana" font-size="13" lengthAdjust="spacing" textLength="175.9316" x="884" y="1857.3071">All admin functions require</text><text fill="#000000" font-family="Verdana" font-size="13" lengthAdjust="spacing" textLength="168.873" x="884" y="1873.1064">proper role validation and</text><text fill="#000000" font-family="Verdana" font-size="13" lengthAdjust="spacing" textLength="132.5073" x="884" y="1888.9058">permission checking</text></g><!--link Admin to Login--><g class="link" data-entity-1="Admin" data-entity-2="Login" data-source-line="55" data-uid="lnk39" id="link_Admin_Login"><path d="M98.42,1421.8873 C113.47,1474.7973 146.49,1569.6173 203,1631.7373 C228.97,1660.2873 262.4128,1678.8602 291.7128,1691.8202" fill="none" id="Admin-to-Login" style="stroke:#000000;stroke-width:1;"/><polygon fill="#000000" points="297.2,1694.2473,290.5873,1686.9485,292.6273,1692.2247,287.3512,1694.2648,297.2,1694.2473" style="stroke:#000000;stroke-width:1;"/></g><!--link Admin to UC1--><g class="link" data-entity-1="Admin" data-entity-2="UC1" data-source-line="56" data-uid="lnk40" id="link_Admin_UC1"><path d="M150.66,1343.6573 C155.88,1338.2173 160.49,1332.2373 164,1325.7373 C220.44,1221.2473 155.96,901.7873 203,792.7373 C227.61,735.6773 275.6226,687.7375 307.2526,659.9475" fill="none" id="Admin-to-UC1" style="stroke:#000000;stroke-width:1;"/><polygon fill="#000000" points="311.76,655.9873,302.3587,658.9227,308.0038,659.2875,307.639,664.9326,311.76,655.9873" style="stroke:#000000;stroke-width:1;"/></g><!--link Admin to UC2--><g class="link" data-entity-1="Admin" data-entity-2="UC2" data-source-line="57" data-uid="lnk41" id="link_Admin_UC2"><path d="M150.52,1343.5773 C155.76,1338.1573 160.42,1332.1973 164,1325.7373 C211.6,1239.8873 143.72,963.9773 203,885.7373 C215.44,869.3173 228.2454,860.381 247.4654,852.831" fill="none" id="Admin-to-UC2" style="stroke:#000000;stroke-width:1;"/><polygon fill="#000000" points="253.05,850.6373,243.2106,850.2049,248.3962,852.4654,246.1356,857.651,253.05,850.6373" style="stroke:#000000;stroke-width:1;"/></g><!--link Admin to UC3--><g class="link" data-entity-1="Admin" data-entity-2="UC3" data-source-line="58" data-uid="lnk42" id="link_Admin_UC3"><path d="M147,1343.6073 C153.19,1338.0573 159.02,1332.0673 164,1325.7373 C262.07,1201.1173 314.3482,1018.394 330.6382,954.014" fill="none" id="Admin-to-UC3" style="stroke:#000000;stroke-width:1;"/><polygon fill="#000000" points="332.11,948.1973,326.0245,955.9411,330.8835,953.0445,333.7801,957.9035,332.11,948.1973" style="stroke:#000000;stroke-width:1;"/></g><!--link Admin to UC4--><g class="link" data-entity-1="Admin" data-entity-2="UC4" data-source-line="59" data-uid="lnk43" id="link_Admin_UC4"><path d="M164.22,1365.0973 C200.71,1356.5973 237.9863,1347.918 272.0863,1339.978" fill="none" id="Admin-to-UC4" style="stroke:#000000;stroke-width:1;"/><polygon fill="#000000" points="277.93,1338.6173,268.2574,1336.7625,273.0603,1339.7512,270.0716,1344.5541,277.93,1338.6173" style="stroke:#000000;stroke-width:1;"/></g><!--link Admin to UC5--><g class="link" data-entity-1="Admin" data-entity-2="UC5" data-source-line="60" data-uid="lnk44" id="link_Admin_UC5"><path d="M164.22,1394.9073 C198.56,1400.4173 232.856,1405.9252 265.896,1411.2352" fill="none" id="Admin-to-UC5" style="stroke:#000000;stroke-width:1;"/><polygon fill="#000000" points="271.82,1412.1873,263.5687,1406.8099,266.8833,1411.3939,262.2993,1414.7085,271.82,1412.1873" style="stroke:#000000;stroke-width:1;"/></g><!--link Admin to ViewRecords--><g class="link" data-entity-1="Admin" data-entity-2="ViewRecords" data-source-line="61" data-uid="lnk45" id="link_Admin_ViewRecords"><path d="M89.36,1421.8573 C93.16,1495.6673 112.08,1655.9873 203,1744.7373 C217.79,1759.1773 231.8193,1766.6499 251.6693,1772.4299" fill="none" id="Admin-to-ViewRecords" style="stroke:#000000;stroke-width:1;"/><polygon fill="#000000" points="257.43,1774.1073,249.9072,1767.7507,252.6294,1772.7094,247.6706,1775.4316,257.43,1774.1073" style="stroke:#000000;stroke-width:1;"/></g><!--link Admin to GenStats--><g class="link" data-entity-1="Admin" data-entity-2="GenStats" data-source-line="62" data-uid="lnk46" id="link_Admin_GenStats"><path d="M93.69,1421.9073 C107.25,1518.4573 146.63,1764.2173 203,1821.7373 C217.78,1836.8173 232.2556,1844.4432 252.5756,1850.0432" fill="none" id="Admin-to-GenStats" style="stroke:#000000;stroke-width:1;"/><polygon fill="#000000" points="258.36,1851.6373,250.7462,1845.3899,253.5397,1850.3089,248.6207,1853.1024,258.36,1851.6373" style="stroke:#000000;stroke-width:1;"/></g><!--reverse link UC1 to UC1.1--><g class="link" data-entity-1="UC1" data-entity-2="UC1.1" data-source-line="65" data-uid="lnk47" id="link_UC1_UC1.1"><path d="M344.8884,594.8229 C354.6684,527.2529 390.87,339.2273 511,231.7373 C525.02,219.1873 543.27,211.0173 561.28,205.6873" fill="none" id="UC1-backto-UC1.1" style="stroke:#000000;stroke-width:1;"/><polygon fill="none" points="342.31,612.6373,350.8266,595.6824,338.9503,593.9635,342.31,612.6373" style="stroke:#000000;stroke-width:1;"/></g><!--reverse link UC1 to UC1.2--><g class="link" data-entity-1="UC1" data-entity-2="UC1.2" data-source-line="66" data-uid="lnk48" id="link_UC1_UC1.2"><path d="M356.2007,596.3856 C377.6507,548.5956 427.72,450.8873 511,389.7373 C525.88,378.8073 544.02,370.9573 561.63,365.3373" fill="none" id="UC1-backto-UC1.2" style="stroke:#000000;stroke-width:1;"/><polygon fill="none" points="348.83,612.8073,361.6746,598.8425,350.7268,593.9287,348.83,612.8073" style="stroke:#000000;stroke-width:1;"/></g><!--reverse link UC1 to UC1.3--><g class="link" data-entity-1="UC1" data-entity-2="UC1.3" data-source-line="67" data-uid="lnk49" id="link_UC1_UC1.3"><path d="M342.2316,594.7504 C347.9916,519.9304 375.55,290.9673 511,158.7373 C522.63,147.3873 537.56,139.2573 552.92,133.4273" fill="none" id="UC1-backto-UC1.3" style="stroke:#000000;stroke-width:1;"/><polygon fill="none" points="340.85,612.6973,348.2139,595.211,336.2493,594.2899,340.85,612.6973" style="stroke:#000000;stroke-width:1;"/></g><!--reverse link UC1 to UC1.4--><g class="link" data-entity-1="UC1" data-entity-2="UC1.4" data-source-line="68" data-uid="lnk50" id="link_UC1_UC1.4"><path d="M349.7729,595.378 C365.5029,537.528 411.1,397.1573 511,312.7373 C523.66,302.0373 539.3,294.1673 555.04,288.3973" fill="none" id="UC1-backto-UC1.4" style="stroke:#000000;stroke-width:1;"/><polygon fill="none" points="345.05,612.7473,355.5627,596.9523,343.9831,593.8037,345.05,612.7473" style="stroke:#000000;stroke-width:1;"/></g><!--reverse link UC2 to UC2.1--><g class="link" data-entity-1="UC2" data-entity-2="UC2.1" data-source-line="70" data-uid="lnk51" id="link_UC2_UC2.1"><path d="M381.2748,799.201 C412.4248,771.891 448.84,736.2173 481,686.7373 C500.12,657.3273 485.01,637.2873 511,613.7373 C525.67,600.4473 545.07,592.0573 563.99,586.7673" fill="none" id="UC2-backto-UC2.1" style="stroke:#000000;stroke-width:1;"/><polygon fill="none" points="367.74,811.0673,385.2302,803.7126,377.3194,794.6894,367.74,811.0673" style="stroke:#000000;stroke-width:1;"/></g><!--reverse link UC2 to UC2.2--><g class="link" data-entity-1="UC2" data-entity-2="UC2.2" data-source-line="71" data-uid="lnk52" id="link_UC2_UC2.2"><path d="M435.1289,811.4131 C457.8189,803.1731 464.07,797.2773 481,779.7373 C509.12,750.6173 482.18,722.1673 511,693.7373 C522.8,682.0973 538.08,673.8373 553.76,667.9873" fill="none" id="UC2-backto-UC2.2" style="stroke:#000000;stroke-width:1;"/><polygon fill="none" points="418.21,817.5573,437.177,817.0527,433.0808,805.7735,418.21,817.5573" style="stroke:#000000;stroke-width:1;"/></g><!--reverse link UC2 to UC2.3--><g class="link" data-entity-1="UC2" data-entity-2="UC2.3" data-source-line="72" data-uid="lnk53" id="link_UC2_UC2.3"><path d="M372.431,796.7167 C402.831,760.9167 447.11,704.5873 481,636.7373 C500.78,597.1273 479.58,572.9373 511,541.7373 C523.84,528.9873 540.97,520.6173 558.25,515.1173" fill="none" id="UC2-backto-UC2.3" style="stroke:#000000;stroke-width:1;"/><polygon fill="none" points="360.78,810.4373,377.0045,800.6004,367.8575,792.8331,360.78,810.4373" style="stroke:#000000;stroke-width:1;"/></g><!--reverse link UC2 to UC2.4--><g class="link" data-entity-1="UC2" data-entity-2="UC2.4" data-source-line="73" data-uid="lnk54" id="link_UC2_UC2.4"><path d="M372.5284,796.8045 C398.0784,766.7045 428.88,726.5473 454,673.7373 C494.81,587.9573 445.33,536.3773 511,467.7373 C522.96,455.2373 538.97,446.7273 555.39,440.9573" fill="none" id="UC2-backto-UC2.4" style="stroke:#000000;stroke-width:1;"/><polygon fill="none" points="360.88,810.5273,377.1027,800.6873,367.9541,792.9217,360.88,810.5273" style="stroke:#000000;stroke-width:1;"/></g><!--reverse link UC3 to UC3.1--><g class="link" data-entity-1="UC3" data-entity-2="UC3.1" data-source-line="75" data-uid="lnk55" id="link_UC3_UC3.1"><path d="M405.1792,899.3534 C425.6592,890.8334 432.93,887.2973 454,876.7373 C480.17,863.6273 484.18,855.4573 511,843.7373 C531.28,834.8773 554.34,827.2273 574.79,821.2173" fill="none" id="UC3-backto-UC3.1" style="stroke:#000000;stroke-width:1;"/><polygon fill="none" points="388.56,906.2673,407.4838,904.8932,402.8746,893.8137,388.56,906.2673" style="stroke:#000000;stroke-width:1;"/></g><!--reverse link UC3 to UC3.2--><g class="link" data-entity-1="UC3" data-entity-2="UC3.2" data-source-line="76" data-uid="lnk56" id="link_UC3_UC3.2"><path d="M417.7408,901.5028 C436.3208,894.0328 439.03,890.4873 454,876.7373 C493.69,840.2973 469.58,804.1973 511,769.7373 C525.36,757.7873 543.52,749.5773 561.33,743.9473" fill="none" id="UC3-backto-UC3.2" style="stroke:#000000;stroke-width:1;"/><polygon fill="none" points="401.04,908.2173,419.9789,907.0698,415.5026,895.9359,401.04,908.2173" style="stroke:#000000;stroke-width:1;"/></g><!--reverse link UC3 to UC3.3--><g class="link" data-entity-1="UC3" data-entity-2="UC3.3" data-source-line="77" data-uid="lnk57" id="link_UC3_UC3.3"><path d="M442.0426,939.8063 C482.3826,945.3463 512.51,949.4773 552.08,954.9073" fill="none" id="UC3-backto-UC3.3" style="stroke:#000000;stroke-width:1;"/><polygon fill="none" points="424.21,937.3573,441.2263,945.7505,442.859,933.8621,424.21,937.3573" style="stroke:#000000;stroke-width:1;"/></g><!--reverse link UC3 to UC3.4--><g class="link" data-entity-1="UC3" data-entity-2="UC3.4" data-source-line="78" data-uid="lnk58" id="link_UC3_UC3.4"><path d="M442.0428,911.6699 C478.1828,906.7099 502.6,903.3573 539.46,898.2973" fill="none" id="UC3-backto-UC3.4" style="stroke:#000000;stroke-width:1;"/><polygon fill="none" points="424.21,914.1173,442.8587,917.6141,441.227,905.7256,424.21,914.1173" style="stroke:#000000;stroke-width:1;"/></g><!--reverse link UC4 to UC4.1--><g class="link" data-entity-1="UC4" data-entity-2="UC4.1" data-source-line="80" data-uid="lnk59" id="link_UC4_UC4.1"><path d="M363.4332,1290.6894 C389.6232,1254.2394 440.64,1190.0273 511,1146.7373 C528.55,1135.9473 549.49,1128.0773 568.93,1122.4473" fill="none" id="UC4-backto-UC4.1" style="stroke:#000000;stroke-width:1;"/><polygon fill="none" points="352.93,1305.3073,368.3058,1294.1905,358.5606,1287.1884,352.93,1305.3073" style="stroke:#000000;stroke-width:1;"/></g><!--reverse link UC4 to UC4.2--><g class="link" data-entity-1="UC4" data-entity-2="UC4.2" data-source-line="81" data-uid="lnk60" id="link_UC4_UC4.2"><path d="M354.0465,1288.6067 C373.6865,1241.1767 423.64,1135.7173 511,1072.7373 C528.65,1060.0073 550.94,1052.0373 571.5,1047.0473" fill="none" id="UC4-backto-UC4.2" style="stroke:#000000;stroke-width:1;"/><polygon fill="none" points="347.16,1305.2373,359.59,1290.9022,348.5029,1286.3112,347.16,1305.2373" style="stroke:#000000;stroke-width:1;"/></g><!--reverse link UC4 to UC4.3--><g class="link" data-entity-1="UC4" data-entity-2="UC4.3" data-source-line="82" data-uid="lnk61" id="link_UC4_UC4.3"><path d="M415.6423,1306.4537 C465.2723,1294.5337 518.68,1281.7073 569.18,1269.5773" fill="none" id="UC4-backto-UC4.3" style="stroke:#000000;stroke-width:1;"/><polygon fill="none" points="398.14,1310.6573,417.0435,1312.2877,414.2411,1300.6196,398.14,1310.6573" style="stroke:#000000;stroke-width:1;"/></g><!--reverse link UC4 to UC4.4--><g class="link" data-entity-1="UC4" data-entity-2="UC4.4" data-source-line="83" data-uid="lnk62" id="link_UC4_UC4.4"><path d="M378.6264,1295.4843 C410.8564,1271.8543 455.33,1241.7973 511,1216.7373 C531.98,1207.2973 556.16,1199.6773 577.29,1193.9773" fill="none" id="UC4-backto-UC4.4" style="stroke:#000000;stroke-width:1;"/><polygon fill="none" points="364.11,1306.1273,382.1741,1300.3231,375.0788,1290.6455,364.11,1306.1273" style="stroke:#000000;stroke-width:1;"/></g><!--reverse link UC5 to UC5.1--><g class="link" data-entity-1="UC5" data-entity-2="UC5.1" data-source-line="85" data-uid="lnk63" id="link_UC5_UC5.1"><path d="M437.15,1422.7373 C465.47,1422.7373 480.02,1422.7373 510.96,1422.7373" fill="none" id="UC5-backto-UC5.1" style="stroke:#000000;stroke-width:1;"/><polygon fill="none" points="419.15,1422.7373,437.15,1428.7373,437.15,1416.7373,419.15,1422.7373" style="stroke:#000000;stroke-width:1;"/></g><!--reverse link UC5 to UC5.2--><g class="link" data-entity-1="UC5" data-entity-2="UC5.2" data-source-line="86" data-uid="lnk64" id="link_UC5_UC5.2"><path d="M405.538,1403.0287 C453.678,1388.6587 510.39,1371.7373 564.01,1355.7273" fill="none" id="UC5-backto-UC5.2" style="stroke:#000000;stroke-width:1;"/><polygon fill="none" points="388.29,1408.1773,407.2542,1408.778,403.8218,1397.2794,388.29,1408.1773" style="stroke:#000000;stroke-width:1;"/></g><!--reverse link UC5 to UC5.3--><g class="link" data-entity-1="UC5" data-entity-2="UC5.3" data-source-line="87" data-uid="lnk65" id="link_UC5_UC5.3"><path d="M372.4588,1453.1945 C402.8688,1480.7945 450.85,1521.0273 511,1552.7373 C528.29,1561.8573 548.06,1569.4673 566.5,1575.5173" fill="none" id="UC5-backto-UC5.3" style="stroke:#000000;stroke-width:1;"/><polygon fill="none" points="359.13,1441.0973,368.4264,1457.6374,376.4912,1448.7516,359.13,1441.0973" style="stroke:#000000;stroke-width:1;"/></g><!--reverse link UC5 to UC5.4--><g class="link" data-entity-1="UC5" data-entity-2="UC5.4" data-source-line="88" data-uid="lnk66" id="link_UC5_UC5.4"><path d="M405.5383,1442.4447 C453.1883,1456.6647 508.9,1473.2973 562.38,1489.2573" fill="none" id="UC5-backto-UC5.4" style="stroke:#000000;stroke-width:1;"/><polygon fill="none" points="388.29,1437.2973,403.8225,1448.1941,407.2541,1436.6952,388.29,1437.2973" style="stroke:#000000;stroke-width:1;"/></g><!--link Login to ValidatePerms--><g class="link" data-entity-1="Login" data-entity-2="ValidatePerms" data-source-line="91" data-uid="lnk67" id="link_Login_ValidatePerms"><path d="M409.87,1717.4973 C426.86,1722.8273 443.22,1731.5573 454,1745.7373 C505.41,1813.3473 447.97,2431.0673 480,2509.7373 C487.71,2528.6773 492.29,2535.4773 511,2543.7373 C648.71,2604.5373 748.77,2622.9473 848,2509.7373 C947.54,2396.1773 969.1906,2209.3612 973.8606,2145.7612" fill="none" id="Login-to-ValidatePerms" style="stroke:#000000;stroke-width:1;stroke-dasharray:7.0,7.0;"/><polygon fill="#000000" points="974.3,2139.7773,969.6517,2148.4602,973.9338,2144.7639,977.6302,2149.0461,974.3,2139.7773" style="stroke:#000000;stroke-width:1;"/><text fill="#000000" font-family="Verdana" font-size="13" lengthAdjust="spacing" textLength="62.9624" x="601" y="2540.8071">&#171;include&#187;</text></g><!--link UC1 to ValidatePerms--><g class="link" data-entity-1="UC1" data-entity-2="ValidatePerms" data-source-line="92" data-uid="lnk68" id="link_UC1_ValidatePerms"><path d="M361.84,656.3073 C389.44,684.6173 435.08,737.2673 454,792.7373 C491.19,901.7473 435.92,1740.3973 511,1827.7373 C592.17,1922.1673 682.54,1834.5973 777,1915.7373 C839.05,1969.0373 798.65,2026.2073 860.5,2079.7373 C873.65,2091.1173 884.6049,2097.2407 901.0849,2102.9907" fill="none" id="UC1-to-ValidatePerms" style="stroke:#000000;stroke-width:1;stroke-dasharray:7.0,7.0;"/><polygon fill="#000000" points="906.75,2104.9673,899.5701,2098.2257,902.0291,2103.3201,896.9347,2105.7791,906.75,2104.9673" style="stroke:#000000;stroke-width:1;"/><text fill="#000000" font-family="Verdana" font-size="13" lengthAdjust="spacing" textLength="62.9624" x="601" y="1824.8071">&#171;include&#187;</text></g><!--link UC2 to ValidatePerms--><g class="link" data-entity-1="UC2" data-entity-2="ValidatePerms" data-source-line="93" data-uid="lnk69" id="link_UC2_ValidatePerms"><path d="M413.16,853.0973 C429.17,860.5873 444.22,871.0773 454,885.7373 C486.77,934.8873 473.8,1889.9873 480,1948.7373 C487.83,2022.9473 453.83,2065.7873 511,2113.7373 C567.46,2161.0973 774.0625,2144.1005 891.0825,2130.0905" fill="none" id="UC2-to-ValidatePerms" style="stroke:#000000;stroke-width:1;stroke-dasharray:7.0,7.0;"/><polygon fill="#000000" points="897.04,2129.3773,887.6283,2126.4755,892.0755,2129.9717,888.5793,2134.4188,897.04,2129.3773" style="stroke:#000000;stroke-width:1;"/><text fill="#000000" font-family="Verdana" font-size="13" lengthAdjust="spacing" textLength="62.9624" x="601" y="2110.8071">&#171;include&#187;</text></g><!--link UC3 to ValidatePerms--><g class="link" data-entity-1="UC3" data-entity-2="ValidatePerms" data-source-line="94" data-uid="lnk70" id="link_UC3_ValidatePerms"><path d="M349.14,948.4773 C372.44,1004.7473 431.55,1155.4873 454,1287.7373 C470.15,1382.8673 443.8,2066.2973 480,2155.7373 C547.97,2323.6573 832.5266,2193.9552 934.5166,2140.9252" fill="none" id="UC3-to-ValidatePerms" style="stroke:#000000;stroke-width:1;stroke-dasharray:7.0,7.0;"/><polygon fill="#000000" points="939.84,2138.1573,930.0096,2138.7602,935.4038,2140.4639,933.7002,2145.8581,939.84,2138.1573" style="stroke:#000000;stroke-width:1;"/><text fill="#000000" font-family="Verdana" font-size="13" lengthAdjust="spacing" textLength="62.9624" x="601" y="2201.8071">&#171;include&#187;</text></g><!--link UC4 to ValidatePerms--><g class="link" data-entity-1="UC4" data-entity-2="ValidatePerms" data-source-line="95" data-uid="lnk71" id="link_UC4_ValidatePerms"><path d="M392.15,1339.9273 C415.25,1349.4573 440.2,1364.3073 454,1386.7373 C516.5,1488.3273 419.07,2382.7373 511,2458.7373 C602.11,2534.0673 674.47,2517.5973 777,2458.7373 C902.07,2386.9273 954.4194,2208.3516 969.4494,2145.7416" fill="none" id="UC4-to-ValidatePerms" style="stroke:#000000;stroke-width:1;stroke-dasharray:7.0,7.0;"/><polygon fill="#000000" points="970.85,2139.9073,964.8597,2147.725,969.6829,2144.7692,972.6387,2149.5924,970.85,2139.9073" style="stroke:#000000;stroke-width:1;"/><text fill="#000000" font-family="Verdana" font-size="13" lengthAdjust="spacing" textLength="62.9624" x="601" y="2455.8071">&#171;include&#187;</text></g><!--link UC1 to LogActions--><g class="link" data-entity-1="UC1" data-entity-2="LogActions" data-source-line="97" data-uid="lnk72" id="link_UC1_LogActions"><path d="M361.81,656.3073 C389.38,684.6373 434.99,737.2973 454,792.7373 C488.84,894.3373 437.7,1679.2273 511,1757.7373 C615.99,1870.1773 748.05,1719.7873 848,1836.7373 C872.47,1865.3673 837.21,1976.1473 860.5,2005.7373 C870.88,2018.9273 880.3349,2025.5009 896.2149,2031.0409" fill="none" id="UC1-to-LogActions" style="stroke:#000000;stroke-width:1;stroke-dasharray:7.0,7.0;"/><polygon fill="#000000" points="901.88,2033.0173,894.6999,2026.276,897.159,2031.3703,892.0647,2033.8295,901.88,2033.0173" style="stroke:#000000;stroke-width:1;"/><text fill="#000000" font-family="Verdana" font-size="13" lengthAdjust="spacing" textLength="62.9624" x="601" y="1754.8071">&#171;include&#187;</text></g><!--link UC2 to LogActions--><g class="link" data-entity-1="UC2" data-entity-2="LogActions" data-source-line="98" data-uid="lnk73" id="link_UC2_LogActions"><path d="M413.14,853.0973 C429.15,860.5873 444.21,871.0773 454,885.7373 C524.37,991.1173 412.95,1944.4773 511,2024.7373 C630.75,2122.7573 825.9239,2085.625 919.2539,2060.015" fill="none" id="UC2-to-LogActions" style="stroke:#000000;stroke-width:1;stroke-dasharray:7.0,7.0;"/><polygon fill="#000000" points="925.04,2058.4273,915.3023,2056.9515,920.2182,2059.7504,917.4193,2064.6663,925.04,2058.4273" style="stroke:#000000;stroke-width:1;"/><text fill="#000000" font-family="Verdana" font-size="13" lengthAdjust="spacing" textLength="62.9624" x="601" y="2021.8071">&#171;include&#187;</text></g><!--link UC4 to LogActions--><g class="link" data-entity-1="UC4" data-entity-2="LogActions" data-source-line="99" data-uid="lnk74" id="link_UC4_LogActions"><path d="M392.14,1339.9373 C415.23,1349.4673 440.18,1364.3173 454,1386.7373 C511.92,1480.7273 424.23,2310.4773 511,2378.7373 C603.91,2451.8373 682.83,2450.2173 777,2378.7373 C886.9,2295.3273 764.86,2179.1773 860.5,2079.7373 C872.42,2067.3473 882.821,2060.9941 899.171,2055.5141" fill="none" id="UC4-to-LogActions" style="stroke:#000000;stroke-width:1;stroke-dasharray:7.0,7.0;"/><polygon fill="#000000" points="904.86,2053.6073,895.0554,2052.6748,900.1192,2055.1963,897.5977,2060.2601,904.86,2053.6073" style="stroke:#000000;stroke-width:1;"/><text fill="#000000" font-family="Verdana" font-size="13" lengthAdjust="spacing" textLength="62.9624" x="601" y="2375.8071">&#171;include&#187;</text></g><!--link UC1.1 to SendNotif--><g class="link" data-entity-1="UC1.1" data-entity-2="SendNotif" data-source-line="101" data-uid="lnk75" id="link_UC1.1_SendNotif"><path d="M714.51,197.8973 C738.23,202.7973 761.83,212.6873 777,231.7373 C784.13,240.6873 784.16,632.3273 785,643.7373 C801.16,863.5973 832.2,915.8573 848,1135.7373 C849.55,1157.2973 848.83,1895.5473 860.5,1913.7373 C873.29,1933.6673 889.8674,1944.4001 911.3674,1952.6401" fill="none" id="UC1.1-to-SendNotif" style="stroke:#000000;stroke-width:1;stroke-dasharray:7.0,7.0;"/><polygon fill="#000000" points="916.97,1954.7873,909.9976,1947.8314,912.3011,1952.9979,907.1346,1955.3015,916.97,1954.7873" style="stroke:#000000;stroke-width:1;"/><text fill="#000000" font-family="Verdana" font-size="13" lengthAdjust="spacing" textLength="61.3882" x="786" y="640.8071">&#171;extend&#187;</text></g><!--link UC1.3 to SendNotif--><g class="link" data-entity-1="UC1.3" data-entity-2="SendNotif" data-source-line="102" data-uid="lnk76" id="link_UC1.3_SendNotif"><path d="M726.72,127.3473 C745.95,133.4473 764.2,143.2373 777,158.7373 C784.03,167.2473 783.4,246.8173 785,257.7373 C804.44,390.3873 833.31,419.4773 848,552.7373 C852.14,590.3173 840.2,1881.8473 860.5,1913.7373 C873.22,1933.7173 889.7862,1944.4532 911.2962,1952.6832" fill="none" id="UC1.3-to-SendNotif" style="stroke:#000000;stroke-width:1;stroke-dasharray:7.0,7.0;"/><polygon fill="#000000" points="916.9,1954.8273,909.9237,1947.8753,912.2301,1953.0406,907.0649,1955.347,916.9,1954.8273" style="stroke:#000000;stroke-width:1;"/><text fill="#000000" font-family="Verdana" font-size="13" lengthAdjust="spacing" textLength="61.3882" x="786" y="254.8071">&#171;extend&#187;</text></g><!--link UC4.1 to SendNotif--><g class="link" data-entity-1="UC4.1" data-entity-2="SendNotif" data-source-line="103" data-uid="lnk77" id="link_UC4.1_SendNotif"><path d="M714.58,1113.6573 C737.88,1118.8373 761.2,1128.6673 777,1146.7373 C865.79,1248.3273 834.98,1615.4373 848,1749.7373 C849.76,1767.9273 850.18,1898.6573 860.5,1913.7373 C874,1933.4573 890.9787,1944.1766 912.5687,1952.4666" fill="none" id="UC4.1-to-SendNotif" style="stroke:#000000;stroke-width:1;stroke-dasharray:7.0,7.0;"/><polygon fill="#000000" points="918.17,1954.6173,911.2019,1947.657,913.5023,1952.825,908.3343,1955.1254,918.17,1954.6173" style="stroke:#000000;stroke-width:1;"/><text fill="#000000" font-family="Verdana" font-size="13" lengthAdjust="spacing" textLength="61.3882" x="786" y="1157.8071">&#171;extend&#187;</text></g><!--link UC1.3 to Teacher--><g class="link" data-entity-1="UC1.3" data-entity-2="Teacher" data-source-line="106" data-uid="lnk78" id="link_UC1.3_Teacher"><path d="M720.33,130.2873 C740.6,136.2273 760.92,145.2073 777,158.7373 C898.78,261.2373 949.6296,449.5248 967.0296,532.5748" fill="none" id="UC1.3-to-Teacher" style="stroke:#000000;stroke-width:1;stroke-dasharray:7.0,7.0;"/><polygon fill="#000000" points="968.26,538.4473,970.3295,528.8183,967.2347,533.5536,962.4995,530.4588,968.26,538.4473" style="stroke:#000000;stroke-width:1;"/><text fill="#000000" font-family="Verdana" font-size="13" lengthAdjust="spacing" textLength="53.8281" x="790" y="164.8071">&#171;notify&#187;</text></g><!--link UC2.1 to Teacher--><g class="link" data-entity-1="UC2.1" data-entity-2="Teacher" data-source-line="107" data-uid="lnk79" id="link_UC2.1_Teacher"><path d="M710.29,577.7373 C786.05,577.7373 891.35,577.7373 942.27,577.7373" fill="none" id="UC2.1-to-Teacher" style="stroke:#000000;stroke-width:1;stroke-dasharray:7.0,7.0;"/><polygon fill="#000000" points="948.27,577.7373,939.27,573.7373,943.27,577.7373,939.27,581.7373,948.27,577.7373" style="stroke:#000000;stroke-width:1;"/><text fill="#000000" font-family="Verdana" font-size="13" lengthAdjust="spacing" textLength="60.1187" x="786.5" y="574.8071">&#171;affects&#187;</text></g><!--link UC2.2 to Teacher--><g class="link" data-entity-1="UC2.2" data-entity-2="Teacher" data-source-line="108" data-uid="lnk80" id="link_UC2.2_Teacher"><path d="M704.38,637.8973 C780.25,621.0673 890.4624,596.6066 942.6224,585.0366" fill="none" id="UC2.2-to-Teacher" style="stroke:#000000;stroke-width:1;stroke-dasharray:7.0,7.0;"/><polygon fill="#000000" points="948.48,583.7373,938.8273,581.7812,943.5986,584.8201,940.5598,589.5914,948.48,583.7373" style="stroke:#000000;stroke-width:1;"/><text fill="#000000" font-family="Verdana" font-size="13" lengthAdjust="spacing" textLength="60.1187" x="786.5" y="603.8071">&#171;affects&#187;</text></g><!--link UC1 to GMN81--><g class="link" data-entity-1="UC1" data-entity-2="GMN81" data-source-line="111" data-uid="lnk83" id="link_UC1_GMN81"><path d="M361.51,656.4173 C388.77,684.8473 434.04,737.6373 454,792.7373 C517.63,968.4473 404.8,1477.9773 511,1631.7373 C515.95,1638.9073 522.07,1645.1573 528.91,1650.6073" fill="none" id="UC1-GMN81" style="stroke:#000000;stroke-width:1;stroke-dasharray:7.0,7.0;"/></g><!--link UC2 to GMN84--><g class="link" data-entity-1="UC2" data-entity-2="GMN84" data-source-line="118" data-uid="lnk86" id="link_UC2_GMN84"><path d="M413.14,853.1073 C429.15,860.5873 444.21,871.0773 454,885.7373 C515.92,978.4473 421.96,1793.5573 480,1888.7373 C492.89,1909.8673 513.86,1925.0173 536.13,1935.8273" fill="none" id="UC2-GMN84" style="stroke:#000000;stroke-width:1;stroke-dasharray:7.0,7.0;"/></g><!--link UC4 to GMN87--><g class="link" data-entity-1="UC4" data-entity-2="GMN87" data-source-line="124" data-uid="lnk89" id="link_UC4_GMN87"><path d="M392.13,1339.9373 C415.23,1349.4673 440.18,1364.3173 454,1386.7373 C503.93,1467.7373 430.28,2161.6073 480,2242.7373 C492.25,2262.7273 511.72,2277.3573 532.67,2288.0273" fill="none" id="UC4-GMN87" style="stroke:#000000;stroke-width:1;stroke-dasharray:7.0,7.0;"/></g><!--link ValidatePerms to GMN90--><g class="link" data-entity-1="ValidatePerms" data-entity-2="GMN90" data-source-line="130" data-uid="lnk92" id="link_ValidatePerms_GMN90"><path d="M893.84,2109.3873 C864.96,2101.6073 835.59,2087.5473 818.75,2062.2373 C791.18,2020.7873 792.97,1992.8173 818.75,1950.2373 C833.32,1926.1773 857.46,1908.7973 882.53,1896.3973" fill="none" id="ValidatePerms-GMN90" style="stroke:#000000;stroke-width:1;stroke-dasharray:7.0,7.0;"/></g><!--SRC=[ZLPDRziu4BthLypwqfDJL98lHH30QxTDWNPRn4ttp4WZYmXDQaaggR6x_xr3Yf989t5xqni-pXT7Z_p3jdX0w0JZChFS2eHloAeMDQojHLapMI7iZiRY0PQmhWzSmcScsPwsIGkt1c7339ei4zXOi0eqtxSMQgwnibp9B6ELLHeMmObtmOtLZAmBO6QmZAmGtI-4xzI1Nna-iyp5O79FMIyYl_m1uNqlVNYpW7ypWDvWHMd2OiZTvKqLLfNgfJNUvUtcJSnRrpNyXOyGvqEKYuHqszNCpXtxA1ir4VEOk4M14J44dhX5pBr1WtQYVcN6F2fTJzoIk35zesJ3zxsUJcc7rdAv7wjAyg0r-5lfUxXMlPuOQL5RRBX4-4ILlNx7j3Z2JIzm9kVFHxzMWjViEFEAqy1_ikg-xs17TTNaSIAULlHPIUuEFDHpZKpODh0Jfzyv7L1WVL9JnKLQpwR5wXxUSngIZzBYNdDxd9ZvSu6_ecwKFhZHduX9u0yeKRkJ3y5li5FQpl5FAzeoowA_9l3Ac1AQuvakrz5PcHP3mq4PekTDZAI8jQvQzmDy4JNbLT7epAwI8jxzS4d3MeZKssdo7uIwOoBKI8CLYAjd6nA9HjgKLLg7FxejTanRhoCxIx-jiRoQ-UcSQNJkDpsLVtZYEXsrC5-11I4tqeA9NsR_9zgnQvd6-aNDeDaYrIDfYnJ8svvKDFLgxhkp1_py2AMLazrPp6c6mw2zbE5tvdu-yaQZU-3631GNFImukpcfAQZvUlGuL1LW-lDA4aDbUSChDfETsLjThg-2DurYeBIyCzbWMowlGhzcxEGsHdc2YWIL2Lf5A6xkR9rwI5cv2yfNWJzeCdrZCeeDb_yjbq7G4vYdi4XXcH7EHvpxpH7CKrYaq6ykHbpupH7CKrYaq6ykHrpwpH7CKrYaq6zUZNZbDqSmJs6HmjArCSmV9m7LB4p8y5jSN5obKmPluVAIoqhqDLvT-VxzcfF_1gVu3KxvIywKq3phBsHpXb2U9sH-i3nd-aaynGzXFNJbeZXFACzxe4CPtmZyqD6PH3x71RT1kgt7eQpWCLvcJKCgOy9wVcOz8qyONdUg2Uyb_uuwpE_1q0Cd7vkRsoseBcYl0KKI6Xvq02mylU2HsnOwxNXaVXWEZlZ0I7E4sjE8xJEdFoxwqnpS9H5cimfF4R_TXHWo1qON74cPDiubsJN-qzFZr90iQ6nw4GKz4yZTYlvoZeebFQ6NZwlL32cG-75snmMzC4AmcXj6IvgMAlM0-dWQuavPTwDHZ5EfTXSpyvhMZAe_vawhGyj0AxeTqgwvnUaMWCgzVf8U_WG0]--></g></svg>